<?xml version="1.0" encoding="utf-8"?>
<!-- Generator: Adobe Illustrator 21.1.0, SVG Export Plug-In . SVG Version: 6.00 Build 0)  -->
<svg version="1.1" id="Warstwa_1" xmlns="http://www.w3.org/2000/svg" xmlns:xlink="http://www.w3.org/1999/xlink" x="0px" y="0px"
	 viewBox="0 0 1417.3 1417.3" style="enable-background:new 0 0 1417.3 1417.3;" xml:space="preserve">
<style type="text/css">
	.st0{clip-path:url(#SVGID_2_);}
	.st1{fill:#161616;}
	.st2{fill:none;stroke:#B1B1B1;stroke-width:1.125;stroke-miterlimit:10;}
	.st3{fill:#212121;}
	.st4{fill:#177700;}
	.st5{fill:#196600;}
	.st6{clip-path:url(#SVGID_4_);}
	.st7{fill:#EA0707;}
	.st8{fill:#EFEFEF;}
	.st9{fill:#DBDBDB;}
</style>
<g id="badminton2">
	<g>
		<defs>
			<path id="SVGID_1_" d="M932.7,649.4C805.6,567.8,770.6,397.8,890.2,240c119.6-157.8,297.6-188.2,426.7-94.4
				c116.4,84.6,101.8,283-12.2,405.6C1188.2,676.6,1056.6,728.8,932.7,649.4z"/>
		</defs>
		<clipPath id="SVGID_2_">
			<use xlink:href="#SVGID_1_"  style="overflow:visible;"/>
		</clipPath>
		<g class="st0">
			<g>
				
					<rect x="1284.3" y="-186.6" transform="matrix(0.6042 -0.7968 0.7968 0.6042 352.0522 1102.3237)" class="st1" width="2.8" height="766.8"/>
				
					<rect x="1310" y="-220.6" transform="matrix(0.6042 -0.7968 0.7968 0.6042 389.2639 1109.3932)" class="st1" width="2.8" height="766.8"/>
				<line class="st2" x1="1031.6" y1="-102.7" x2="1642.6" y2="360.6"/>
				
					<rect x="1258.6" y="-152.7" transform="matrix(0.6042 -0.7968 0.7968 0.6042 314.8398 1095.2533)" class="st1" width="2.8" height="766.8"/>
				
					<rect x="1232.8" y="-118.8" transform="matrix(0.6042 -0.7968 0.7968 0.6042 277.6259 1088.1774)" class="st1" width="2.8" height="766.8"/>
				
					<rect x="1207.1" y="-84.9" transform="matrix(0.6042 -0.7968 0.7968 0.6042 240.4158 1081.1023)" class="st1" width="2.8" height="766.8"/>
				
					<rect x="1181.4" y="-50.9" transform="matrix(0.6042 -0.7968 0.7968 0.6042 203.2037 1074.0347)" class="st1" width="2.8" height="766.8"/>
				
					<rect x="1155.7" y="-17" transform="matrix(0.6042 -0.7968 0.7968 0.6042 166.0066 1066.9785)" class="st1" width="2.8" height="766.8"/>
				
					<rect x="1129.9" y="16.9" transform="matrix(0.6042 -0.7968 0.7968 0.6042 128.7859 1059.9025)" class="st1" width="2.8" height="766.8"/>
				
					<rect x="1104.2" y="50.8" transform="matrix(0.6042 -0.7968 0.7968 0.6042 91.572 1052.825)" class="st1" width="2.8" height="766.8"/>
				
					<rect x="1078.5" y="84.7" transform="matrix(0.6042 -0.7968 0.7968 0.6042 54.3599 1045.7529)" class="st1" width="2.8" height="766.8"/>
				
					<rect x="1052.8" y="118.7" transform="matrix(0.6042 -0.7968 0.7968 0.6042 17.1488 1038.6915)" class="st1" width="2.8" height="766.8"/>
				
					<rect x="1027" y="152.6" transform="matrix(0.6042 -0.7968 0.7968 0.6042 -20.0637 1031.623)" class="st1" width="2.8" height="766.8"/>
				
					<rect x="1001.3" y="186.5" transform="matrix(0.6042 -0.7968 0.7968 0.6042 -57.2735 1024.5518)" class="st1" width="2.8" height="766.8"/>
				
					<rect x="975.6" y="220.4" transform="matrix(0.6042 -0.7968 0.7968 0.6042 -94.4916 1017.4554)" class="st1" width="2.8" height="766.8"/>
				
					<rect x="949.9" y="254.4" transform="matrix(0.6042 -0.7968 0.7968 0.6042 -131.6948 1010.4052)" class="st1" width="2.8" height="766.8"/>
				
					<rect x="924.2" y="288.3" transform="matrix(0.6042 -0.7968 0.7968 0.6042 -168.9036 1003.3304)" class="st1" width="2.8" height="766.8"/>
				<line class="st2" x1="594.3" y1="474" x2="1205.3" y2="937.3"/>
			</g>
			<g>
				
					<rect x="911.7" y="560.2" transform="matrix(0.604 -0.797 0.797 0.604 65.263 1254.5645)" class="st1" width="766.8" height="2.8"/>
				
					<rect x="947.1" y="587" transform="matrix(0.604 -0.797 0.797 0.604 57.8922 1293.3749)" class="st1" width="766.8" height="2.8"/>
				<line class="st2" x1="1597.5" y1="309.7" x2="1134.2" y2="920.8"/>
				<line class="st2" x1="1632.9" y1="336.6" x2="1169.5" y2="947.6"/>
				
					<rect x="876.3" y="533.4" transform="matrix(0.604 -0.797 0.797 0.604 72.6269 1215.755)" class="st1" width="766.8" height="2.8"/>
				
					<rect x="841" y="506.6" transform="matrix(0.604 -0.797 0.797 0.604 80.0022 1176.952)" class="st1" width="766.8" height="2.8"/>
				
					<rect x="805.6" y="479.8" transform="matrix(0.604 -0.797 0.797 0.604 87.3712 1138.1395)" class="st1" width="766.8" height="2.8"/>
				
					<rect x="770.2" y="452.9" transform="matrix(0.604 -0.797 0.797 0.604 94.7363 1099.3269)" class="st1" width="766.8" height="2.8"/>
				
					<rect x="734.8" y="426.1" transform="matrix(0.604 -0.797 0.797 0.604 102.1041 1060.524)" class="st1" width="766.8" height="2.8"/>
				
					<rect x="699.5" y="399.3" transform="matrix(0.604 -0.797 0.797 0.604 109.4724 1021.7145)" class="st1" width="766.8" height="2.8"/>
				
					<rect x="664.1" y="372.5" transform="matrix(0.604 -0.797 0.797 0.604 116.8485 982.9109)" class="st1" width="766.8" height="2.8"/>
				
					<rect x="628.7" y="345.7" transform="matrix(0.604 -0.797 0.797 0.604 124.2125 944.0965)" class="st1" width="766.8" height="2.8"/>
				
					<rect x="593.4" y="318.8" transform="matrix(0.604 -0.797 0.797 0.604 131.5849 905.2876)" class="st1" width="766.8" height="2.8"/>
				<rect x="558" y="292" transform="matrix(0.604 -0.797 0.797 0.604 138.9493 866.478)" class="st1" width="766.8" height="2.8"/>
				
					<rect x="522.6" y="265.2" transform="matrix(0.604 -0.797 0.797 0.604 146.3207 827.6716)" class="st1" width="766.8" height="2.8"/>
				<line class="st2" x1="1102.3" y1="-65.7" x2="639" y2="545.3"/>
				<line class="st2" x1="1067" y1="-92.5" x2="603.6" y2="518.5"/>
			</g>
		</g>
	</g>
	<g>
		<g>
			<path class="st3" d="M908.9,199.8c123.7-133,314-157.7,424.4-55c110.3,102.6,99.4,294.3-24.2,427.2
				c-123.7,133-314,157.7-424.4,55C774.3,524.5,785.2,332.8,908.9,199.8z M923.9,213.8C808,338.5,796.6,517.1,898.6,612
				c102,94.9,279.4,70.7,395.3-54c116-124.7,127.3-303.3,25.3-398.2C1217.3,64.9,1039.9,89.1,923.9,213.8z"/>
		</g>
		<g>
			
				<rect x="333.5" y="852.4" transform="matrix(0.6811 -0.7322 0.7322 0.6811 -419.3732 762.4114)" class="st3" width="664" height="20.5"/>
		</g>
		<path class="st4" d="M843.3,583.8l32-12c11.7,31.4,33,51.1,65.3,60.7l-9.7,32.8c-15.2-4.5-28.1-11.5-40-19.8l-34.3,36.8l-25-23.3
			l34.3-36.8C856.8,611,848.8,598.6,843.3,583.8z"/>
		<g>
			<path class="st4" d="M232.8,1252.6l-23.1,24.9c0,0,7.2,19.7,29.5,43.8c15.9,17.2,45.6,26,45.6,26l23.1-24.9l227.5-244.5
				l-75.1-69.9L232.8,1252.6z"/>
			<path class="st4" d="M525.5,996.6c-1,9.4,7.3,17,16.6,15.4l-6.7,65.9c0,0-21.2-6.3-43.2-28.6c-25.1-25.5-31.9-41.3-31.9-41.3
				L525.5,996.6z"/>
		</g>
		<path class="st5" d="M529.5,1007.9l-293.1,310.3c0,0,16.7,20,48.3,29.1c30.6-32.8,250.6-269.4,250.6-269.4l6.7-65.9
			C542.1,1012,533.9,1013.7,529.5,1007.9z"/>
	</g>
	<g>
		<g>
			<defs>
				<path id="SVGID_3_" d="M490.9,636.5C618,555,653,385,533.4,227.2C413.8,69.4,235.8,39,106.7,132.8
					c-116.4,84.6-101.8,283,12.2,405.6C235.4,663.7,367,716,490.9,636.5z"/>
			</defs>
			<clipPath id="SVGID_4_">
				<use xlink:href="#SVGID_3_"  style="overflow:visible;"/>
			</clipPath>
			<g class="st6">
				<g>
					
						<rect x="-245.5" y="182.6" transform="matrix(0.7968 -0.6042 0.6042 0.7968 -83.1208 120.7266)" class="st1" width="766.8" height="2.8"/>
					
						<rect x="-271.2" y="148.6" transform="matrix(0.7968 -0.6042 0.6042 0.7968 -67.8498 98.289)" class="st1" width="766.8" height="2.8"/>
					<line class="st2" x1="392" y1="-115.6" x2="-219" y2="347.8"/>
					
						<rect x="-219.7" y="216.5" transform="matrix(0.7968 -0.6042 0.6042 0.7968 -98.3918 143.1615)" class="st1" width="766.8" height="2.8"/>
					
						<rect x="-194" y="250.4" transform="matrix(0.7968 -0.6042 0.6042 0.7968 -113.6614 165.5979)" class="st1" width="766.8" height="2.8"/>
					
						<rect x="-168.3" y="284.3" transform="matrix(0.7968 -0.6042 0.6042 0.7968 -128.9302 188.0316)" class="st1" width="766.8" height="2.8"/>
					
						<rect x="-142.6" y="318.3" transform="matrix(0.7968 -0.6042 0.6042 0.7968 -144.2024 210.4668)" class="st1" width="766.8" height="2.8"/>
					
						<rect x="-116.8" y="352.2" transform="matrix(0.7968 -0.6042 0.6042 0.7968 -159.4689 232.8944)" class="st1" width="766.8" height="2.8"/>
					
						<rect x="-91.1" y="386.1" transform="matrix(0.7968 -0.6042 0.6042 0.7968 -174.7433 255.3335)" class="st1" width="766.8" height="2.8"/>
					
						<rect x="-65.4" y="420" transform="matrix(0.7968 -0.6042 0.6042 0.7968 -190.0121 277.7725)" class="st1" width="766.8" height="2.8"/>
					
						<rect x="-39.7" y="453.9" transform="matrix(0.7968 -0.6042 0.6042 0.7968 -205.2849 300.2066)" class="st1" width="766.8" height="2.8"/>
					
						<rect x="-14" y="487.9" transform="matrix(0.7968 -0.6042 0.6042 0.7968 -220.5548 322.6398)" class="st1" width="766.8" height="2.8"/>
					
						<rect x="11.8" y="521.8" transform="matrix(0.7968 -0.6042 0.6042 0.7968 -235.8263 345.0741)" class="st1" width="766.8" height="2.8"/>
					
						<rect x="37.5" y="555.7" transform="matrix(0.7968 -0.6042 0.6042 0.7968 -251.0951 367.5082)" class="st1" width="766.8" height="2.8"/>
					
						<rect x="63.2" y="589.6" transform="matrix(0.7968 -0.6042 0.6042 0.7968 -266.3684 389.9583)" class="st1" width="766.8" height="2.8"/>
					
						<rect x="88.9" y="623.6" transform="matrix(0.7968 -0.6042 0.6042 0.7968 -281.6334 412.3793)" class="st1" width="766.8" height="2.8"/>
					
						<rect x="114.7" y="657.5" transform="matrix(0.7968 -0.6042 0.6042 0.7968 -296.9046 434.8153)" class="st1" width="766.8" height="2.8"/>
					<line class="st2" x1="829.3" y1="461.1" x2="218.3" y2="924.5"/>
				</g>
				<g>
					
						<rect x="127.1" y="165.4" transform="matrix(0.797 -0.604 0.604 0.797 -305.3802 189.038)" class="st1" width="2.8" height="766.8"/>
					
						<rect x="91.8" y="192.2" transform="matrix(0.797 -0.604 0.604 0.797 -328.7617 173.1202)" class="st1" width="2.8" height="766.8"/>
					<line class="st2" x1="-173.9" y1="296.9" x2="289.4" y2="907.9"/>
					<line class="st2" x1="-209.3" y1="323.7" x2="254.1" y2="934.8"/>
					
						<rect x="162.5" y="138.6" transform="matrix(0.797 -0.604 0.604 0.797 -282.0028 204.9588)" class="st1" width="2.8" height="766.8"/>
					
						<rect x="197.9" y="111.7" transform="matrix(0.797 -0.604 0.604 0.797 -258.6227 220.8706)" class="st1" width="2.8" height="766.8"/>
					
						<rect x="233.2" y="84.9" transform="matrix(0.797 -0.604 0.604 0.797 -235.2412 236.7904)" class="st1" width="2.8" height="766.8"/>
					
						<rect x="268.6" y="58.1" transform="matrix(0.797 -0.604 0.604 0.797 -211.8615 252.7122)" class="st1" width="2.8" height="766.8"/>
					
						<rect x="304" y="31.3" transform="matrix(0.797 -0.604 0.604 0.797 -188.4853 268.6278)" class="st1" width="2.8" height="766.8"/>
					
						<rect x="339.3" y="4.5" transform="matrix(0.797 -0.604 0.604 0.797 -165.1056 284.5464)" class="st1" width="2.8" height="766.8"/>
					
						<rect x="374.7" y="-22.4" transform="matrix(0.797 -0.604 0.604 0.797 -141.7248 300.4581)" class="st1" width="2.8" height="766.8"/>
					
						<rect x="410.1" y="-49.2" transform="matrix(0.797 -0.604 0.604 0.797 -118.3448 316.3814)" class="st1" width="2.8" height="766.8"/>
					
						<rect x="445.4" y="-76" transform="matrix(0.797 -0.604 0.604 0.797 -94.9633 332.2976)" class="st1" width="2.8" height="766.8"/>
					
						<rect x="480.8" y="-102.8" transform="matrix(0.797 -0.604 0.604 0.797 -71.5854 348.2183)" class="st1" width="2.8" height="766.8"/>
					
						<rect x="516.2" y="-129.6" transform="matrix(0.797 -0.604 0.604 0.797 -48.2057 364.1338)" class="st1" width="2.8" height="766.8"/>
					<line class="st2" x1="321.3" y1="-78.6" x2="784.6" y2="532.5"/>
					<line class="st2" x1="356.6" y1="-105.4" x2="820" y2="505.6"/>
				</g>
			</g>
		</g>
		<g>
			<g>
				<path class="st3" d="M539,614.3c-110.3,102.6-300.7,77.9-424.4-55C-9.1,426.3-20,234.6,90.3,132C200.7,29.4,391,54.1,514.7,187
					C638.4,320,649.3,511.6,539,614.3z M104.3,147c-102,94.9-90.7,273.5,25.3,398.2c116,124.7,293.3,148.9,395.3,54
					c102-94.9,90.7-273.5-25.3-398.2C383.7,76.3,206.4,52.1,104.3,147z"/>
			</g>
			<g>
				
					<rect x="747.8" y="517.8" transform="matrix(0.7322 -0.6811 0.6811 0.7322 -375.7834 743.893)" class="st3" width="20.5" height="664"/>
			</g>
			<path class="st4" d="M580.3,570.9l-32-12c-11.7,31.4-33,51.1-65.3,60.7l9.7,32.8c15.2-4.5,28.1-11.5,40-19.8l34.3,36.8l25-23.3
				l-34.3-36.8C566.8,598.1,574.8,585.8,580.3,570.9z"/>
			<g>
				<path class="st4" d="M1190.9,1239.8l23.1,24.9c0,0-7.2,19.7-29.5,43.8c-15.9,17.2-45.6,26-45.6,26l-23.1-24.9l-227.5-244.5
					l75.1-69.9L1190.9,1239.8z"/>
				<path class="st4" d="M898.1,983.7c1,9.4-7.3,17-16.6,15.4l6.7,65.9c0,0,21.2-6.3,43.2-28.6c25.1-25.5,31.9-41.3,31.9-41.3
					L898.1,983.7z"/>
			</g>
			<path class="st5" d="M894.1,995.1l293.1,310.3c0,0-16.7,20-48.3,29.1c-30.6-32.8-250.6-269.4-250.6-269.4l-6.7-65.9
				C881.6,999.2,889.7,1000.8,894.1,995.1z"/>
		</g>
	</g>
	<g>
		<path class="st7" d="M743.8,182.8c-0.1,11.2-9.3,20.3-20.6,20.1c-11.2-0.1-20.3-9.3-20.1-20.6s3.6-24.3,20.6-24.1
			C741.8,158.4,743.9,171.5,743.8,182.8z"/>
		<path class="st8" d="M703.1,182.3l40.7,0.4l46.1,137.5c0,0-68,18.3-102.7,10c-41.5-9.9-40.8-12.3-40.8-12.3L703.1,182.3z"/>
		<polygon class="st9" points="725.4,186.5 748.9,328.8 768.8,325.1 784.8,321.6 789.8,320.3 744.6,185.2 733.5,183.9 		"/>
		<path class="st1" d="M703.2,178.7l-1.2,6.1c0,0,6.1,1.6,21.3,1.7c12.5,0.1,21.3-1.3,21.3-1.3l-0.8-6.1c0,0-9.6,1.6-20.4,1.5
			C711.7,180.5,703.2,178.7,703.2,178.7z"/>
	</g>
</g>
</svg>
