<?xml version="1.0" encoding="utf-8"?>
<!-- Generator: Adobe Illustrator 21.1.0, SVG Export Plug-In . SVG Version: 6.00 Build 0)  -->
<svg version="1.1" id="Warstwa_1" xmlns="http://www.w3.org/2000/svg" xmlns:xlink="http://www.w3.org/1999/xlink" x="0px" y="0px"
	 viewBox="0 0 1417.3 1417.3" style="enable-background:new 0 0 1417.3 1417.3;" xml:space="preserve">
<style type="text/css">
	.st0{fill:#232323;}
	.st1{fill:#FF8827;}
	.st2{fill:#AFC62C;}
	.st3{fill:#D0D830;}
	.st4{fill:#939598;}
	.st5{fill:#3F3F3F;}
	.st6{fill:#161616;}
	.st7{fill:#FFA15A;}
	.st8{fill:#890E0E;}
	.st9{fill:#AD1A1A;}
	.st10{fill:#FF6464;}
	.st11{fill:#BA2525;}
	.st12{fill:#C12D2D;}
</style>
<g id="climbing">
	<path class="st0" d="M376.3,600.1l71.4-11.4c20.4,127.2,39.8,248,76.3,370.4l588.4-231.8l22.7,67.5L535.7,1031
		c-13.1,60.3-43.2,198-44.7,205.2l-70.6-15.4c10.5-48.1,34.3-157,45-206.6C420.4,875.2,399,741.5,376.3,600.1z"/>
	<g>
		<g>
			<path class="st0" d="M455.8,961.1c11.9-22,37.1-34.6,62.9-29.4c25.8,5.2,44.1,26.7,46.5,51.6c0.5,5.6,0.3,11.4-0.9,17.2
				c-6.4,31.6-37.2,52-68.8,45.6s-52-37.2-45.6-68.8C451.1,971.6,453.1,966.1,455.8,961.1z"/>
		</g>
	</g>
	<g>
		<g>
			<path class="st1" d="M508.7,684.9c1.1,0.8,2.3,1.7,3.4,2.5C511,686.6,509.8,685.8,508.7,684.9z"/>
			<path class="st1" d="M514.2,688.9c1.2,0.9,2.4,1.8,3.7,2.6C516.6,690.7,515.4,689.8,514.2,688.9z"/>
			<path class="st1" d="M466,653.9c0.4,0.3,0.9,0.6,1.4,0.8C466.9,654.5,466.4,654.2,466,653.9z"/>
			<path class="st1" d="M475.1,659.9c0.2,0.1,0.3,0.2,0.5,0.4C475.5,660.1,475.3,660,475.1,659.9z"/>
			<path class="st1" d="M519.8,693c1.4,1,2.9,2,4.4,3.1C522.7,695,521.3,694,519.8,693z"/>
			<path class="st1" d="M470.4,656.7c0.4,0.2,0.7,0.5,1.1,0.7C471.1,657.2,470.7,656.9,470.4,656.7z"/>
			<path class="st1" d="M560.8,717.9c1.8,0.9,3.7,1.8,5.6,2.7C564.5,719.7,562.7,718.8,560.8,717.9z"/>
			<path class="st1" d="M525.6,697c2,1.3,4,2.7,6,4C529.6,699.7,527.6,698.3,525.6,697z"/>
			<path class="st1" d="M545.9,709.8c4.4,2.5,8.8,5,13.4,7.3C554.7,714.8,550.2,712.4,545.9,709.8z"/>
			<path class="st1" d="M568,721.3c4.7,2.1,9.6,4.1,14.5,5.9C577.6,725.4,572.7,723.4,568,721.3z"/>
			<path class="st1" d="M539.4,706c1.7,1,3.4,2.1,5.1,3.1C542.8,708,541.1,707,539.4,706z"/>
			<path class="st1" d="M532.5,701.6c1.7,1.1,3.5,2.3,5.3,3.4C536,703.8,534.2,702.7,532.5,701.6z"/>
			<path class="st1" d="M423.6,642.9c1.1,0.1,2.3,0.2,3.4,0.3C425.9,643.1,424.8,643,423.6,642.9z"/>
			<path class="st1" d="M458,649.6c0.5,0.2,1,0.5,1.6,0.8C459,650.1,458.5,649.8,458,649.6z"/>
			<path class="st1" d="M385.5,641.4c2.1,0,4.3,0,6.4,0.1C389.7,641.5,387.6,641.4,385.5,641.4z"/>
			<path class="st1" d="M366.7,641.2c2.4,0,4.7,0.1,7.1,0.1C371.4,641.3,369,641.3,366.7,641.2z"/>
			<path class="st1" d="M374.7,641.3c3.3,0,6.5,0.1,9.8,0.1C381.3,641.4,378,641.4,374.7,641.3z"/>
			<path class="st1" d="M357.9,641c2.4,0.1,4.8,0.1,7.1,0.2C362.7,641.1,360.3,641.1,357.9,641z"/>
			<path class="st1" d="M323.6,637.9c1.6,0.3,3.2,0.5,4.8,0.7C326.9,638.4,325.3,638.2,323.6,637.9z"/>
			<path class="st1" d="M397.9,641.6c1.3,0,2.6,0.1,4,0.1C400.6,641.6,399.2,641.6,397.9,641.6z"/>
			<path class="st1" d="M440.1,644.9c0.9,0.2,1.9,0.3,2.8,0.5C442,645.2,441.1,645.1,440.1,644.9z"/>
			<path class="st1" d="M454.3,648.1c0.5,0.2,0.9,0.4,1.4,0.6C455.2,648.5,454.7,648.2,454.3,648.1z"/>
			<path class="st1" d="M584.1,727.7c2,0.7,4,1.4,6,2C588,729.1,586,728.4,584.1,727.7z"/>
			<path class="st1" d="M431.7,643.7c1.1,0.1,2.2,0.3,3.3,0.4C433.9,644,432.8,643.9,431.7,643.7z"/>
			<path class="st1" d="M407.5,641.9c1,0,2.1,0.1,3.1,0.1C409.6,642,408.6,641.9,407.5,641.9z"/>
			<path class="st1" d="M461.8,651.5c0.5,0.3,1,0.6,1.5,0.9C462.9,652.1,462.3,651.8,461.8,651.5z"/>
			<path class="st1" d="M626.1,736.7c2.8,0.2,5.6,0.3,8.4,0.4C631.6,737,628.8,736.9,626.1,736.7z"/>
			<path class="st1" d="M635.5,737.1c2.4,0,4.9,0,7.4-0.1C640.4,737.1,637.9,737.1,635.5,737.1z"/>
			<path class="st1" d="M450.8,647C450.7,647,450.8,647,450.8,647C450.9,647.1,450.8,647,450.8,647z"/>
			<path class="st1" d="M976.3,745.5c4.3,2.6,8.6,5.1,13,7.5C984.9,750.6,980.6,748.1,976.3,745.5c-118.2-71.6-236.4-19.4-322-9.5
				C739.4,726.2,858.1,673.9,976.3,745.5z"/>
			<path class="st1" d="M418.9,642.5c-1.1-0.1-2.2-0.2-3.4-0.2C416.7,642.3,417.8,642.4,418.9,642.5z"/>
			<path class="st1" d="M645.4,736.8c2.1-0.1,4.2-0.3,6.4-0.5C649.6,736.6,647.5,736.7,645.4,736.8z"/>
			<path class="st1" d="M1016.2,766.7c9.1,4.4,18.3,8.6,27.5,12.9C1034.6,775.4,1025.3,771.1,1016.2,766.7z"/>
			<path class="st2" d="M224.5,585.8c187.1,20.4,205.9,3,260.4,39c93.6,61.8,119.2,65.5,258.8,26.1c247-69.6,362.2,134.6,464.4,54.8
				c9.3-69.5,19.6-148.6,18.9-161.2c-0.2-2.9-0.4-5.8-0.6-8.7c-0.6-7-1.4-13.9-2.3-20.8c-0.8-5.6-1.8-11.1-2.9-16.5
				c-2.2-11.4-5-22.6-8.4-33.4c-1.3-4.4-2.8-8.7-4.3-13c-1.7-4.8-3.5-9.6-5.4-14.3c-1.7-4.1-3.5-8.2-5.3-12.3
				c-13.5-29.6-31.3-56.7-52.3-81.3c-22.4-26.2-48.5-49.6-77.2-69.8c-70.6-49.9-157.1-81.3-243-91.7
				c-87.9-10.7-177.1,1.3-261.1,28.2c-76.7,24.6-127.3,39.5-182.5,95c-19.1,19.2-42.9,45.7-62.2,76.4c-20.3,32-34.3,59.1-50.3,102.5
				C259.3,511.2,242.5,565.1,224.5,585.8z"/>
			<path class="st3" d="M319.4,382.3c-15.6,22.1-16.2,21.8-15.6,22.1c8.2,4.4,54.2,9.8,63.2,11.7c91.8,19.6,108.7,21.2,164.7,25.1
				c62.7,4.3,128.1,8.3,180.1,10.4c138.2,5.5,207.2,10.6,332.1,0c69.4-5.9,102.4-5.9,152.3-23.6c0.9-0.3,1.1-1.7,1.6-2.5
				c-13.5-29.6-31.3-56.7-52.3-81.3c-22.4-26.2-48.5-49.6-77.2-69.8c-70.6-49.9-157.1-81.3-243-91.7
				c-87.9-10.7-177.1,1.3-261.1,28.2c-76.7,24.6-142.4,42.6-189.8,102.6C357.4,334.6,331.2,356.7,319.4,382.3z"/>
			<path class="st1" d="M1057.5,786.1c9.1,4.3,18.2,8.7,27,13.4C1104.6,810.2,1079.9,796.7,1057.5,786.1z"/>
			<path class="st1" d="M617.8,735.8c2.1,0.3,4.3,0.5,6.4,0.7C622,736.3,619.9,736.1,617.8,735.8z"/>
			<path class="st1" d="M599.6,732.4c2.6,0.6,5.3,1.2,7.9,1.8C604.9,733.7,602.3,733.1,599.6,732.4z"/>
			<path class="st1" d="M609,734.5c2.2,0.4,4.3,0.8,6.5,1.1C613.3,735.2,611.2,734.9,609,734.5z"/>
			<path class="st1" d="M592,730.3c2.2,0.7,4.4,1.3,6.7,1.8C596.4,731.6,594.2,731,592,730.3z"/>
			<path class="st1" d="M356.8,641c-8.6-0.3-16.1-0.8-24.4-1.8C340.5,640.1,348.6,640.7,356.8,641z"/>
			<path class="st4" d="M269.1,622.3c4.4,1.5,8.7,3.1,13.1,4.5C277.8,625.4,273.4,623.9,269.1,622.3z"/>
			<path class="st4" d="M401.9,641.7c1.9,0.1,3.8,0.1,5.7,0.2C405.7,641.8,403.8,641.7,401.9,641.7z"/>
			<path class="st4" d="M249.3,615.3c4.4,1.6,8.8,3.1,13.1,4.7C258.1,618.4,253.7,616.8,249.3,615.3z"/>
			<path class="st4" d="M418.9,642.5c1.6,0.1,3.1,0.2,4.7,0.4C422.1,642.7,420.5,642.6,418.9,642.5z"/>
			<path class="st4" d="M315.1,636.3c2.8,0.6,5.7,1.2,8.6,1.7C320.8,637.4,317.9,636.9,315.1,636.3z"/>
			<path class="st4" d="M427,643.2c1.6,0.2,3.1,0.3,4.7,0.5C430.2,643.5,428.6,643.3,427,643.2z"/>
			<path class="st4" d="M435,644.1c1.7,0.2,3.4,0.5,5.1,0.8C438.4,644.7,436.7,644.4,435,644.1z"/>
			<path class="st4" d="M216.2,604.4c4.4,1.3,8.9,2.6,13.3,4.1C225.1,607.1,220.7,605.7,216.2,604.4z"/>
			<path class="st4" d="M384.5,641.4c0.3,0,0.6,0,0.9,0C385.1,641.4,384.8,641.4,384.5,641.4z"/>
			<path class="st4" d="M224.5,585.8L224.5,585.8C215,596.6,214.4,597.3,224.5,585.8z"/>
			<path class="st4" d="M373.8,641.3c0.3,0,0.7,0,1,0C374.4,641.3,374.1,641.3,373.8,641.3z"/>
			<path class="st4" d="M590,729.7c0.6,0.2,1.3,0.4,1.9,0.6C591.3,730.1,590.7,729.9,590,729.7z"/>
			<path class="st4" d="M356.8,641c0.4,0,0.7,0,1.1,0C357.5,641,357.2,641,356.8,641z"/>
			<path class="st4" d="M365.1,641.2c0.5,0,1.1,0,1.6,0C366.1,641.2,365.6,641.2,365.1,641.2z"/>
			<path class="st4" d="M508.7,684.9c-18.9-14-45.7-34.1-26.3-19.8C490.4,671,499.2,677.9,508.7,684.9z"/>
			<path class="st4" d="M391.9,641.5c2,0,4,0.1,6,0.1C395.9,641.5,393.9,641.5,391.9,641.5z"/>
			<path class="st4" d="M328.5,638.6c1.3,0.2,2.6,0.4,3.9,0.5C331.1,639,329.8,638.8,328.5,638.6z"/>
			<path class="st4" d="M415.6,642.3c-1.6-0.1-3.3-0.2-4.9-0.3C412.3,642.1,413.9,642.2,415.6,642.3z"/>
			<path class="st4" d="M607.6,734.2c0.5,0.1,1,0.2,1.4,0.3C608.5,734.4,608,734.3,607.6,734.2z"/>
			<path class="st4" d="M531.6,701c0.3,0.2,0.6,0.4,0.9,0.6C532.2,701.4,531.9,701.2,531.6,701z"/>
			<path class="st4" d="M537.8,705c0.5,0.3,1.1,0.7,1.6,1C538.8,705.6,538.3,705.3,537.8,705z"/>
			<path class="st4" d="M615.5,735.5c0.7,0.1,1.5,0.2,2.2,0.3C617,735.7,616.3,735.6,615.5,735.5z"/>
			<path class="st4" d="M517.8,691.6c0.7,0.5,1.3,0.9,2,1.4C519.2,692.5,518.5,692.1,517.8,691.6z"/>
			<path class="st4" d="M524.2,696.1c0.5,0.3,0.9,0.6,1.4,0.9C525.1,696.7,524.7,696.4,524.2,696.1z"/>
			<path class="st4" d="M566.4,720.6c0.5,0.2,1.1,0.5,1.6,0.7C567.5,721.1,566.9,720.8,566.4,720.6z"/>
			<path class="st4" d="M582.5,727.2c0.5,0.2,1,0.4,1.5,0.5C583.5,727.6,583,727.4,582.5,727.2z"/>
			<path class="st4" d="M544.5,709.1c0.4,0.3,0.9,0.5,1.3,0.8C545.4,709.6,545,709.3,544.5,709.1z"/>
			<path class="st4" d="M559.3,717.1c0.5,0.3,1,0.5,1.6,0.8C560.3,717.6,559.8,717.4,559.3,717.1z"/>
			<path class="st4" d="M598.6,732.2c0.3,0.1,0.7,0.2,1,0.3C599.3,732.4,599,732.3,598.6,732.2z"/>
			<path class="st4" d="M471.4,657.4c1.2,0.8,2.4,1.6,3.7,2.5C473.9,659,472.7,658.2,471.4,657.4z"/>
			<path class="st4" d="M459.5,650.4c0.8,0.4,1.5,0.8,2.3,1.2C461.1,651.1,460.3,650.7,459.5,650.4z"/>
			<path class="st4" d="M651.8,736.3c0.8-0.1,1.7-0.2,2.5-0.3C653.5,736.2,652.6,736.3,651.8,736.3z"/>
			<path class="st4" d="M450.9,647c1.1,0.3,2.2,0.6,3.4,1C453.1,647.7,452,647.3,450.9,647z"/>
			<path class="st4" d="M455.7,648.7c0.8,0.3,1.5,0.6,2.3,0.9C457.2,649.2,456.4,649,455.7,648.7z"/>
			<path class="st4" d="M463.4,652.4c0.9,0.5,1.7,1,2.6,1.5C465.1,653.4,464.2,652.9,463.4,652.4z"/>
			<path class="st4" d="M634.4,737.1c0.3,0,0.7,0,1,0C635.1,737.1,634.8,737.1,634.4,737.1z"/>
			<path class="st4" d="M442.9,645.4c2.6,0.5,5.2,1,7.8,1.6C448.1,646.4,445.5,645.9,442.9,645.4z"/>
			<path class="st4" d="M642.9,737c0.8,0,1.7-0.1,2.5-0.1C644.6,736.9,643.7,736.9,642.9,737z"/>
			<path class="st4" d="M512.1,687.5c0.7,0.5,1.4,1,2.1,1.5C513.5,688.5,512.8,688,512.1,687.5z"/>
			<path class="st4" d="M624.2,736.5c0.6,0.1,1.2,0.1,1.9,0.2C625.4,736.6,624.8,736.6,624.2,736.5z"/>
			<path class="st4" d="M467.3,654.8c1,0.6,2,1.3,3,1.9C469.4,656,468.3,655.4,467.3,654.8z"/>
			<path class="st5" d="M209.5,602.6c2.3,0.6,4.6,1.2,6.9,1.9c46.2,12.9,87.1,32.7,136,35.7c37.4,2.3,72.3-0.9,106.9,16.4
				c29.2,14.6,55.1,38.2,83.3,52.6c53.5,27.3,115.5,27.3,173.3,16c90-17.6,177.7-29.8,260.4,20.3c34,20.6,72.9,35.2,108.2,53.9
				c110.5,58.7,117.1-32.7,122.4-83c0.4-3.9,0.8-7.5,1.3-10.8c-101.9,79.5-218.5-124.1-464.4-54.8
				c-139.6,39.3-165.2,35.6-258.8-26.1c-54.6-36.1-72.6-18.5-260.4-39C219.6,591.4,214.6,597,209.5,602.6z"/>
			<path class="st6" d="M216.5,604.5c46.2,12.9,87.1,32.7,136,35.7c37.4,2.3,72.3-0.9,106.9,16.4c29.2,14.6,55.1,38.2,83.3,52.6
				c53.5,27.3,115.5,27.3,173.3,16c90-17.6,177.7-29.8,260.4,20.3c34,20.6,72.9,35.2,108.2,53.9c110.5,58.7,117.1-32.7,122.4-83
				c-101.7,78.1-218.4-124.5-463.8-55.3c-139.6,39.3-165.2,35.6-258.8-26.1c-54.6-36.1-72.6-18.5-260.4-39
				C221.5,598.9,219,601.7,216.5,604.5z"/>
		</g>
		
			<ellipse transform="matrix(5.611767e-02 -0.9984 0.9984 5.611767e-02 -109.1738 930.1826)" class="st5" cx="437.4" cy="522.8" rx="23" ry="23"/>
		
			<ellipse transform="matrix(5.613612e-02 -0.9984 0.9984 5.613612e-02 394.2449 1625.1935)" class="st5" cx="1056.7" cy="604.1" rx="20.7" ry="20.7"/>
		<path class="st7" d="M449.3,337.2"/>
		<path class="st7" d="M546.7,293.3"/>
		<line class="st7" x1="1136" y1="524.6" x2="1157.6" y2="648.8"/>
	</g>
	<g>
		<path class="st5" d="M550.3,346.6c-9.1,21.2,5.1,39.1,20.5,35.1c15.4-4,12.1-15.6,37.5-32.2c25.4-16.6,35-6.5,49.2-3.4
			c14.1,3.1,27.8-10.3,23.9-22c-3.9-11.8-21.6-32.2-47.9-30.5s-34.9,3.3-54.6,18.3C559,326.7,550.3,346.6,550.3,346.6z"/>
		<path class="st5" d="M753.1,296.7c-16.5,16.2-10,38.1,5.7,40.2c15.8,2.1,17.1-9.8,46.9-15.6s34.9,7.2,46.8,15.4
			c11.9,8.2,29.6,1,30.5-11.3s-7.8-38-32.8-46.4c-25-8.4-33.6-10.1-57.5-3.8S753.1,296.7,753.1,296.7z"/>
		<path class="st5" d="M952.7,335.6c-21.5,8.5-24.1,31.2-10.5,39.3s19.6-2.4,49.2,4s29.3,20.3,37,32.5c7.7,12.2,26.9,12.6,32.5,1.5
			c5.6-11.1,7.7-38-12.1-55.5c-19.7-17.5-26.9-22.5-51.4-26C973,327.9,952.7,335.6,952.7,335.6z"/>
		<path class="st5" d="M481.4,374.8c7.8-19.2-2.5-39-14.5-37.6s-9.9,13.2-30.1,25.2s-27.2,0.6-38-4.8c-10.8-5.4-21.8,5.4-19.3,17.5
			c2.6,12.2,15.4,35,35.7,37.7s27,2.5,42.7-8.8C473.9,392.8,481.4,374.8,481.4,374.8z"/>
	</g>
	<g>
		<g>
			<path class="st8" d="M1047.6,1219.1c-46.9-0.3-80.2-20.9-109.5-39.1c-21-13-39.2-24.3-57.8-24.8c-22.5-0.5-70.8,27.7-113.5,52.5
				c-46.7,27.2-90.8,52.9-119.6,55.6c-59.3,5.4-94.7-33-96.2-34.7l0.1,0c-11.3-11.3-19-26.7-22.6-45.4
				c-9.1-46.7,9.2-103.8,31.5-125.8c13.7-13.6,40.7-18.7,73.7-19.3c15.3-11.3,32-21.5,49.5-30.3c24.1-12.2,48.3-20.8,68.1-24.4
				c43.4-7.9,208.9-27.3,249.7-30.3c39.3-2.9,144.6,6.1,159.9,82.1c3.3,16.6,4.2,33,2.6,48.5c4.9-12.1,6.5-26,4.9-41.6
				c-5.8-55.3-49.6-108-64.3-110.5c-30.9-5.2-110.2,13.4-138.1,21l0.4-10.4c4.3-1.2,97.8-37.1,139.4-30.1
				c29.9,5.1,76.2,70,82.4,129.5c2.7,25.3-0.7,65.1-39.5,91.4c-4.2,7.4-9.1,14.1-14.8,19.9c-4.6,4.6-9.5,8.6-14.9,12
				c-4.5,12.4-11.6,22-20.9,28.4c-1.1,4-2.8,7.7-5.5,11.1c-0.3,0.4-0.7,0.8-1,1.2C1083.2,1215,1069.2,1219.2,1047.6,1219.1z
				 M1044.5,1176.6c-17.9-3.1-35.1-8.9-51.4-16.3c-2.7-0.4-5.4-0.8-8.1-1.3c26,14.2,52.8,26,80.5,24.2c5.2-0.3,9.8-1.4,13.7-3.1
				c0-0.7,0-1.4,0-2.1C1068.4,1179.2,1056.8,1178.7,1044.5,1176.6z M1136.2,1093.6c-3.5,5.7-7.9,10.2-13.2,13.8
				c0.7,5.3,1.2,10.6,1.4,15.8c2.9-1.4,5.7-3,8.3-4.6c7-14.2,10.9-31.3,11.2-49.5C1143.7,1077.3,1141.1,1085.6,1136.2,1093.6z
				 M1087.5,1117.8c0.8,5.7,1.9,11.3,3.1,16.8c4.8-1,9.5-2.2,13.9-3.6c0.1-5.1-0.1-10.3-0.6-15.6
				C1098.8,1116.6,1093.3,1117.4,1087.5,1117.8z M1067.6,1159c2.9,0,5.7-0.2,8.5-0.5c-0.1-0.3-0.1-0.5-0.2-0.8
				C1073.1,1158.2,1070.3,1158.6,1067.6,1159z M961.6,987c17.2-6.1,31.7-9.9,41.6-10.4c35.4-1.7,105.9,21.9,131.6,61.5
				c6,9.3,9.1,18.8,9.3,28.2c0-9.5-0.9-19.2-2.9-29c-12.1-60.2-105.5-67-137.2-64.7c-18.4,1.4-62.2,6.1-108.6,11.5
				C917.9,984.4,940.4,985.3,961.6,987z M879,1135.5c24.4,0.6,45.8,13.9,68.6,28c23.5,14.6,47.7,29.6,78.8,34.3
				c-24.5-7.1-47.5-20.3-70-33.2c-33.3-19.1-64.8-37.2-94.9-30.2c-19.9,4.6-38.9,15.2-57.2,28.4
				C834.2,1146.7,860.6,1135.1,879,1135.5z M923.8,1079.2c-15.5-5.6-28.8-10.4-36-12.2c-2.8-0.7-6.7-0.3-11.5,0.9
				c16.5,8.5,33.3,19.8,50.6,31.3c21.6,14.4,45,30,69.9,41.7c20.3,2.5,44.6,2.3,74.7-2.7c-1.5-6.6-2.9-13.5-3.8-20.6
				C1021.6,1114.5,964.5,1093.9,923.8,1079.2z M1118.1,1083.7c0.3-0.4,0.6-0.9,0.9-1.3c7.1-11.7,6.9-23-0.7-34.7
				c-8-12.4-23.1-23.5-40.3-32.1C1095.6,1030,1110.1,1055.7,1118.1,1083.7z M1070.3,1039c12.9,13.3,18.3,30,16.2,49.6
				c-0.3,3.1-0.5,6.3-0.5,9.4c5.3-0.4,10.3-1.2,14.7-2.6c-7-30.5-22.8-59.5-40.7-69.3c-6.5-3.6-16.2-6.7-28.3-9.5
				C1045.9,1021.1,1059.8,1028.2,1070.3,1039z M873.5,1048.2c6.7-1.4,12.5-1.5,17.4-0.3c8.4,2,21.6,6.8,38.3,12.8
				c34.6,12.5,93.1,33.6,136.8,37.1c0-4.3,0.2-8.6,0.7-13c1.5-13.5-1.9-24.3-10.2-32.9c-20.7-21.4-66.6-24.7-88-23.5
				c-10.6,0.6-41.1,5.2-78.3,11.4C884.6,1042.6,879,1045.4,873.5,1048.2z M959,1009.4c2.7-0.3,4.9-0.5,6.6-0.6
				c1.8-0.1,7.3-0.4,15-0.2c-5.1-0.5-10.4-1-15.8-1.5C962.9,1007.9,961,1008.6,959,1009.4z M674.6,1228.2c3.1-0.4,9-2.1,9-2.1
				c19.8-6.8,47.5-22.9,71-42.7c31.3-26.5,61.1-59.1,100.8-68.2c9.5-2.2,19-2.5,28.3-1.4c-10.8-5.2-21.4-8.2-33.8-7.5
				c-29.1,1.8-54.6,27-81.5,53.6c-26.2,25.9-53.2,52.7-88,63.7C678.5,1225.2,676.5,1226.7,674.6,1228.2z M827.6,1090.4
				c6.2-2,12.6-3.3,19.3-3.7c11.9-0.8,22.4,1.1,32.2,4.5c-9.5-5.5-18.6-10.2-27.4-13.5C844.2,1081.3,836.1,1085.6,827.6,1090.4z
				 M743.5,1045.3c40.4-7.4,94-16.9,138.9-24.4c11.9-5.8,23.8-11.3,35.3-16.3c-69.3-2.1-145,2.9-186.3,17.4
				c-15.7,5.5-29.2,11.8-40.7,18.3C708.1,1041.6,725.9,1043.4,743.5,1045.3z M739.8,1148.5c-5.2,8.3-10.7,17.1-16.8,25.9
				c10.5-9.1,20.6-19.1,30.6-28.9c10.9-10.8,21.6-21.4,32.6-30.6c-8.9,5.5-17.5,10.9-25.6,16c-5.4,3.4-10.8,6.8-16.1,10.1
				C743,1143.4,741.4,1145.9,739.8,1148.5z M821.4,1052.5c0.8-0.4,1.5-0.8,2.3-1.3c-2.1,0.4-4.2,0.7-6.3,1.1
				C818.8,1052.4,820.1,1052.5,821.4,1052.5z M691.4,1075.7c-25.5,5.8-73,16.5-95.3,70.9c-2.6,8.8-2,15.1,0.7,18.9
				c6.7,9.6,29.1,11,53.3,3.5c18.1-5.6,48.2-23.5,79.6-43c7.4-11.4,14.1-21.1,20.9-27.6c7.5-7.1,22.1-17.2,40.8-28.5
				c-10.5-1-22-2.3-34.2-3.6c-3.6-0.4-7.3-0.8-11.2-1.2C719.3,1070.1,698.9,1074,691.4,1075.7z M657.5,1187.9
				c-23,7.2-43.8,7.5-58.8,1.5c3.2,5.8,7.2,10.6,10.5,14.1c0.2,0.2,0.4,0.4,0.6,0.6c15,5.7,33.2,7.1,52.1,3.6c2.4-0.5,4.8-1,7.2-1.7
				c13.5-11.6,25-26,35.2-40.6C685.9,1175.9,669.8,1184.1,657.5,1187.9z M564.4,1192.1c-18.5-27.1-15.7-62.2,7.6-93.8
				c9.9-13.4,21.6-26.3,34.8-38.4c-14.7,2-26.1,5.8-32.3,11.9c-19,18.9-34.3,69.5-26.6,109.2c3.9,20.2,13.1,34.4,27.2,42.2
				c6.9,3.8,15.2,6.2,24.6,7c4.4,0.4,8.6,0.4,12.7,0.2c-4.5-3-8.8-6.4-12.9-10.1C585,1214.2,572.9,1204.6,564.4,1192.1z
				 M656.5,1064.4c6.6-2.3,12.9-4.1,18.5-5.5c-3.8-0.2-7.6-0.4-11.3-0.6C661.1,1060.4,658.7,1062.4,656.5,1064.4z M612.7,1082.8
				c-9,9-17.2,18.3-24.3,28c-12.3,16.7-17.8,33.7-16.1,49c0.4-6.7,1.9-13.5,4.4-20.1C581.6,1123.5,593.6,1104.9,612.7,1082.8z"/>
		</g>
		<g>
			<path class="st9" d="M916.4,1149.7c-0.7-0.1-1.5-0.1-2.2-0.2c-98.1,17-200,33.9-206.9,35c-35.9,9.6-101.4,21-137-10.2
				c-19.2-16.8-26.6-42.8-22.2-77.2c0.3-2.3,0.6-4.6,1-6.8c-3.7-28.6,6.1-58.8,28.6-86.6c36.8-45.3,92.3-39.7,157-33.1
				c33.6,3.4,71.7,7.3,111.6,4.4c40.8-3,86.8-22.2,131.3-40.8c59.5-24.9,110.9-46.4,144.6-27.2c1.3,0.8,2.7,1.6,3.9,2.5
				c14.2,1.4,26.2,6.6,35.8,15.5c22.6,21,29.4,62,19.7,118.6c-4.1,23.9-13.3,42.8-26.4,57.8
				C1108.3,1154.9,1010.7,1156.8,916.4,1149.7z M1151.1,953.5c1.7,9.2,2.9,18,3.4,26.6c5,11.7,7.1,25.7,5.9,41
				c-3.2,40.5-29.4,86.7-73.4,96.7c-14.3,3.2-40.6,8.3-72.9,14.2c92.4-5.3,137.9-35,147.9-93.2c8.4-48.8,3.7-84.3-13-99.9
				c-0.8-0.8-1.7-1.5-2.5-2.1C1148.4,941.8,1150,947.4,1151.1,953.5z M1050.4,1083.2c-22.6,10.7-51.5,12.3-85,14.1
				c-25,1.4-53.4,2.9-82,8.8c-74.1,15.4-135.6,14.8-189.8,14.2c-25.1-0.2-48.4-0.5-69.7,1.1c20.7,11.9,61.4,6.8,89.3,3.4
				c4-0.5,7.9-1,11.5-1.4c10.8-1.2,30.9-2.2,56.5-3.5c19.3-0.9,43.1-2.1,68.9-3.7c31-6.6,62-11.5,91.1-9.8c3.6,0.2,8.4,0.4,14,0.5
				c60.3-7.4,112.6-18.8,125-37.2l1.7-2.5c0.9-1.3,1.8-2.6,2.6-3.9C1075.3,1070.2,1064,1076.7,1050.4,1083.2z M1121.4,968.8
				c-1.5-0.8-3-1.6-4.6-2.3c0.6,3.2,1.2,6.2,1.6,9.2c5.6,4.1,9.7,8.9,12.3,14.5c2,4.1,3,8.4,3.3,12.8c0.7-6.4,1-13.1,0.7-20.1
				C1131.8,977.3,1127.6,972.3,1121.4,968.8z M1076.9,980.4c-21.3-3.9-42.3-3.8-62.3-1.6c-6.7,2.2-13.5,4.5-20.4,6.8
				c-25.3,8.6-51.5,17.4-78.2,23.4c-2.1,0.5-4.3,0.9-6.6,1.3c-4.7,0.9-9.6,1.6-14.9,2.3c-12.8,5.9-25.5,11.3-37.8,16
				c-66.9,25-131.4,22.5-178.5,20.6c-18.5-0.7-35.4-1.4-47.7,0c-9.8,7.1-16.4,15.9-18.7,26.8c-2.2,10.6-2.6,19.5-1.1,26.7
				c24.8-2.6,51.9-2.4,81.4-2.1c53.2,0.5,113.5,1.1,185.6-13.8c30-6.2,59.2-7.8,84.9-9.2c31.5-1.7,58.7-3.2,78-12.3
				c48.2-22.8,62.5-42.8,59.4-78.3C1094.1,984.3,1086.3,982.1,1076.9,980.4z M1103.9,930.2c3.3,4,5.9,8.8,7.7,14.4
				c6.8,1.6,13,4,18.7,7.3c0.2,0.1,0.4,0.2,0.6,0.4c-2.4-10.5-6-18.3-11.2-23.6C1114.8,928.7,1109.6,929.2,1103.9,930.2z
				 M1084.7,962.2c4.2,0.9,8.2,2,11.9,3.1c-0.2-1.1-0.5-2.1-0.7-3.2C1092.3,961.9,1088.6,961.9,1084.7,962.2z M1027.8,953.5
				c14.5-4.3,28.4-7.8,41.5-9.7c7-1,13.6-1.5,19.8-1.5c-1.5-1.9-3.1-2.9-4.4-3.5c-2-1-4.3-1.6-6.8-1.9
				C1062.7,941.4,1045.7,947.2,1027.8,953.5z M632.1,1160.7c20.3,8.6,43.7,7.7,69.9,2.7c-13.3,0.2-26.4-0.7-39-3.2
				c-29.6-5.7-54.1-14.9-71.5-26.4C602,1144.7,615.7,1153.8,632.1,1160.7z M826.8,1017.2c-4.7,0.2-9.4,0.4-14.2,0.5
				c-43.8,1.6-93.2,3.4-132.1,11.9C720.4,1031.2,772.6,1032.9,826.8,1017.2z M582.8,1160.1c7.5,6.6,18.2,11.1,31.3,13.3
				c-18.6-9.6-33.8-21.8-44.9-36.1C571.8,1146.8,576.3,1154.4,582.8,1160.1z M593.8,1016.8c-0.8,1-1.6,2-2.3,2.9
				c35.1-24.7,87.5-29.8,145.6-29.2c-0.9-0.1-1.8-0.2-2.6-0.3c-60-6.1-107.7-11-138.3,23.9C595.3,1015,594.5,1015.9,593.8,1016.8z
				 M582.3,1095.6c0.9,3.6,2.8,7.1,5.7,10.6c1.1-0.2,2.2-0.4,3.3-0.6c-2.1-10.1-1.8-21.8,1-35.1c0,0,0,0,0-0.1
				C583.9,1079.1,580.4,1087.6,582.3,1095.6z M621.5,1030.3c7.9-5.1,17.2-9.4,27.4-12.9c-16.5,3.9-31.1,9.6-43.2,17.9
				C610.2,1032.9,615.5,1031.3,621.5,1030.3z"/>
		</g>
		<path class="st10" d="M1027.8,953.5"/>
		<path class="st11" d="M823,997.1c0,0-38.7,2.8-57.6,0.9c-18.9-1.9-31-7.8-31-7.8s84.7,2.6,106.1-0.9
			C861.9,985.9,823,997.1,823,997.1z"/>
		<path class="st11" d="M704.2,1165.4c0,0,89.1-24.4,127.1-30.3c74.7-11.6,129-2.9,129-2.9s-76.2,3.6-138.6,13.9
			C759.1,1156.4,704.2,1165.4,704.2,1165.4z"/>
		<g>
			<path class="st11" d="M844,1051.9c-6.3-83.3,55.8-101.4,65.1-101.3c9,0.1,8.5,7.4,8.5,7.4c-8.6,4.8-23.3,12.3-29.9,19.9
				c-17.6,20-27.1,32.8-23.8,74c6.4,78.1,57.8,97.1,59.9,97.4c0,0-3.9,9.3-14,8.8C896.2,1157.5,850.4,1136,844,1051.9z"/>
		</g>
		<g>
			<path class="st11" d="M845.5,1171.9c11.3-4.1,12.2-12.6,12.2-12.6c-1.4-0.3-41-3.9-52.7-63c-12.1-61.3,80-130.3,80.9-130.9
				c0,0-4.5-3.7-8.1-4c-31.6-2.5-106.7,64.2-92.3,137.1C800.1,1172.6,843.6,1172.5,845.5,1171.9z"/>
		</g>
		<g>
			<path class="st12" d="M875.4,1164.2c12.9,2,12.8-8.1,12.8-8.1c-1.5-0.6-41.6-21.6-50.3-72.8c-7.8-45.7-5.3-102.7,50.3-114.5
				c0,0,9.1-11.5-6.2-12.3c-39.1-2-76.6,52.5-63.8,128.4C829,1148.3,861.7,1162,875.4,1164.2z"/>
		</g>
		<path class="st11" d="M1134,1002.9c0,0,12.7,36.7-26.7,72.5c-39.4,35.8-70.3,38-70.3,38s34.1-16.8,65.9-46.1
			C1134.7,1038.1,1134,1002.9,1134,1002.9z"/>
		<path class="st11" d="M983.9,942.7c0,0,71-25.1,90.4-20.8c19.3,4.4,25.8,19.5,29.6,33.8c3.8,14.3,3.9,31.8,3.9,31.8
			s13.3-34.8-9.7-57.4s-45.3-15.1-66.2-8.8C1010.8,927.7,983.9,942.7,983.9,942.7z"/>
		<path class="st11" d="M1073.8,908.8c0,0,34.9-2.4,52.3,17.7c17.4,20.1,15.3,59.9,15.3,59.9s9.1-46.4-13.5-68.6
			C1105.3,895.6,1073.8,908.8,1073.8,908.8z"/>
		<path class="st11" d="M1146.1,920.4c0,0,20.8,4.6,25.4,35.6c4.6,31,3.3,39.3,3.3,39.3s-5.7-27.9-11.6-46.5
			C1156,925.7,1146.1,920.4,1146.1,920.4z"/>
		<path class="st10" d="M563.2,1069.8"/>
		<path class="st10" d="M698.3,976.5"/>
	</g>
</g>
</svg>
