<?xml version="1.0" encoding="utf-8"?>
<!-- Generator: Adobe Illustrator 21.1.0, SVG Export Plug-In . SVG Version: 6.00 Build 0)  -->
<svg version="1.1" id="Warstwa_1" xmlns="http://www.w3.org/2000/svg" xmlns:xlink="http://www.w3.org/1999/xlink" x="0px" y="0px"
	 viewBox="0 0 1417.3 1417.3" style="enable-background:new 0 0 1417.3 1417.3;" xml:space="preserve">
<style type="text/css">
	.st0{fill-rule:evenodd;clip-rule:evenodd;fill:#EAC71C;}
	.st1{fill-rule:evenodd;clip-rule:evenodd;fill:#000087;}
	.st2{fill:#000087;}
	.st3{fill:#998326;}
	.st4{opacity:0.1;fill:#292929;}
</style>
<g id="handball">
	<path class="st0" d="M954.6,425.6c148.3,130.6,162.6,356.6,32.1,504.9c-130.6,148.3-356.6,162.6-504.9,32.1
		c-148.3-130.6-162.6-356.6-32.1-504.9C580.3,309.4,806.4,295,954.6,425.6L954.6,425.6z"/>
	<polygon class="st1" points="397.8,534.3 391.5,564.4 387,590.9 387,609 372.5,624 364,640 369.8,612.7 375.1,592.5 380.7,574.9 
		385.8,560.3 	"/>
	<polygon class="st1" points="441.1,923.2 467.5,929.2 484.7,929.2 516.8,966.3 550.9,992.8 592.5,1017.4 605.5,1024.4 
		605.5,1033.6 591.6,1028.7 568.6,1019.1 540.4,1004.5 517.5,990.2 495.7,974.1 475.2,956.8 457.2,939.2 	"/>
	<path class="st1" d="M1002.9,566.4v41.1l-8,53.1l-11,55.1L971.2,742l9.7,11.8l12,36.1l6,51.1l3.2,33.8L896.7,993.3l4.4,8.3
		l30.1-20.1c0,0,13.7-9.8,26.2-20.7c7.3-6.4,12.8-13.1,18.4-18.6c18.5-18,18.5-18,36-43.8c0,0,16.1-23.3,26.1-43.4
		c5.5-11.1,12.8-25.7,19-45.8c6.2-20.1,11.6-32.8,14.8-60.2c3.2-27.4,6.5-54.6,3.1-83.4s-5.9-47.2-11.5-66
		c-5.7-18.8-11.9-40.3-11.9-40.3L1002.9,566.4z"/>
	<polygon class="st1" points="650.7,348.9 614,365.9 580,389 553.5,405.9 560.9,437.1 577.9,499.2 584,510.2 655.1,521.3 
		746.3,544.3 768.1,546.5 825.5,502.2 879.6,468.1 882.6,455.1 855.6,400 833.9,368.9 805.5,354.9 751.3,342.9 701.2,336.3 
		657.1,345.9 	"/>
	<path class="st2" d="M584,510.2c-19,17-53.1,53.1-62.1,63.1c-9,10-42.3,53.4-50.1,64.1c-7.8,10.8-3,13,0,24.1
		c3,11,7,45.1,24.1,90.2c17,45.1,15.6,49.2,24.1,64.1c8.5,15,44.1,21,44.1,21l83.2,24.1l40.1,9c0,0,3,5,16-6s62.1-60.1,62.1-60.1
		l38.1-40.3l26.1-29.8c0,0,6-5,4-15c-2-10-30.1-84.2-30.1-84.2l-27.1-67.2c0,0-1.9-1.7-10-12.4c-8.1-10.7-69.2-23.5-69.2-23.5
		l-69.2-16.2l-34.1-5H584z"/>
	<path class="st3" d="M899.7,993c1.4,2.7,2.8,5.6,4.3,8.6c-2.4,1.5-4.9,2.9-7.4,4.3c-1.5-3.2-3-6.2-4.5-9
		c-16.5,4.4-42.6,6.9-70.3,7.1c-28,0.2-57.7-1.8-81.2-6.5c-21.5,9.8-43.6,16.6-64.4,21.1c-25,5.4-48.2,7.5-66.6,7.8
		c0.5,3.1,1.3,6.8,2.3,10.9c-3.2-1-6.3-2-9.5-3.1c-0.8-3.4-1.3-6.4-1.6-9.1c-17.4-7.4-40.2-21.6-62.3-38.7
		c-20.9-16.1-41.2-34.9-55.7-52.8c-9.8-0.5-23.3-3-38.4-6.8c-3.2-3.7-6.3-7.5-9.3-11.3c18,5,34.6,8.6,46.1,9.5
		c2.3-14.6,7.1-30.1,13.2-45.4c7.7-19.3,17.5-38.1,27-54c-10.3-19.4-21.9-49.8-32-81.1c-11.6-35.7-21.4-72.8-25.5-96.2
		c-12.6-5.1-22.5-9.3-33.8-14.6c-11.2-5.3-23.8-11.8-41.8-21.6c-6.3,7.8-15.7,20.5-26.8,36.4c0.8-6.3,1.8-12.6,2.9-18.9
		c7.5-10.4,13.8-18.7,18.3-24.2c-2.7-16.2,1.8-37.6,9.7-59.4c2.9-8,6.3-16.1,10-24c12.6-23,27.9-45,45.9-65.6c2.9-3.3,5.9-6.6,9-9.8
		c9.7-6.9,20.7-13.4,31.9-19.1c22.7-11.5,46.7-19.7,64.3-21.7c13.9-16.1,37.9-33.1,61.9-45.8c51.2-27.2,89-27.5,144.6-18.7
		c34.6,5.4,60.8,15.6,71.9,21.6c5.4-1.7,12.1-2.6,19.5-2.8c7.2,2.9,14.3,6,21.4,9.3l-0.1,0c-12.3-1.2-24.5-1.3-33.5,0.5
		c10.1,12.1,18.8,25.7,26,38.9c11,20.2,18.6,39.7,22.2,51.5c16.3,5.8,37.9,21.3,58.2,39c25.5,22.1,49.3,47.7,58.7,61.8
		c9.4-3.5,27.8-4.2,47.1-1.8c1.2,3,2.4,6,3.5,9.1c-20.4-3.1-39.8-2.8-47.7,0.6c1.3,17.6-2.2,58.8-8.6,96.9
		c-5,30.3-11.9,58.9-19.7,72.5c8.6,19.3,14.6,40.5,18.4,61.2c4.4,23.7,6.1,46.8,5.9,65.8c11.8-3.7,24.4-9.8,36.4-16.9
		c1.3-0.8,2.7-1.6,4-2.4c-2.2,4.7-4.5,9.3-6.9,13.9c-11.6,6.3-23.5,11.6-34.7,14.7c-5.7,13.5-21.6,34.7-40,55.9
		C940.6,955.4,915.7,980.3,899.7,993L899.7,993z M619.4,367.6c-23,12.2-46,28.4-59.2,43.6c2,12.4,6.7,35.1,12.6,56.6
		c4,14.6,8.6,28.5,13.3,38.1c17,0.7,48.5,6.4,81.8,13.8c36.8,8.2,75.9,18.5,100.2,26.8c9.2-10.5,26.1-24.7,44.3-38.7
		c24.7-19,52.2-37.7,66.4-46.2c-3.6-11.5-10.8-29.8-21.1-48.8c-7.9-14.4-17.6-29.3-28.9-41.9c-9.9-5.6-35.5-15.7-70.1-21.2
		C702.1,340.9,669,341.2,619.4,367.6L619.4,367.6z M884.3,468.3c-13.5,7.8-41.4,26.9-66.7,46.3c-17.9,13.8-34.4,27.6-43.1,37.5
		c7.9,16.6,24.3,56.8,38.8,95.5c11.2,29.8,21.3,58.8,25.5,75.5c7.8,0.3,16,0.6,24.2,0.8c33.7,1,68.1,2,108.9,9.5
		c7-12.9,13.4-40,18.2-68.9c6.5-39,10-80.9,8.4-96.5c-7.5-12.6-32.1-39.3-58.6-62.3C920.2,488.6,899.5,473.7,884.3,468.3
		L884.3,468.3z M440.4,472.6c-13.8,19.6-29.8,48.6-39.9,76.4c-7.5,20.6-11.7,40.3-9.4,54.9c18.5,10.1,31.2,16.7,42.6,22.1
		c10.7,5.1,20.3,9.1,32.3,14c20.2-30.6,40.8-56.7,60.3-78.5c19-21.4,36.8-38.7,51.8-52.3c-4.8-10.1-9.5-24.3-13.6-39
		c-5.7-20.7-10.3-42.5-12.5-55.5c-16.4,2.3-38.2,10-59,20.5C472.2,445.7,452.5,459,440.4,472.6L440.4,472.6z M837.3,731.7
		c-5.3,5.7-12.4,13.4-20.7,22.4c-32.2,34.9-82.4,89.3-114.3,118.7c4.1,12,8.1,25.6,12.1,39.4c8.5,29.1,17.3,59,28.4,77.1
		c22.9,4.5,51.8,6.5,79,6.3c28.5-0.2,55-2.9,70.6-7.5c15.4-11.7,41.2-37.4,63.3-62.9c18.4-21.3,34.2-42.3,39-54.7
		c0.6-19.5-1-44-5.6-69.1c-3.7-20.1-9.5-40.7-17.8-59.3c-40.5-7.5-74.8-8.5-108.4-9.5C854.5,732.3,846.2,732,837.3,731.7
		L837.3,731.7z M766.4,555c-23.9-8.2-63.3-18.6-100.3-26.9c-33.4-7.4-64.8-13-81-13.6c-15.1,13.6-33.1,31.1-52.3,52.6
		c-19.5,21.9-40.2,48.1-60.5,79.1c3.9,22.9,13.7,59.9,25.3,95.7c10.2,31.3,21.7,61.5,31.7,80.4c26,8.4,62.6,19.4,97.3,28.7
		c26.2,7,51.1,13,69.3,16c31.8-29.2,82.1-83.7,114.4-118.7c8.3-9,15.4-16.7,20.6-22.2c-4-16.2-14.2-45.4-25.4-75.4
		C790.6,611.4,774,570.7,766.4,555L766.4,555z M528.3,830.9c-9.2,15.4-18.5,33.5-25.9,52c-6.1,15.4-10.9,31-12.9,45.4
		c14.1,17.4,33.9,35.6,54.3,51.4c22.2,17.2,45,31.3,61.9,38.2c18.3,0,42.5-2,68.7-7.7c19.3-4.2,39.7-10.3,59.6-19.1
		c-11-19.2-19.5-48.3-27.8-76.6c-4-13.7-7.9-27.1-12.1-39.2c-18.4-3.1-43.5-9.1-69.7-16.1C590.4,850.1,554.4,839.3,528.3,830.9
		L528.3,830.9z"/>
	<path class="st4" d="M829,1034.1c118.3-39.3,208.7-139.5,232.2-238c-34.3,41.6-83.5,79.3-131.1,94.5
		c-202.2,64.6-425.7,39.9-499-165.9c-8.8-24.7-29.5-165.7-33.3-190.5c-40.4,85.2-52.4,182.5-12.3,288.7
		C452,999.1,644.1,1095.6,829,1034.1z"/>
</g>
</svg>
