<?xml version="1.0" encoding="utf-8"?>
<!-- Generator: Adobe Illustrator 21.1.0, SVG Export Plug-In . SVG Version: 6.00 Build 0)  -->
<svg version="1.1" id="Warstwa_1" xmlns="http://www.w3.org/2000/svg" xmlns:xlink="http://www.w3.org/1999/xlink" x="0px" y="0px"
	 viewBox="0 0 1417.3 1417.3" style="enable-background:new 0 0 1417.3 1417.3;" xml:space="preserve">
<style type="text/css">
	.st0{fill:#0C5C8E;}
	.st1{fill:#1A3F89;}
	.st2{fill:#0466AF;}
	.st3{fill:#258CD8;}
	.st4{opacity:0.44;fill:#6B5F8E;}
	.st5{fill:#0B78DB;}
	.st6{fill:#A8ED66;}
	.st7{fill:#383838;}
	.st8{fill:#191919;}
	.st9{opacity:0.28;fill:#63604C;}
	.st10{fill:#0C0C0C;}
	.st11{opacity:0.43;fill:#6B5F8E;}
</style>
<g id="running">
	<path class="st0" d="M994,282.6c0,0,24.2,5,31.3,12.2c32.6,32.6,0.5,65.3,0.5,65.3s-7.7,4.5-11.1-4.2c-3-7.9,11.5-21.3,7.7-27.4
		c-3.8-6.3-22.8-12.3-22.8-12.3l16.5,43.6l-25.9,3.1l-21.2-20.9c-5.9-10-8.1-21.7-6.4-33.2l0.7-4.7
		C965.5,290.2,980.6,286.5,994,282.6z"/>
	<path class="st1" d="M871.3,559.4l-80.8-62.2c0,0,69.6,14.9,97.7-20.2c28.1-35.1,32-108.9,40.7-120.1c8.7-11.2,30.2-16.9,43.8-19.4
		c13.6-2.4,43.8,80,46,90.2C1021,437.9,871.3,559.4,871.3,559.4z"/>
	<path class="st2" d="M482.9,786.7l265.7-306.1c0,0-37.9-101.2-101.2-82.6c0,0-32.4,13.4-60.6,102.7c-28.2,89.3-132,276.3-132,276.3
		L482.9,786.7z"/>
	<path class="st3" d="M1219.5,691.7c-27,41.8-131.4,113.1-246.1,167.9c-114.6,54.9-197.2,100.7-288,144.1
		c-90.8,43.4-297.1,71.2-359.5,66c-62.4-5.2-118.3-42.4-119.1-46.8c0-0.2-0.1-0.4-0.1-0.6c-5.2-28.9-5-87,74.5-115.4
		c92.3-32.9,173.4-130.1,173.4-130.1s73.2-140.3,112.6-199c39.3-58.8,75.3-151.8,181.2-97.3c25.6,13.1,48.5,19.6,68.7,21.8
		c0,0,0,0,0,0c47.3,5.2,79.1-12.9,92.2-22.4c4.5-3.2,6.8-5.5,6.8-5.5c24.2-11.6,24.5-70.6,25.5-95.5c1.1-24.8,22.7-39.8,22.7-39.8
		c88.8-26.8,186.6,194.7,186.6,194.7c22-3,78.8,76.4,78.8,76.4S1246.5,650,1219.5,691.7z"/>
	<path class="st4" d="M1219.5,691.7c-27,41.8-131.4,113.1-246.1,167.9c-114.6,54.9-197.2,100.7-288,144.1
		c-90.8,43.4-335.3,104.1-397.7,98.8c-62.4-5.2-72.2-41.9-78.3-67.9c-0.8-3.4-1.7-7.4-2.5-11.8c0-0.2-0.1-0.4-0.1-0.6
		C543.2,1025.9,845,649.9,909.5,480c4.5-3.2,6.8-5.5,6.8-5.5c24.2-11.6,24.5-70.6,25.5-95.5c1.1-24.8,22.7-39.8,22.7-39.8
		c88.8-26.8,186.6,194.7,186.6,194.7c22-3,78.8,76.4,78.8,76.4S1246.5,650,1219.5,691.7z"/>
	<path class="st5" d="M817.3,502.4c-1.6,0.1-109.3,9.2-128.8,25.2c-19.7,16.1-157.6,229.2-147.4,250.7c10.3,21.4,272.6,84,272.6,84
		l-62.8,30l-291.9-74.7l9.9-35.8l-14.1-4.9c0,0,73.2-140.3,112.6-199c39.3-58.7,75.3-151.7,181.2-97.3
		C774.1,493.7,797.1,500.2,817.3,502.4z"/>
	<path class="st6" d="M1219.5,691.7c-27,41.8-131.4,113.1-246.1,167.9c-37.9,18.1-72.3,35.3-104.6,51.7
		c-65.5,33.2-122.6,63.4-183.4,92.5c-90.8,43.4-335.3,104.1-397.7,98.8c-22.8-1.9-38.6-8-49.8-16.3c-19.3-14.3-24.7-35.1-28.5-51.6
		c-0.8-3.4-1.7-7.4-2.5-11.8c8.5,11,31.8,14.7,50.3,16.2c102.6,8.2,223-55.6,391.2-156.8c120-72.2,216.5-156.8,287.5-211.2
		c28.5-21.9,49.9-36.8,71.7-47.2c75.8-36.3,92.4-43.6,143.4-89.9c22-3,78.8,76.4,78.8,76.4s2.2,5.3,3.7,14.1
		C1236.2,639.7,1236.6,665.3,1219.5,691.7z"/>
	<path class="st7" d="M1233.6,624.4c2.6,15.2,3,40.9-14.1,67.3c-27,41.8-131.4,113.1-246.1,167.9c-37.9,18.1-72.3,35.3-104.6,51.7
		c-65.5,33.2-122.6,63.4-183.4,92.5c-90.8,43.4-335.3,104.1-397.7,98.8c-22.8-1.9-38.6-8-49.8-16.3c39.6,1.6,89.9,0.7,136.9-8.3
		c98.2-18.9,552.2-189.3,805.9-411.9C1201.1,648.3,1217.5,640.4,1233.6,624.4z"/>
	<path class="st8" d="M1233.6,624.4c9.8,54-23.8,85.7-66.1,120.2c-87.4,69.3-193.8,117.6-282.3,161.5
		c-43.2,21.2-117.6,61.2-193.8,97.7c-93.7,45.3-304.8,111.6-393.5,99.8c-18.4,0.4-43.5-4.7-60-17.2c14.4,10.4,33.3,14.7,51,15.8
		c66,3.1,307.5-57.8,400.3-103c32.6-15.7,65.3-29.5,109.8-59.8c246-125.1,251.8-112.7,374-202.4
		C1202.4,712.2,1242.9,681.6,1233.6,624.4z"/>
	<path class="st9" d="M1219.5,691.7c-27,41.8-131.4,113.1-246.1,167.9c-37.9,18.1-72.3,35.3-104.6,51.7
		c52.4-90.8,62.7-184.4,63.5-237.8c28.5-21.9,53.5-39.3,75.2-49.7c75.8-36.3,92.4-43.6,143.4-89.9c22-3,78.8,76.4,78.8,76.4
		S1246.5,650,1219.5,691.7z"/>
	<path class="st10" d="M471.6,742.9c-1.1-0.6-4.1,0.6-12.2,12.3c-12.8,18.3-3.9,22.1-3.9,22.1s19.1,21.6,34.1,17.9
		c15-3.7,8.9-12.6,5.1-20.6C490.8,766.5,472.3,743.3,471.6,742.9z"/>
	<path class="st10" d="M526.7,714.4c0,0,6.3,5,14.2-1.6c7.9-6.6,1.6-26.1-6.1-42.2c-7.7-16.1-11-30.6-11-30.6s-20,16.8-15.6,27.8
		C510.6,673.7,518.9,701.7,526.7,714.4z"/>
	<path class="st10" d="M553.1,577.4c0,0,15,37.7,19.5,52.5c4.4,14.8-2.2,25.3-12.2,21.4c-10-3.9-19.8-47.7-19.8-47.7L553.1,577.4z"
		/>
	<path class="st10" d="M601.1,596.6c-6.2,9.1-9.5,6.9-14.9,4.8C580.8,599.2,564,555,564,555s0.9,10.3,0,0c-0.9-10.3,13-37,13-37
		S607.3,587.5,601.1,596.6z"/>
	<path class="st11" d="M395.6,835.3c0,0-19.1,17.9-44.1,34.3c-23.8,15.6-52.8,29.5-80.3,41.3c-6,2.6-7,3.7-12.4,6.6
		c-10.9,5.8,74.1,6.4,152.7-8.3c60.4-11.4,122.3-39.5,114.3-48C506.9,841.4,395.6,835.3,395.6,835.3z"/>
	<path class="st10" d="M479.7,720.4c0,0,20.7,39.1,33.1,39.4c12.5,0.3,13.2-20.5,13.2-20.5l-28.7-48.8L479.7,720.4z"/>
	<path class="st11" d="M767.2,539.6c0,0-64.1-11.4-97.6,39.6c-33.5,51.1-139.5,194.4-77.7,206.2
		C653.7,797.2,850.2,555.4,767.2,539.6z"/>
</g>
</svg>
