<?xml version="1.0" encoding="utf-8"?>
<!-- Generator: Adobe Illustrator 21.1.0, SVG Export Plug-In . SVG Version: 6.00 Build 0)  -->
<svg version="1.1" id="Warstwa_1" xmlns="http://www.w3.org/2000/svg" xmlns:xlink="http://www.w3.org/1999/xlink" x="0px" y="0px"
	 viewBox="0 0 1417.3 1417.3" style="enable-background:new 0 0 1417.3 1417.3;" xml:space="preserve">
<style type="text/css">
	.st0{fill:#FFFFFF;}
	.st1{fill:#292929;}
	.st2{opacity:0.2;}
	.st3{opacity:0.1;fill:#292929;}
</style>
<g id="soccer">
	<g>
		<path class="st0" d="M343.3,546.8C439.3,345,688,255.8,898.9,347.6c210.9,91.8,304.1,329.9,208.2,531.8
			c-95.9,201.9-344.7,291.1-555.5,199.3C340.6,986.8,247.4,748.7,343.3,546.8z"/>
		<g>
			<polygon class="st1" points="814.6,718.1 605.3,698.1 605.6,694.5 814.9,714.5 814.6,718.1 			"/>
			<path class="st1" d="M920.6,601.1L920.6,601.1L917,602c0-0.1-7.3-26.8-21.4-62l0,0c-14.1-35.2-37-74.7-64.2-108.2l1.9-4.1
				l1.4,1.1C893.1,494.9,920.6,601,920.6,601.1L920.6,601.1z"/>
			<path class="st1" d="M678.8,411.1c-47.2,34.5-81.6,73.2-104.1,103.3l0,0c-22.5,30.1-33.1,51.3-33.2,51.4l0,0l-3.4-1.5
				c0.1-0.1,43.1-86.4,138.4-156l0,0L678.8,411.1L678.8,411.1z"/>
			<path class="st1" d="M880.3,871.1c-36.3,76.2-115.4,136.5-115.5,136.6l0,0l0,0l-2.3-2.8c0,0,19.6-15,43.8-39.4l0,0
				c24.2-24.4,52.8-58.3,70.6-95.9l0,0c2.6-5.4,4.9-10.8,7-16.3l0,0l3.5,1.2C885.3,860.1,882.9,865.6,880.3,871.1L880.3,871.1z"/>
			<path class="st1" d="M558.1,931c19.6,33,37.9,55.7,38.2,56l0,0l-3,2.2c0-0.1-74.4-91.7-84.5-175.8l0,0l3.7-0.4
				C517.5,854.2,538.4,897.8,558.1,931L558.1,931z"/>
			<path class="st1" d="M1109.4,592.8c-24.1,50.7-70.8,79.6-70.9,79.7l0,0l0,0l-2-3c0,0,11.4-7.1,25.9-20.5l0,0
				c14.4-13.4,31.8-32.9,43.6-57.7l0,0c1.9-4,3.7-8.2,5.3-12.5l0,0l3.5,1.2C1113.2,584.4,1111.4,588.7,1109.4,592.8L1109.4,592.8z"
				/>
			<path class="st1" d="M402.1,574c9.3,15.8,17.6,23.7,17.6,23.7l0,0l0,0l-2.7,2.6c-0.2-0.2-34.5-33.1-42-96.2l0,0l3.7-0.4
				C382.5,534.7,392.8,558.3,402.1,574L402.1,574z"/>
			<path class="st1" d="M394.5,747c0,0.1-28.7,28.9-51.2,76.3l0,0c-2.5,5.3-4.9,10.8-7.2,16.4l0,0l-1.8-0.6
				c2.3-5.7,4.7-11.2,7.3-16.5l0,0c22.6-47.6,51.5-76.7,51.6-76.8l0,0L394.5,747L394.5,747z"/>
			<path class="st1" d="M1068.5,924.6l-3.7,0.4c-1.2-11.8-12.5-35.4-23.5-55.8l0,0c-11-20.4-21.6-37.7-21.6-37.7l0,0l3.2-1.8
				C1022.9,829.9,1065.6,898.8,1068.5,924.6L1068.5,924.6z"/>
			<path class="st1" d="M1000.9,1017.2c-106.8,72.3-199.5,62.7-199.6,62.7l0,0l0,0l0.2-1.8c0.1,0,23,2.4,59.3-4.2l0,0
				c36.3-6.6,85.9-22.2,139.1-58.2l0,0L1000.9,1017.2L1000.9,1017.2z"/>
			<path class="st0" d="M545.1,1044.8c0,0-96-33.9-165.4-103.6c0,0,76.9,82.9,163.3,108L545.1,1044.8z"/>
			<path class="st1" d="M637.1,353.3c0,0-31.4-15.3-81.2-7.7c0,0,33.5-10.6,86.3,2.2L637.1,353.3z"/>
			<path class="st1" d="M879,379.7c0,0,43.1,2,110.5,27.4c0,0-62.1-30-109.8-34L879,379.7z"/>
		</g>
		<g>
			<path class="st1" d="M816.7,1081.4c-65.2,33.9-160.7,29.2-160.7,29.2c-78-23.1-121.5-63.8-121.5-63.8l56.3-66.4
				c69.2,22.2,181.3,21,181.3,21L816.7,1081.4z"/>
			<path class="st1" d="M878.8,872.6c0,0-52-128-73.2-155.7c0,0,86.7-92.7,107.8-125.6c0,0,89.5,23.2,137.3,73
				c0,0,13.2,82.2-24.1,175.2C1026.6,839.5,932.7,875,878.8,872.6z"/>
			<path class="st1" d="M840.3,440.9c0,0-104.5-35-180.6-16.7c0,0-10.8-46.8-31.1-79.4c0,0,90.3-41.1,143-32.2c0,0,67.1,13,128,67.2
				C899.6,379.8,869.1,400.7,840.3,440.9z"/>
			<path class="st1" d="M514.9,827.5c0,0,71.6-92.7,104.9-128.2c0,0-50.4-99.6-70.2-150.5c0,0-110.5,12.5-138,41.4
				c0,0-41.3,78.2-27.2,167.3C384.4,757.5,426.4,813.9,514.9,827.5z"/>
			<path class="st1" d="M511.6,818.9c0,0,68-88,99.7-121.8c0,0-47.8-94.7-66.7-142.9c0,0-105,11.9-131.1,39.3
				c0,0-39.2,74.3-25.9,158.9C387.6,752.4,427.5,806.1,511.6,818.9z"/>
			<path class="st1" d="M985.7,1029.6c52.9-37.6,95.2-88.7,122.6-149.7c0.3-0.6,0.6-1.2,0.8-1.8c-12.8,13.9-31.8,32.7-46.5,39
				C1062.7,917.1,1028.1,989.9,985.7,1029.6z"/>
			<path class="st1" d="M1104.6,594.2c0,0,19.3,19,34.4,45.7c-15.8-81.3-57.4-157.1-120.4-215.8
				C1049.1,459.3,1098.9,526.4,1104.6,594.2z"/>
			<path class="st1" d="M435.8,420.4c-36.5,33-67.3,72.8-90.2,118.6c9.9-11.8,21.3-22.5,33.2-27.7
				C378.9,511.4,401.4,466.3,435.8,420.4z"/>
			<path class="st1" d="M338.5,831c-21.5-20.9-30.3-67.6-33.9-102.6C307.8,810,337.1,889,388,954.3C356.5,902.3,338.5,831,338.5,831
				z"/>
		</g>
		<g class="st2">
			<path class="st1" d="M545.1,547.5c0,0-97.2,9.1-131.8,38.4"/>
		</g>
	</g>
	<path class="st3" d="M859.3,1095c140.7-44.9,242.8-159.4,270.6-276.1c-40.6,49.3-94.4,88.1-150.8,106.1
		c-239.6,76.5-504.4,47.3-591.2-196.5c-10.4-29.2-19.1-196.9-23.6-226.3c-54.9,97.6-79.5,226.7-36.5,343.9
		C404.8,1055.4,646.4,1162.9,859.3,1095z"/>
</g>
</svg>
