<?xml version="1.0" encoding="utf-8"?>
<!-- Generator: Adobe Illustrator 21.1.0, SVG Export Plug-In . SVG Version: 6.00 Build 0)  -->
<svg version="1.1" id="Warstwa_1" xmlns="http://www.w3.org/2000/svg" xmlns:xlink="http://www.w3.org/1999/xlink" x="0px" y="0px"
	 viewBox="0 0 1417.3 1417.3" style="enable-background:new 0 0 1417.3 1417.3;" xml:space="preserve">
<style type="text/css">
	.st0{clip-path:url(#SVGID_2_);}
	.st1{fill:#161616;}
	.st2{fill:none;stroke:#B1B1B1;stroke-width:1.125;stroke-miterlimit:10;}
	.st3{fill:#7A4F2C;}
	.st4{fill:#004DBC;}
	.st5{fill:#212121;}
	.st6{fill:#0F0F0F;}
	.st7{fill:#E2C414;}
</style>
<g id="squash">
	<g>
		<defs>
			<path id="SVGID_1_" d="M669.4,722.8c-102.8-92.4-89.3-267.4,21.4-398.3C872.5,109.7,982.6,37.5,1151,192
				c218.6,200.6,26.9,339.6-87.8,467.1C948.6,786.7,772.3,815.2,669.4,722.8z"/>
		</defs>
		<clipPath id="SVGID_2_">
			<use xlink:href="#SVGID_1_"  style="overflow:visible;"/>
		</clipPath>
		<g class="st0">
			<g>
				
					<rect x="1034.1" y="-16.4" transform="matrix(0.6685 -0.7437 0.7437 0.6685 108.3648 874.6107)" class="st1" width="2.4" height="664.3"/>
				
					<rect x="1058.8" y="-43.8" transform="matrix(0.6685 -0.7437 0.7437 0.6685 136.9351 883.8545)" class="st1" width="2.4" height="664.3"/>
				<path class="st1" d="M1331.7,482.9"/>
				<path class="st1" d="M837.6,38.8"/>
				
					<rect x="1009.5" y="11" transform="matrix(0.6685 -0.7437 0.7437 0.6685 79.7943 865.3654)" class="st1" width="2.4" height="664.3"/>
				
					<rect x="984.8" y="38.4" transform="matrix(0.6685 -0.7437 0.7437 0.6685 51.2235 856.1154)" class="st1" width="2.4" height="664.3"/>
				
					<rect x="960.2" y="65.9" transform="matrix(0.6685 -0.7437 0.7437 0.6685 22.6556 846.8663)" class="st1" width="2.4" height="664.3"/>
				
					<rect x="935.5" y="93.3" transform="matrix(0.6685 -0.7437 0.7437 0.6685 -5.9151 837.6236)" class="st1" width="2.4" height="664.3"/>
				
					<rect x="910.9" y="120.7" transform="matrix(0.6685 -0.7437 0.7437 0.6685 -34.4762 828.3928)" class="st1" width="2.4" height="664.3"/>
				
					<rect x="886.2" y="148.2" transform="matrix(0.6685 -0.7437 0.7437 0.6685 -63.0521 819.1415)" class="st1" width="2.4" height="664.3"/>
				
					<rect x="861.5" y="175.6" transform="matrix(0.6685 -0.7437 0.7437 0.6685 -91.6229 809.8906)" class="st1" width="2.4" height="664.3"/>
				
					<rect x="836.9" y="203" transform="matrix(0.6685 -0.7437 0.7437 0.6685 -120.1924 800.6435)" class="st1" width="2.4" height="664.3"/>
				
					<rect x="812.2" y="230.4" transform="matrix(0.6685 -0.7437 0.7437 0.6685 -148.764 791.4068)" class="st1" width="2.4" height="664.3"/>
				
					<rect x="787.6" y="257.9" transform="matrix(0.6685 -0.7437 0.7437 0.6685 -177.3348 782.1633)" class="st1" width="2.4" height="664.3"/>
				
					<rect x="762.9" y="285.3" transform="matrix(0.6685 -0.7437 0.7437 0.6685 -205.9033 772.9177)" class="st1" width="2.4" height="664.3"/>
				
					<rect x="738.3" y="312.7" transform="matrix(0.6686 -0.7437 0.7437 0.6686 -234.4734 763.6495)" class="st1" width="2.4" height="664.3"/>
				
					<rect x="713.6" y="340.1" transform="matrix(0.6685 -0.7437 0.7437 0.6685 -263.0408 754.423)" class="st1" width="2.4" height="664.3"/>
				
					<rect x="688.9" y="367.6" transform="matrix(0.6685 -0.7437 0.7437 0.6685 -291.6072 745.1742)" class="st1" width="2.4" height="664.3"/>
				<line class="st2" x1="418.5" y1="505.1" x2="912.5" y2="949.2"/>
				
					<rect x="1028.3" y="-118.8" transform="matrix(0.6685 -0.7437 0.7437 0.6685 182.5535 836.3024)" class="st1" width="2.4" height="664.3"/>
				
					<rect x="1059.4" y="-141.7" transform="matrix(0.6685 -0.7437 0.7437 0.6685 209.8983 851.8793)" class="st1" width="2.4" height="664.3"/>
			</g>
			<g>
				
					<rect x="685" y="630.2" transform="matrix(0.6683 -0.7439 0.7439 0.6683 -132.3113 966.0004)" class="st1" width="664.3" height="2.4"/>
				
					<rect x="713.6" y="655.9" transform="matrix(0.6683 -0.7439 0.7439 0.6683 -141.9512 995.799)" class="st1" width="664.3" height="2.4"/>
				<line class="st2" x1="1296.4" y1="435.8" x2="852.3" y2="929.8"/>
				<line class="st2" x1="1325" y1="461.5" x2="880.9" y2="955.5"/>
				<polygon class="st1" points="767.4,853.5 765.6,851.9 1223.5,342.5 1225.6,343.8 				"/>
				<polygon class="st1" points="738.8,827.8 737,826.2 1209.2,300.9 1210.9,302.6 				"/>
				<polygon class="st1" points="710.2,802.1 708.4,800.5 1194.3,260 1194.1,263.8 				"/>
				<polygon class="st1" points="681.6,776.4 679.8,774.8 1170.3,229.1 1172.1,230.7 				"/>
				<polygon class="st1" points="653,750.7 651.2,749.1 1140.1,205.2 1142.4,206.3 				"/>
				<polygon class="st1" points="624.4,725 622.6,723.3 1110.8,180.3 1113.6,180.8 				"/>
				<polygon class="st1" points="595.8,699.2 594,697.6 1086.2,150.1 1089.9,149.7 				"/>
				<polygon class="st1" points="567.2,673.5 565.4,671.9 1053,129.6 1054.7,131.3 				"/>
				<polygon class="st1" points="538.6,647.8 536.8,646.2 1009.7,120.1 1014.3,118.7 				"/>
				
					<rect x="399" y="373.1" transform="matrix(0.6683 -0.7439 0.7439 0.6683 -35.9311 668.0255)" class="st1" width="664.3" height="2.4"/>
				
					<rect x="370.4" y="347.4" transform="matrix(0.6683 -0.7439 0.7439 0.6683 -26.2911 638.2301)" class="st1" width="664.3" height="2.4"/>
				<line class="st2" x1="896" y1="75.9" x2="451.9" y2="569.9"/>
				<line class="st2" x1="867.4" y1="50.2" x2="423.3" y2="544.2"/>
			</g>
		</g>
	</g>
	<path class="st3" d="M1092.4,685.4c148.1-132,304.8-301.8,63.5-516.5C926.2-35.5,794.3,150.7,661.7,298.3
		c-92,102.4-95.8,264.8-84.4,344.4c0,0,6.5,74.1,6.5,74c0,0,1.5,16.3-114.3,162.7L191.1,1189l65.6,59L540,932.8
		c20.4-21.7,68.9-72,200.1-120.8c0,0,98-8.3,98.1-8.3C889.9,799.5,989.5,777.1,1092.4,685.4z M669.4,722.8
		c-75.5-64.4-93.2-270.8,21.4-398.3c114.7-127.6,245.9-299,434.3-117.9c209.1,201.1,52.8,325-61.9,452.6
		C948.6,786.7,751.3,792.6,669.4,722.8z"/>
	<path class="st4" d="M268.3,1236.3l-0.6-0.5L524,950.7l-65.6-59l-256.2,285.1l-0.6-0.5c-7.9-7.1-20.2-6.5-27.3,1.5
		c-7.1,7.9-6.5,20.2,1.5,27.3l66.8,60c7.9,7.1,20.2,6.5,27.3-1.5C276.9,1255.6,276.3,1243.4,268.3,1236.3z"/>
	<g>
		
			<ellipse transform="matrix(0.9918 -0.1275 0.1275 0.9918 -38.7351 107.4379)" class="st5" cx="820" cy="356.3" rx="86.2" ry="86.2"/>
		<path class="st6" d="M902.8,332.6c4.9,19.7,3.2,28,3.2,28s-0.6,15.8-5.3,25.7c-5.2,10.9-6.6,14.4-13.1,23.4
			c-7,9.7-12.5,13.2-21.3,19.3c-6.4,4.4-13.2,7.7-21.2,9.8c-7.9,2-17.7,4.6-25.3,4.5c-9.9-0.1-16.1-1.7-22.5-3.7
			c-9.3-2.8-18.6-6.4-25.9-12c-7.3-5.6-12.2-9.5-16.1-14.1c-3.8-4.7,1.9,4.8,32.4,8.2c30.5,3.4,50.9-2,66-9.9
			c15.1-7.8,32.4-31.1,38-44.3S900.7,323.9,902.8,332.6z"/>
		
			<ellipse transform="matrix(0.7234 -0.6904 0.6904 0.7234 -1.0513 620.5308)" class="st7" cx="773.9" cy="311.6" rx="7.3" ry="5.5"/>
		<ellipse transform="matrix(0.7234 -0.6904 0.6904 0.7234 -7.1142 634.9799)" class="st7" cx="788.9" cy="326.4" rx="8" ry="6.9"/>
	</g>
</g>
</svg>
