<?xml version="1.0" encoding="utf-8"?>
<!-- Generator: Adobe Illustrator 21.1.0, SVG Export Plug-In . SVG Version: 6.00 Build 0)  -->
<svg version="1.1" id="Warstwa_1" xmlns="http://www.w3.org/2000/svg" xmlns:xlink="http://www.w3.org/1999/xlink" x="0px" y="0px"
	 viewBox="0 0 1417.3 1417.3" style="enable-background:new 0 0 1417.3 1417.3;" xml:space="preserve">
<style type="text/css">
	.st0{fill:#7A4F2C;}
	.st1{clip-path:url(#SVGID_2_);}
	.st2{fill:#161616;}
	.st3{fill:none;stroke:#B1B1B1;stroke-width:1.125;stroke-miterlimit:10;}
	.st4{fill:#AA0C04;}
	.st5{clip-path:url(#SVGID_4_);}
	.st6{fill:#D3D821;}
	.st7{fill:#C0CBBC;}
	.st8{fill:#FFFFFF;}
</style>
<g id="tennis2">
	<path class="st0" d="M1307.1,740.4c127.8-142.2,138.5-340.9,23.9-443.9c-114.6-103-311.1-71.2-438.8,70.9
		c-88.6,98.6-120.9,224.5-94.1,326.7c0,0,0-0.1,0-0.1c0,0,20.5,92.2-91.1,233.2l-268.1,298.3l63.2,56.8l272.9-303.7
		c19.7-21,99.7-97.5,230.6-108.4c0,0-0.1,0-0.1,0C1106.9,880.6,1222.2,834.9,1307.1,740.4z M899.6,776.5
		c-99.1-89-89.8-260.9,20.6-383.8c110.5-122.9,280.3-150.4,379.4-61.3c99.1,89,89.8,260.9-20.6,383.8
		C1168.5,838,998.7,865.5,899.6,776.5z"/>
	<g>
		<defs>
			<path id="SVGID_1_" d="M899.6,776.5c-99.1-89-89.8-260.9,20.6-383.8c110.5-122.9,280.3-150.4,379.4-61.3
				c99.1,89,89.8,260.9-20.6,383.8C1168.5,838,998.7,865.5,899.6,776.5z"/>
		</defs>
		<clipPath id="SVGID_2_">
			<use xlink:href="#SVGID_1_"  style="overflow:visible;"/>
		</clipPath>
		<g class="st1">
			<g>
				
					<rect x="1251" y="64.2" transform="matrix(0.6685 -0.7437 0.7437 0.6685 129.2793 1058.5491)" class="st2" width="2.3" height="640"/>
				
					<rect x="1274.7" y="37.8" transform="matrix(0.6685 -0.7437 0.7437 0.6685 156.8044 1067.454)" class="st2" width="2.3" height="640"/>
				<line class="st3" x1="1061.7" y1="117.5" x2="1537.6" y2="545.3"/>
				
					<rect x="1227.2" y="90.7" transform="matrix(0.6685 -0.7437 0.7437 0.6685 101.7535 1049.6417)" class="st2" width="2.3" height="640"/>
				
					<rect x="1203.5" y="117.1" transform="matrix(0.6685 -0.7437 0.7437 0.6685 74.2268 1040.729)" class="st2" width="2.3" height="640"/>
				
					<rect x="1179.7" y="143.5" transform="matrix(0.6685 -0.7437 0.7437 0.6685 46.7028 1031.8168)" class="st2" width="2.3" height="640"/>
				
					<rect x="1156" y="169.9" transform="matrix(0.6685 -0.7437 0.7437 0.6685 19.177 1022.9125)" class="st2" width="2.3" height="640"/>
				
					<rect x="1132.2" y="196.4" transform="matrix(0.6685 -0.7437 0.7437 0.6685 -8.3375 1014.0229)" class="st2" width="2.3" height="640"/>
				
					<rect x="1108.5" y="222.8" transform="matrix(0.6685 -0.7437 0.7437 0.6685 -35.8696 1005.1082)" class="st2" width="2.3" height="640"/>
				
					<rect x="1084.7" y="249.2" transform="matrix(0.6685 -0.7437 0.7437 0.6685 -63.3959 996.1951)" class="st2" width="2.3" height="640"/>
				
					<rect x="1060.9" y="275.6" transform="matrix(0.6685 -0.7437 0.7437 0.6685 -90.9217 987.2845)" class="st2" width="2.3" height="640"/>
				
					<rect x="1037.2" y="302.1" transform="matrix(0.6685 -0.7437 0.7437 0.6685 -118.4468 978.3885)" class="st2" width="2.3" height="640"/>
				
					<rect x="1013.4" y="328.5" transform="matrix(0.6685 -0.7437 0.7437 0.6685 -145.9729 969.4832)" class="st2" width="2.3" height="640"/>
				
					<rect x="989.7" y="354.9" transform="matrix(0.6685 -0.7437 0.7437 0.6685 -173.4967 960.5758)" class="st2" width="2.3" height="640"/>
				
					<rect x="965.9" y="381.3" transform="matrix(0.6686 -0.7437 0.7437 0.6686 -201.0253 951.641)" class="st2" width="2.3" height="640"/>
				
					<rect x="942.2" y="407.8" transform="matrix(0.6685 -0.7437 0.7437 0.6685 -228.5452 942.7568)" class="st2" width="2.3" height="640"/>
				
					<rect x="918.4" y="434.2" transform="matrix(0.6685 -0.7437 0.7437 0.6685 -256.0681 933.8445)" class="st2" width="2.3" height="640"/>
				<line class="st3" x1="657.8" y1="566.7" x2="1133.8" y2="994.5"/>
			</g>
			<g>
				
					<rect x="914.6" y="687.2" transform="matrix(0.6683 -0.7439 0.7439 0.6683 -102.56 1146.6584)" class="st2" width="640" height="2.3"/>
				
					<rect x="942.1" y="712" transform="matrix(0.6683 -0.7439 0.7439 0.6683 -111.8475 1175.3676)" class="st2" width="640" height="2.3"/>
				<line class="st3" x1="1503.6" y1="499.9" x2="1075.8" y2="975.9"/>
				<line class="st3" x1="1531.2" y1="524.7" x2="1103.3" y2="1000.6"/>
				
					<rect x="887" y="662.4" transform="matrix(0.6683 -0.7439 0.7439 0.6683 -93.2779 1117.9496)" class="st2" width="640" height="2.3"/>
				
					<rect x="859.5" y="637.6" transform="matrix(0.6683 -0.7439 0.7439 0.6683 -83.9878 1089.2465)" class="st2" width="640" height="2.3"/>
				
					<rect x="831.9" y="612.9" transform="matrix(0.6683 -0.7439 0.7439 0.6683 -74.7016 1060.5356)" class="st2" width="640" height="2.3"/>
				
					<rect x="804.4" y="588.1" transform="matrix(0.6683 -0.7439 0.7439 0.6683 -65.4183 1031.8245)" class="st2" width="640" height="2.3"/>
				
					<rect x="776.8" y="563.4" transform="matrix(0.6683 -0.7439 0.7439 0.6683 -56.1338 1003.1207)" class="st2" width="640" height="2.3"/>
				
					<rect x="749.3" y="538.6" transform="matrix(0.6683 -0.7439 0.7439 0.6683 -46.8484 974.4122)" class="st2" width="640" height="2.3"/>
				
					<rect x="721.8" y="513.8" transform="matrix(0.6683 -0.7439 0.7439 0.6683 -37.5576 945.7087)" class="st2" width="640" height="2.3"/>
				
					<rect x="694.2" y="489" transform="matrix(0.6683 -0.7439 0.7439 0.6683 -28.275 916.996)" class="st2" width="640" height="2.3"/>
				
					<rect x="666.6" y="464.3" transform="matrix(0.6683 -0.7439 0.7439 0.6683 -18.9865 888.2883)" class="st2" width="640" height="2.3"/>
				
					<rect x="639.1" y="439.5" transform="matrix(0.6683 -0.7439 0.7439 0.6683 -9.704 859.5792)" class="st2" width="640" height="2.3"/>
				
					<rect x="611.5" y="414.7" transform="matrix(0.6683 -0.7439 0.7439 0.6683 -0.4165 830.8732)" class="st2" width="640" height="2.3"/>
				<line class="st3" x1="1117.9" y1="153.2" x2="690.1" y2="629.1"/>
				<line class="st3" x1="1090.4" y1="128.4" x2="662.5" y2="604.4"/>
			</g>
		</g>
	</g>
	<path class="st4" d="M513.2,1271.1l-0.6-0.5L759.5,996l-63.2-56.8l-246.8,274.7l-0.6-0.5c-7.7-6.9-19.4-6.2-26.3,1.4
		c-6.9,7.7-6.3,19.4,1.4,26.3l64.3,57.8c7.6,6.9,19.4,6.3,26.3-1.4C521.5,1289.8,520.8,1278,513.2,1271.1z"/>
	<g>
		<path class="st0" d="M413.7,859.8c-0.1,0-0.1,0-0.1,0c130.9,10.9,211,87.4,230.6,108.4l272.9,303.7l63.2-56.8L712.2,916.7
			c-111.6-141-91.1-233.2-91.1-233.2c0,0,0,0.1,0,0.1c26.8-102.2-5.5-228.1-94.1-326.7C399.2,214.7,202.8,182.9,88.2,285.9
			c-114.6,103-103.9,301.7,23.9,443.9C197,824.3,312.3,870,413.7,859.8z M140.2,704.5C29.7,581.6,20.4,409.8,119.5,320.7
			c99.1-89,268.9-61.6,379.4,61.3C609.4,505,618.6,676.8,519.5,765.9C420.5,854.9,250.6,827.4,140.2,704.5z"/>
		<g>
			<defs>
				<path id="SVGID_3_" d="M519.5,765.9c99.1-89,89.8-260.9-20.6-383.8c-110.5-122.9-280.3-150.4-379.4-61.3
					c-99.1,89-89.8,260.9,20.6,383.8C250.6,827.4,420.5,854.9,519.5,765.9z"/>
			</defs>
			<clipPath id="SVGID_4_">
				<use xlink:href="#SVGID_3_"  style="overflow:visible;"/>
			</clipPath>
			<g class="st5">
				<g>
					
						<rect x="-153" y="372.5" transform="matrix(0.7437 -0.6685 0.6685 0.7437 -206.9899 207.4365)" class="st2" width="640" height="2.3"/>
					
						<rect x="-176.7" y="346.1" transform="matrix(0.7437 -0.6685 0.6685 0.7437 -195.4132 184.7804)" class="st2" width="640" height="2.3"/>
					<line class="st3" x1="357.5" y1="106.9" x2="-118.5" y2="534.7"/>
					
						<rect x="-129.2" y="398.9" transform="matrix(0.7437 -0.6685 0.6685 0.7437 -218.5674 230.091)" class="st2" width="640" height="2.3"/>
					
						<rect x="-105.5" y="425.3" transform="matrix(0.7437 -0.6685 0.6685 0.7437 -230.144 252.7471)" class="st2" width="640" height="2.3"/>
					
						<rect x="-81.7" y="451.8" transform="matrix(0.7437 -0.6685 0.6685 0.7437 -241.7202 275.4009)" class="st2" width="640" height="2.3"/>
					
						<rect x="-58" y="478.2" transform="matrix(0.7437 -0.6685 0.6685 0.7437 -253.2986 298.0553)" class="st2" width="640" height="2.3"/>
					
						<rect x="-34.2" y="504.6" transform="matrix(0.7437 -0.6685 0.6685 0.7437 -264.8708 320.7001)" class="st2" width="640" height="2.3"/>
					
						<rect x="-10.5" y="531" transform="matrix(0.7437 -0.6685 0.6685 0.7437 -276.452 343.3597)" class="st2" width="640" height="2.3"/>
					
						<rect x="13.3" y="557.5" transform="matrix(0.7437 -0.6685 0.6685 0.7437 -288.0272 366.0179)" class="st2" width="640" height="2.3"/>
					
						<rect x="37" y="583.9" transform="matrix(0.7437 -0.6685 0.6685 0.7437 -299.6073 388.6726)" class="st2" width="640" height="2.3"/>
					
						<rect x="60.8" y="610.3" transform="matrix(0.7437 -0.6685 0.6685 0.7437 -311.1824 411.3236)" class="st2" width="640" height="2.3"/>
					
						<rect x="84.6" y="636.7" transform="matrix(0.7437 -0.6685 0.6685 0.7437 -322.7603 433.9773)" class="st2" width="640" height="2.3"/>
					
						<rect x="108.3" y="663.2" transform="matrix(0.7437 -0.6685 0.6685 0.7437 -334.3359 456.6306)" class="st2" width="640" height="2.3"/>
					
						<rect x="132.1" y="689.6" transform="matrix(0.7437 -0.6686 0.6686 0.7437 -345.9163 479.3019)" class="st2" width="640" height="2.3"/>
					
						<rect x="155.8" y="716" transform="matrix(0.7437 -0.6685 0.6685 0.7437 -357.4876 501.9403)" class="st2" width="640" height="2.3"/>
					
						<rect x="179.6" y="742.4" transform="matrix(0.7437 -0.6685 0.6685 0.7437 -369.0659 524.5964)" class="st2" width="640" height="2.3"/>
					<line class="st3" x1="761.3" y1="556.1" x2="285.4" y2="983.9"/>
				</g>
				<g>
					
						<rect x="183.4" y="357.7" transform="matrix(0.7439 -0.6683 0.6683 0.7439 -405.6921 296.9511)" class="st2" width="2.3" height="640"/>
					
						<rect x="155.9" y="382.5" transform="matrix(0.7439 -0.6683 0.6683 0.7439 -429.3037 284.8822)" class="st2" width="2.3" height="640"/>
					<line class="st3" x1="-84.5" y1="489.3" x2="343.4" y2="965.3"/>
					<line class="st3" x1="-112" y1="514.1" x2="315.8" y2="990"/>
					
						<rect x="211" y="333" transform="matrix(0.7439 -0.6683 0.6683 0.7439 -382.0839 309.0232)" class="st2" width="2.3" height="640"/>
					
						<rect x="238.5" y="308.2" transform="matrix(0.7439 -0.6683 0.6683 0.7439 -358.4743 321.0867)" class="st2" width="2.3" height="640"/>
					
						<rect x="266.1" y="283.4" transform="matrix(0.7439 -0.6683 0.6683 0.7439 -334.8624 333.1574)" class="st2" width="2.3" height="640"/>
					
						<rect x="293.6" y="258.7" transform="matrix(0.7439 -0.6683 0.6683 0.7439 -311.252 345.2303)" class="st2" width="2.3" height="640"/>
					
						<rect x="321.2" y="233.9" transform="matrix(0.7439 -0.6683 0.6683 0.7439 -287.6456 357.2977)" class="st2" width="2.3" height="640"/>
					
						<rect x="348.7" y="209.1" transform="matrix(0.7439 -0.6683 0.6683 0.7439 -264.0355 369.3676)" class="st2" width="2.3" height="640"/>
					
						<rect x="376.2" y="184.4" transform="matrix(0.7439 -0.6683 0.6683 0.7439 -240.4253 381.4308)" class="st2" width="2.3" height="640"/>
					
						<rect x="403.8" y="159.6" transform="matrix(0.7439 -0.6683 0.6683 0.7439 -216.8144 393.505)" class="st2" width="2.3" height="640"/>
					
						<rect x="431.4" y="134.8" transform="matrix(0.7439 -0.6683 0.6683 0.7439 -193.2029 405.5724)" class="st2" width="2.3" height="640"/>
					
						<rect x="458.9" y="110.1" transform="matrix(0.7439 -0.6683 0.6683 0.7439 -169.5944 417.6444)" class="st2" width="2.3" height="640"/>
					
						<rect x="486.5" y="85.3" transform="matrix(0.7439 -0.6683 0.6683 0.7439 -145.9847 429.7114)" class="st2" width="2.3" height="640"/>
					<line class="st3" x1="301.2" y1="142.6" x2="729.1" y2="618.5"/>
					<line class="st3" x1="328.8" y1="117.8" x2="756.7" y2="593.8"/>
				</g>
			</g>
		</g>
		<path class="st4" d="M906,1260.5l0.6-0.5L659.7,985.4l63.2-56.8l246.8,274.7l0.6-0.5c7.7-6.9,19.4-6.2,26.3,1.4
			c6.9,7.7,6.3,19.4-1.4,26.3l-64.3,57.8c-7.6,6.9-19.4,6.3-26.3-1.4C897.7,1279.2,898.3,1267.4,906,1260.5z"/>
	</g>
	<g>
		
			<ellipse transform="matrix(0.5524 -0.8336 0.8336 0.5524 7.5318 762.0778)" class="st6" cx="713.4" cy="374" rx="91.8" ry="91.8"/>
		<g>
			<path class="st7" d="M750.1,458.1c1.1-1.8,2.1-3.9,2.5-6.3l0.2-0.9l0-0.2c0,0.2,0-0.3,0-0.3l0-0.1l0-0.4c0-0.5,0.1-0.9,0.1-1.5
				c0-0.7,0-1.3,0-2c0-0.7-0.1-1.2-0.2-1.9c-0.6-5-2.8-9.8-5.9-13.8c-3-4.1-6.7-7.6-10.7-10.8c-4-3.2-8.3-6.1-12.8-8.9
				c-4.5-2.7-9.2-5.3-14-7.8c-2.4-1.2-4.8-2.4-7.2-3.7c-1.2-0.6-2.3-1.2-3.5-1.8c-1.1-0.6-2.3-1.3-3.4-1.9
				c-9.1-5.2-17.9-11.6-24.3-19.6c-1.6-2-2.9-4.1-4.2-6.2c-1.2-2.1-2.2-4.4-2.9-6.7c-1.5-4.6-1.9-9.4-1.4-14.2c0.5-4.9,2-9.7,4-14.5
				l1.7-3.7l1.7-3.2c0.7-1.1,1.3-2.2,2-3.2c0.7-1,1.5-2,2.2-3.1c3-4,6.5-7.6,10.4-10.5c3.8-3,8-5.4,12.5-7.1
				c4.5-1.7,9.2-2.9,13.9-3.4c4.7-0.6,9.6-0.5,14.3-0.1l0.9,0c-0.3-0.1,0,0-0.1,0l0.1,0l0.2,0l0.5,0.1l1.9,0.3
				c1.2,0.2,2.4,0.3,3.7,0.5c2.5,0.3,4.6,0.8,6.8,1.3c1.1,0.2,2.2,0.5,3.3,0.7c1.1,0.3,2.1,0.6,3.2,0.9c1.1,0.3,2.1,0.6,3.2,0.9
				c0.5,0.2,1,0.3,1.6,0.5c0.5,0.2,1,0.4,1.5,0.5c8.1,2.7,15.1,6.2,21.1,9.8c6,3.6,10.9,7.2,14.8,10.4c2,1.7,5.1,3.6,6.5,5
				c-4.4-8.3-11.5-18.6-19.7-25.3c-5.3-3.2-13.2-4.7-20-7.4c-0.5-0.2-1.1-0.5-1.6-0.7c-0.5-0.2-1.1-0.4-1.6-0.6
				c-1.1-0.4-2.2-0.8-3.3-1.2c-1.1-0.4-2.2-0.8-3.4-1.2c-1.2-0.3-2.4-0.7-3.6-1c-2.4-0.7-4.9-1.5-7.3-1.9c-1.2-0.3-2.4-0.5-3.6-0.8
				l-1.8-0.4l-0.5-0.1l-0.2-0.1l-0.1,0c-0.1,0,0.1,0-0.3-0.1l-1-0.1c-5.3-0.8-10.8-1.4-16.5-1.1c-5.7,0.1-11.6,1.2-17.3,2.9
				c-5.8,1.7-11.3,4.6-16.4,8.1c-5,3.6-9.6,7.9-13.4,12.7c-7.6,9.9-12.8,21.4-14.2,34.6c-0.6,6.5,0,13.5,2.2,19.9
				c1,3.2,2.4,6.3,4.1,9.2c1.7,2.9,3.5,5.6,5.6,8.1c4.2,5,8.9,9.2,13.8,12.9c4.9,3.7,10,6.8,15,9.5c1.3,0.7,2.5,1.3,3.8,2
				c1.3,0.6,2.6,1.3,3.8,1.9c2.5,1.1,4.9,2.3,7.3,3.4c4.7,2.2,9.2,4.5,13.5,6.9c4.2,2.4,8.3,4.8,11.8,7.4c3.6,2.6,6.7,5.4,9.1,8.3
				c2.4,2.9,3.9,5.9,4.4,8.8c0,0.4,0.1,0.7,0.2,1.1c0,0.3,0,0.6,0.1,0.9c0,0.4,0,0.9,0,1.4l0,0.4l0,0l0,0l-0.1,0.5
				c-0.2,1.2-0.6,2.4-1.2,3.6c-0.6,1.1-1.4,2.2-2.3,3.2c-0.9,1-1.9,1.9-3,2.7c-2.1,1.6-4.4,2.9-6.5,3.9c-1.3,0.6-2.4,1.1-3.6,1.6
				C734.8,463.6,742.6,461.4,750.1,458.1z"/>
		</g>
		<g>
			<path class="st8" d="M749.2,451.4l0.2-0.9l0-0.2c0,0.2,0-0.4,0-0.3l0-0.1l0-0.4c0-0.5,0.1-0.9,0.2-1.5c0-0.7,0-1.4,0-2.1
				c0-0.7-0.1-1.3-0.1-1.9c-0.5-5.1-2.7-10-5.7-14.1c-3-4.1-6.6-7.7-10.6-10.9c-4-3.2-8.3-6.2-12.8-8.9c-4.5-2.7-9.2-5.3-14-7.7
				c-2.4-1.2-4.8-2.4-7.2-3.6c-1.2-0.6-2.3-1.2-3.5-1.8c-1.1-0.6-2.3-1.3-3.4-1.9c-9.1-5.2-18-11.6-24.2-19.7
				c-1.6-2-2.9-4.1-4.1-6.3c-1.2-2.2-2.1-4.4-2.8-6.8c-1.4-4.7-1.7-9.6-1.2-14.6c0.6-5,2.1-10,4.2-14.9l1.8-3.8l1.8-3.3
				c0.7-1.1,1.4-2.2,2.1-3.3c0.8-1.1,1.5-2.1,2.3-3.2c3.1-4.2,6.7-7.8,10.6-10.9c3.9-3.1,8.2-5.7,12.8-7.5c4.6-1.8,9.3-3.1,14.1-3.7
				c4.8-0.7,9.7-0.6,14.4-0.4l0.9,0c-0.3-0.1,0,0-0.1,0l0.1,0l0.2,0l0.5,0.1l1.9,0.2c1.2,0.2,2.5,0.3,3.7,0.5
				c2.5,0.2,4.7,0.8,6.9,1.2c1.1,0.2,2.2,0.4,3.3,0.7c1.1,0.2,2.2,0.6,3.2,0.9c1.1,0.3,2.1,0.6,3.2,0.9c0.5,0.1,1,0.3,1.6,0.4
				c0.5,0.2,1,0.4,1.5,0.5c8.1,2.6,15.2,6.1,21.2,9.7c6,3.6,10.9,7.2,14.8,10.4c2,1.7,3.8,3.3,5.2,4.7c-5.2-8.8-12-16.8-20.2-23.6
				c-5.3-3.2-11.3-6.4-18-9c-0.5-0.2-1.1-0.4-1.6-0.7c-0.5-0.2-1.1-0.4-1.6-0.6c-1.1-0.4-2.2-0.8-3.3-1.2c-1.1-0.4-2.3-0.8-3.4-1.2
				c-1.2-0.3-2.4-0.7-3.6-1c-2.4-0.7-5-1.4-7.3-1.8c-1.2-0.2-2.4-0.5-3.6-0.8l-1.8-0.4l-0.5-0.1l-0.2,0l-0.1,0c-0.1,0,0.1,0-0.3-0.1
				l-1-0.1c-5.3-0.7-10.9-1.3-16.7-0.9c-5.8,0.2-11.7,1.4-17.6,3.2c-5.9,1.8-11.5,4.9-16.7,8.5c-5.2,3.7-9.8,8.2-13.8,13.3
				c-7.8,10.2-13.3,22.1-14.9,35.6c-0.7,6.7-0.2,13.8,1.9,20.4c1,3.3,2.4,6.5,4,9.4c1.6,2.9,3.5,5.7,5.6,8.2
				c4.1,5.1,8.8,9.3,13.7,13c4.9,3.7,10,6.8,15,9.5c1.3,0.7,2.5,1.3,3.8,2c1.3,0.6,2.6,1.3,3.8,1.8c2.5,1.1,4.9,2.2,7.3,3.3
				c4.7,2.2,9.3,4.4,13.5,6.8c4.2,2.4,8.3,4.8,11.8,7.4c3.6,2.6,6.7,5.4,9,8.3c2.4,2.9,3.8,6,4.4,8.9c0,0.4,0.1,0.8,0.2,1.1
				c0,0.3,0,0.6,0.1,0.9c0,0.4,0,1-0.1,1.4l0,0.4l0,0l0,0l-0.1,0.5c-0.2,1.3-0.6,2.5-1.3,3.7c-0.6,1.2-1.5,2.3-2.4,3.3
				c-0.9,1-2,2-3.1,2.8c-2.2,1.7-4.5,3-6.6,4.1c-1.4,0.7-2.8,1.3-4,1.9c7.7-0.8,15.2-2.5,22.5-5.1c0.5-0.7,1.1-1.4,1.6-2.1
				C747.7,456.2,748.7,453.9,749.2,451.4z"/>
		</g>
	</g>
</g>
</svg>
