<?xml version="1.0" encoding="utf-8"?>
<!-- Generator: Adobe Illustrator 21.1.0, SVG Export Plug-In . SVG Version: 6.00 Build 0)  -->
<svg version="1.1" id="Warstwa_1" xmlns="http://www.w3.org/2000/svg" xmlns:xlink="http://www.w3.org/1999/xlink" x="0px" y="0px"
	 viewBox="0 0 1417.3 1417.3" style="enable-background:new 0 0 1417.3 1417.3;" xml:space="preserve">
<style type="text/css">
	.st0{fill:#7A4F2C;}
	.st1{clip-path:url(#SVGID_2_);}
	.st2{fill:#161616;}
	.st3{fill:none;stroke:#B1B1B1;stroke-width:1.125;stroke-miterlimit:10;}
	.st4{fill:#AA0C04;}
	.st5{fill:#D3D821;}
	.st6{fill:#C0CBBC;}
	.st7{fill:#FFFFFF;}
</style>
<g id="tennis1">
	<path class="st0" d="M1200,650c149.7-166.6,162.2-399.5,28-520.2C1093.7,9.2,863.4,46.4,713.7,213
		C609.8,328.6,572,476.1,603.4,595.9c0,0,0-0.1,0-0.1c0,0,24,108-106.7,273.3l-314.2,349.6l74.1,66.6l319.9-355.9
		c23-24.6,116.9-114.2,270.3-127c0,0-0.1,0-0.1,0C965.3,814.3,1100.4,760.8,1200,650z M722.5,692.3
		C606.4,588,617.2,386.6,746.6,242.6c129.5-144,328.5-176.2,444.6-71.9c116.1,104.3,105.3,305.7-24.2,449.7
		C1037.6,764.5,838.5,796.7,722.5,692.3z"/>
	<g>
		<defs>
			<path id="SVGID_1_" d="M722.5,692.3C606.4,588,617.2,386.6,746.6,242.6c129.5-144,328.5-176.2,444.6-71.9
				c116.1,104.3,105.3,305.7-24.2,449.7C1037.6,764.5,838.5,796.7,722.5,692.3z"/>
		</defs>
		<clipPath id="SVGID_2_">
			<use xlink:href="#SVGID_1_"  style="overflow:visible;"/>
		</clipPath>
		<g class="st1">
			<g>
				
					<rect x="1134.2" y="-142.3" transform="matrix(0.6685 -0.7437 0.7437 0.6685 203.3412 921.6287)" class="st2" width="2.7" height="750"/>
				
					<rect x="1162.1" y="-173.3" transform="matrix(0.6685 -0.7437 0.7437 0.6685 235.5975 932.0657)" class="st2" width="2.7" height="750"/>
				<line class="st3" x1="912.4" y1="-79.9" x2="1470.1" y2="421.5"/>
				
					<rect x="1106.4" y="-111.3" transform="matrix(0.6685 -0.7437 0.7437 0.6685 171.0845 911.1907)" class="st2" width="2.7" height="750"/>
				
					<rect x="1078.5" y="-80.4" transform="matrix(0.6685 -0.7437 0.7437 0.6685 138.8271 900.7477)" class="st2" width="2.7" height="750"/>
				
					<rect x="1050.7" y="-49.4" transform="matrix(0.6685 -0.7437 0.7437 0.6685 106.573 890.3058)" class="st2" width="2.7" height="750"/>
				
					<rect x="1022.9" y="-18.4" transform="matrix(0.6685 -0.7437 0.7437 0.6685 74.3161 879.8704)" class="st2" width="2.7" height="750"/>
				
					<rect x="995" y="12.5" transform="matrix(0.6685 -0.7437 0.7437 0.6685 42.0709 869.4468)" class="st2" width="2.7" height="750"/>
				
					<rect x="967.2" y="43.5" transform="matrix(0.6685 -0.7437 0.7437 0.6685 9.8076 859.0028)" class="st2" width="2.7" height="750"/>
				
					<rect x="939.3" y="74.5" transform="matrix(0.6685 -0.7437 0.7437 0.6685 -22.4496 848.5584)" class="st2" width="2.7" height="750"/>
				
					<rect x="911.5" y="105.4" transform="matrix(0.6685 -0.7437 0.7437 0.6685 -54.7056 838.1191)" class="st2" width="2.7" height="750"/>
				
					<rect x="883.7" y="136.4" transform="matrix(0.6685 -0.7437 0.7437 0.6685 -86.9628 827.6892)" class="st2" width="2.7" height="750"/>
				
					<rect x="855.8" y="167.4" transform="matrix(0.6685 -0.7437 0.7437 0.6685 -119.22 817.2529)" class="st2" width="2.7" height="750"/>
				
					<rect x="828" y="198.3" transform="matrix(0.6685 -0.7437 0.7437 0.6685 -151.4744 806.8145)" class="st2" width="2.7" height="750"/>
				
					<rect x="800.2" y="229.3" transform="matrix(0.6686 -0.7437 0.7437 0.6686 -183.732 796.3531)" class="st2" width="2.7" height="750"/>
				
					<rect x="772.3" y="260.3" transform="matrix(0.6685 -0.7437 0.7437 0.6685 -215.9841 785.9338)" class="st2" width="2.7" height="750"/>
				
					<rect x="744.5" y="291.2" transform="matrix(0.6685 -0.7437 0.7437 0.6685 -248.2367 775.4924)" class="st2" width="2.7" height="750"/>
				<line class="st3" x1="439.1" y1="446.5" x2="996.9" y2="947.9"/>
			</g>
			<g>
				
					<rect x="740" y="587.7" transform="matrix(0.6683 -0.7439 0.7439 0.6683 -68.3722 1024.7793)" class="st2" width="750" height="2.7"/>
				
					<rect x="772.3" y="616.7" transform="matrix(0.6683 -0.7439 0.7439 0.6683 -79.2559 1058.4226)" class="st2" width="750" height="2.7"/>
				<line class="st3" x1="1430.3" y1="368.2" x2="928.9" y2="926"/>
				<line class="st3" x1="1462.6" y1="397.2" x2="961.2" y2="955"/>
				
					<rect x="707.7" y="558.7" transform="matrix(0.6683 -0.7439 0.7439 0.6683 -57.4947 991.136)" class="st2" width="750" height="2.7"/>
				
					<rect x="675.4" y="529.7" transform="matrix(0.6683 -0.7439 0.7439 0.6683 -46.6079 957.4997)" class="st2" width="750" height="2.7"/>
				
					<rect x="643.2" y="500.6" transform="matrix(0.6683 -0.7439 0.7439 0.6683 -35.7256 923.8543)" class="st2" width="750" height="2.7"/>
				
					<rect x="610.9" y="471.6" transform="matrix(0.6683 -0.7439 0.7439 0.6683 -24.8468 890.2084)" class="st2" width="750" height="2.7"/>
				
					<rect x="578.6" y="442.6" transform="matrix(0.6683 -0.7439 0.7439 0.6683 -13.9666 856.5713)" class="st2" width="750" height="2.7"/>
				
					<rect x="546.3" y="413.6" transform="matrix(0.6683 -0.7439 0.7439 0.6683 -3.0853 822.9284)" class="st2" width="750" height="2.7"/>
				
					<rect x="514" y="384.5" transform="matrix(0.6683 -0.7439 0.7439 0.6683 7.8024 789.2917)" class="st2" width="750" height="2.7"/>
				
					<rect x="481.7" y="355.5" transform="matrix(0.6683 -0.7439 0.7439 0.6683 18.6805 755.644)" class="st2" width="750" height="2.7"/>
				
					<rect x="449.4" y="326.5" transform="matrix(0.6683 -0.7439 0.7439 0.6683 29.5654 722.0021)" class="st2" width="750" height="2.7"/>
				
					<rect x="417.2" y="297.5" transform="matrix(0.6683 -0.7439 0.7439 0.6683 40.4433 688.3588)" class="st2" width="750" height="2.7"/>
				
					<rect x="384.9" y="268.4" transform="matrix(0.6683 -0.7439 0.7439 0.6683 51.327 654.719)" class="st2" width="750" height="2.7"/>
				<line class="st3" x1="978.3" y1="-38.1" x2="476.9" y2="519.7"/>
				<line class="st3" x1="946" y1="-67.1" x2="444.6" y2="490.6"/>
			</g>
		</g>
	</g>
	<path class="st4" d="M269.6,1272l-0.7-0.6l289.3-321.9L484.1,883l-289.3,321.9l-0.7-0.6c-9-8.1-22.8-7.3-30.8,1.6
		c-8.1,9-7.3,22.8,1.6,30.8l75.4,67.8c9,8.1,22.8,7.3,30.8-1.6C279.3,1293.9,278.6,1280.1,269.6,1272z"/>
	<g>
		
			<ellipse transform="matrix(0.5524 -0.8336 0.8336 0.5524 24.3668 857.5648)" class="st5" cx="810.7" cy="406.1" rx="106.3" ry="106.3"/>
		<g>
			<path class="st6" d="M853.3,503.5c1.3-2.1,2.4-4.6,3-7.3l0.2-1l0-0.3c0,0.2,0-0.4,0-0.4l0-0.1l0-0.4c0-0.6,0.1-1,0.2-1.7
				c0-0.8,0-1.5,0-2.3c0-0.8-0.1-1.4-0.2-2.2c-0.7-5.7-3.3-11.3-6.8-16c-3.5-4.7-7.7-8.8-12.3-12.5c-4.6-3.7-9.6-7.1-14.8-10.3
				c-5.2-3.1-10.7-6.1-16.2-9c-2.7-1.4-5.5-2.8-8.3-4.2c-1.4-0.7-2.7-1.4-4-2.1c-1.3-0.7-2.6-1.5-4-2.2
				c-10.5-6.1-20.8-13.4-28.1-22.7c-1.9-2.3-3.4-4.7-4.8-7.2c-1.4-2.5-2.5-5.1-3.3-7.7c-1.7-5.3-2.2-10.9-1.6-16.5
				c0.6-5.6,2.3-11.3,4.6-16.8l1.9-4.2l2-3.7c0.8-1.3,1.5-2.5,2.3-3.7c0.8-1.2,1.7-2.4,2.5-3.6c3.5-4.6,7.5-8.7,12-12.2
				c4.4-3.4,9.3-6.3,14.5-8.2c5.2-2,10.6-3.4,16.1-3.9c5.5-0.7,11.1-0.6,16.5-0.2l1,0.1c-0.4-0.1,0,0-0.1,0l0.1,0l0.3,0l0.5,0.1
				l2.1,0.3c1.4,0.2,2.8,0.4,4.2,0.6c2.9,0.3,5.4,1,7.9,1.5c1.3,0.3,2.5,0.5,3.8,0.8c1.2,0.3,2.5,0.7,3.7,1c1.2,0.4,2.5,0.7,3.7,1
				c0.6,0.2,1.2,0.3,1.8,0.5c0.6,0.2,1.2,0.4,1.7,0.6c9.4,3.1,17.5,7.2,24.5,11.3c6.9,4.1,12.6,8.3,17.1,12c2.3,2,5.9,4.1,7.6,5.7
				c-5.1-9.6-13.3-21.5-22.8-29.3c-6.1-3.7-15.3-5.5-23.1-8.6c-0.6-0.3-1.2-0.5-1.8-0.8c-0.6-0.2-1.3-0.5-1.9-0.7
				c-1.3-0.5-2.6-0.9-3.8-1.4c-1.3-0.5-2.6-1-3.9-1.4c-1.4-0.4-2.8-0.8-4.2-1.2c-2.8-0.8-5.7-1.7-8.4-2.2c-1.4-0.3-2.8-0.6-4.2-0.9
				l-2.1-0.5l-0.5-0.1l-0.3-0.1l-0.1,0c-0.1,0,0.1,0-0.4-0.1l-1.1-0.2c-6.1-0.9-12.5-1.6-19.1-1.3c-6.6,0.1-13.4,1.3-20.1,3.4
				c-6.7,2-13.1,5.3-18.9,9.3c-5.8,4.1-11.1,9.1-15.6,14.8c-8.8,11.4-14.8,24.8-16.5,40c-0.7,7.6,0,15.6,2.5,23.1
				c1.2,3.7,2.8,7.3,4.8,10.7c1.9,3.4,4.1,6.5,6.5,9.4c4.8,5.8,10.3,10.7,16,14.9c5.7,4.3,11.5,7.8,17.4,11c1.5,0.8,2.9,1.6,4.4,2.3
				c1.5,0.7,3.1,1.5,4.4,2.1c2.8,1.3,5.7,2.6,8.4,3.9c5.5,2.6,10.7,5.2,15.6,7.9c4.9,2.8,9.6,5.6,13.7,8.6c4.1,3,7.8,6.2,10.5,9.6
				c2.8,3.4,4.5,6.8,5.1,10.2c0.1,0.4,0.2,0.9,0.2,1.2c0,0.3,0.1,0.7,0.1,1c0,0.5,0,1.1,0,1.6l0,0.4l0,0l0,0.1l-0.1,0.5
				c-0.2,1.4-0.7,2.8-1.4,4.1c-0.7,1.3-1.7,2.5-2.7,3.7c-1.1,1.1-2.2,2.2-3.5,3.1c-2.4,1.9-5.1,3.3-7.5,4.5
				c-1.5,0.7-2.8,1.3-4.1,1.9C835.5,509.8,844.6,507.2,853.3,503.5z"/>
		</g>
		<g>
			<path class="st7" d="M852.2,495.7l0.2-1.1l0.1-0.3c0,0.2,0.1-0.4,0.1-0.4l0-0.1l0-0.4c0.1-0.6,0.1-1.1,0.2-1.7c0-0.8,0-1.6,0-2.4
				c0-0.8-0.1-1.5-0.2-2.2c-0.6-5.9-3.1-11.6-6.6-16.3c-3.4-4.8-7.7-8.9-12.3-12.6c-4.6-3.7-9.6-7.1-14.8-10.3
				c-5.2-3.1-10.7-6.1-16.3-8.9c-2.8-1.4-5.5-2.8-8.4-4.2c-1.4-0.7-2.7-1.4-4-2.1c-1.3-0.7-2.6-1.5-4-2.2c-10.5-6-20.8-13.4-28-22.8
				c-1.8-2.3-3.4-4.8-4.8-7.3c-1.4-2.5-2.5-5.1-3.3-7.8c-1.6-5.4-2-11.1-1.3-16.9c0.7-5.8,2.5-11.6,4.9-17.2l2-4.4l2.1-3.8
				c0.8-1.3,1.6-2.6,2.4-3.9c0.9-1.2,1.7-2.5,2.6-3.7c3.6-4.8,7.7-9.1,12.3-12.7c4.6-3.6,9.5-6.6,14.8-8.7
				c5.3-2.1,10.8-3.6,16.4-4.3c5.6-0.8,11.2-0.7,16.7-0.4l1,0c-0.4-0.1,0,0-0.1,0l0.1,0l0.3,0l0.5,0.1l2.2,0.3
				c1.4,0.2,2.9,0.4,4.3,0.5c2.9,0.3,5.4,0.9,8,1.4c1.3,0.3,2.5,0.5,3.8,0.8c1.3,0.3,2.5,0.7,3.7,1c1.2,0.3,2.5,0.7,3.7,1
				c0.6,0.2,1.2,0.3,1.8,0.5c0.6,0.2,1.2,0.4,1.8,0.6c9.4,3,17.6,7.1,24.5,11.2c6.9,4.1,12.6,8.3,17.1,12c2.3,2,4.3,3.8,6,5.4
				c-6.1-10.2-13.9-19.4-23.4-27.3c-6.1-3.7-13.1-7.4-20.9-10.5c-0.6-0.3-1.2-0.5-1.8-0.8c-0.6-0.2-1.3-0.4-1.9-0.7
				c-1.3-0.5-2.6-0.9-3.9-1.4c-1.3-0.4-2.6-0.9-4-1.4c-1.4-0.4-2.8-0.8-4.2-1.2c-2.8-0.8-5.7-1.6-8.5-2.1c-1.4-0.3-2.8-0.6-4.2-0.9
				l-2.1-0.4l-0.5-0.1l-0.3-0.1l-0.1,0c-0.1,0,0.1,0-0.4-0.1l-1.2-0.1c-6.2-0.9-12.6-1.5-19.3-1c-6.7,0.2-13.6,1.6-20.3,3.8
				c-6.8,2.1-13.3,5.6-19.3,9.9c-6,4.3-11.3,9.5-16,15.4c-9,11.9-15.4,25.6-17.3,41.3c-0.9,7.8-0.3,16,2.2,23.6
				c1.2,3.8,2.7,7.5,4.6,10.9c1.9,3.4,4.1,6.6,6.5,9.5c4.8,5.9,10.2,10.8,15.9,15c5.6,4.3,11.5,7.8,17.4,11c1.5,0.8,2.9,1.5,4.4,2.3
				c1.5,0.7,3.1,1.5,4.5,2.1c2.8,1.3,5.7,2.6,8.5,3.9c5.5,2.5,10.7,5.2,15.7,7.9c4.9,2.7,9.6,5.6,13.7,8.6c4.1,3,7.7,6.3,10.4,9.7
				c2.8,3.4,4.4,6.9,5,10.3c0.1,0.4,0.1,0.9,0.2,1.3c0,0.4,0,0.7,0.1,1.1c0,0.5,0,1.1-0.1,1.6l0,0.4l0,0l0,0.1l-0.1,0.6
				c-0.2,1.5-0.7,2.9-1.5,4.2c-0.7,1.4-1.7,2.6-2.8,3.8c-1.1,1.2-2.3,2.3-3.6,3.2c-2.5,2-5.2,3.5-7.6,4.8c-1.7,0.8-3.2,1.6-4.7,2.2
				c8.9-0.9,17.7-2.9,26.1-5.9c0.6-0.8,1.2-1.6,1.8-2.5C850.4,501.2,851.6,498.6,852.2,495.7z"/>
		</g>
	</g>
</g>
</svg>
