<?xml version="1.0" encoding="utf-8"?>
<!-- Generator: Adobe Illustrator 21.1.0, SVG Export Plug-In . SVG Version: 6.00 Build 0)  -->
<svg version="1.1" id="Warstwa_1" xmlns="http://www.w3.org/2000/svg" xmlns:xlink="http://www.w3.org/1999/xlink" x="0px" y="0px"
	 viewBox="0 0 1417.3 1417.3" style="enable-background:new 0 0 1417.3 1417.3;" xml:space="preserve">
<style type="text/css">
	.st0{fill:#FFFFFF;}
	.st1{fill:#E0E0E0;}
	.st2{fill:#303030;}
	.st3{fill:none;stroke:#303030;stroke-width:5;stroke-miterlimit:10;}
</style>
<g id="volleyball">
	<path class="st0" d="M1095.2,718c-8.1,179.4-171.1,358.1-382.2,358.1S337.5,914.6,330.7,718c-5.8-170.2,112.8-320.8,268.5-373.6
		c37.4-12.7,74.3-16.5,115.2-17.3c111.1-2.1,210,46.7,279.1,125.4C1057.9,526,1099.8,617.8,1095.2,718z"/>
	<path class="st1" d="M391.6,500.2c-13.6,21.9-34,57-50.3,114c-16.3,57-11.6,118.6-5.8,146.5c5.8,27.9,7.4,66.6,40.3,126.3
		s92.1,107.3,104.5,116.9c12.4,9.6,70.2,46.8,117.9,59.3c47.7,12.5,95.8,21.7,162.4,13s144.2-48.8,151.9-53.7s86.7-66.5,106.5-102.6
		c19.8-36-12.8,22.9-149.9,38.8S611,945.4,566.8,918.7c-28.5-17.2-139.5-53.6-179-217.1C360.2,587.3,376.1,574.6,391.6,500.2z"/>
	<g>
		<g>
			<path class="st2" d="M328.2,677.2l3-21.9c7.2-53.2,28.1-106.9,60.4-155.2c32.4-48.4,75.4-90,124.5-120.3l0.9-0.6l1,0.1
				c9.9,1.4,23.5,4,32.1,7.4c13.1,5.5,28.5,21.2,45.6,46.4l2.4,3.6l-4.2,0.9c-1.2,0.2-117.2,25.8-186.2,105.5
				c-33.4,38.6-58.6,83.9-71,113.4L328.2,677.2z M518.2,385.4C427.4,442,361,535.8,340.6,634.5c14.1-28.4,35.7-63.8,62.7-95
				C466,467,566.8,438.5,588.4,433c-19.2-27.7-32.7-37.5-40.6-40.8C541.7,389.8,531.2,387.3,518.2,385.4z"/>
		</g>
		<path class="st2" d="M894.1,877.9l-3-0.2c-0.8-0.1-76.5-6.9-130.7-28.6c-53.9-21.6-97.9-45.2-98.3-45.4l-1.6-0.8l0.1-1.9
			c0.1-2,6.9-194.9-37.8-306.2c-34.3-85.6-76.3-103.8-78-104.6c-12.4-5.2-24.9-4.3-25-4.3l-9.9,0.8l7.9-6c0.3-0.2,7.9-6,25.2-15.2
			c46.7-23.9,92.2-37.4,138.9-41.3h0.3h0.3c3,0.3,5.8,0.7,8.5,0.9c6,0.6,11.3,1,15,3c6.4,3.3,40.6,23.4,83.8,93.2
			c34.8,56,87.5,188.1,96.5,306.3c8.6,114.7,7.8,146.9,7.8,147.2L894.1,877.9z M666.4,799.3c8.4,4.4,48.4,25.1,96.1,44.3
			c47.1,18.8,111,26.4,125.9,27.9c0-10.3-0.7-48.6-7.8-143.4c-8.7-115.9-62.2-249.7-95.5-303.6c-42.5-68.6-75.4-88-81.6-91.1
			c-2.7-1.4-7.4-1.9-12.9-2.3c-2.6-0.2-5.5-0.5-8.4-0.9c-45.9,3.7-90.5,17.1-136.5,40.6c-7.3,4-12.9,7.2-16.9,9.8
			c5,0.5,11.6,1.7,18.2,4.5c16.9,7.1,53,37.7,81.1,107.8C671,599.1,667,779.2,666.4,799.3z"/>
		<path class="st2" d="M897.4,877.7c-3.7,0-5.9-0.1-6.3-0.1l-2.8-0.1l0.1-2.8c0-0.3,0.8-32.4-7.8-146.6
			c-8.7-115.9-62.2-249.7-95.5-303.6c-31.5-50.9-68.7-84.5-81.6-91.1c-2.7-1.4-7.4-1.9-12.9-2.3c-2.7-0.2-5.6-0.6-8.7-0.9l-26.5-3.6
			l26.6-2.2c70.9-5.8,140,6.7,199.5,36.3l0.5,0.2c28,20.7,50.3,41.3,66.1,61.1c42.4,53.2,66.6,118.6,78.3,211.8
			c16.9,133.6-18.8,216.1-19.3,216.9l-0.5,1l-0.9,0.5c-0.2,0.1-25.8,12.1-56,19.5C927.6,876.9,907.3,877.7,897.4,877.7z
			 M894.3,871.8c7.7,0.1,30.1-0.1,54.1-6c26.3-6.5,48.9-16.5,53.9-18.7c4-9.6,34.1-88.8,18.4-212.8
			c-11.6-92.1-35.5-156.5-77.2-208.9l0,0c-15.5-19.5-37.3-39.6-64.9-59.9C827,340,768.1,327.4,707.2,328.6
			c14.3,8.1,51.5,42.1,82.8,92.6c34.8,56,87.5,188.1,96.5,306.3C893.6,823.6,894.1,861.8,894.3,871.8z"/>
		<path class="st2" d="M998.3,855.9l3.5-7.8c0.3-0.8,35.5-81.9,18.8-213.8c-11.6-92.1-35.5-156.5-77.2-208.9
			c-15.6-19.5-37.4-39.8-65.1-60.1l3-5c55.9,27.7,106.1,73.5,153.6,139.8c26,36.4,44.3,76.8,54.4,120.2c9.5,40.8,11.5,83.2,6,126.1
			v0.3l-0.1,0.2c-7.2,20.7-25.1,47.3-46.6,69.5c-24.6,25.3-42.1,35-42.8,35.3L998.3,855.9z M911.5,384.3
			c14.5,12.7,26.7,25.2,36.5,37.4c42.4,53.2,66.6,118.6,78.3,211.8c13.8,109.3-7.6,184.4-16,208.5c7.3-5.1,19.5-14.5,34.2-29.6
			c20.9-21.5,38.1-47.1,45.2-67.1c11-86.8-10.1-172.7-59.5-241.8C992.8,451.3,953.7,411.9,911.5,384.3z"/>
		<g>
			<path class="st2" d="M791.9,1009.2c-56.3,0-106.7-8.3-148.3-24.4c-79.9-31-146.2-72.8-146.8-73.2l-2.9-1.9l2.3-2.6
				c0.2-0.2,22.4-23.9,60.2-47.4c37.5-23.2,105-60.9,105.7-61.4l1.4-0.8l1.4,0.8c0.5,0.2,44.2,23.7,97.8,45.2
				c53.4,21.4,128.2,28.1,129,28.2c0.1,0,27.3,1.3,56.7-6c28.8-7.2,53.2-18.4,54.9-19.2c1.2-0.7,18.1-10.5,41.4-34.3l0,0
				c20.9-21.5,38.2-47.3,45.2-67.3l8.4-23.9l-2.8,25.2c-6.9,63.1-34.9,113.8-64,159.2l-0.1,0.2c-8.7,11.2-16.7,19.9-23.6,26.2
				c-36.2,32.4-73.6,65.9-149.9,73.8C835,1008,813,1009.2,791.9,1009.2z M502.9,908.5c13.8,8.5,73.1,43.8,142.7,70.8
				c56.4,21.9,129.5,29.1,211.3,20.6c74.5-7.7,111.1-40.6,146.7-72.4c6.6-5.9,14.4-14.5,22.9-25.2c25.6-39.8,50.2-83.7,60.1-136.3
				c-9.1,16.6-22.6,34.8-38,50.6l0,0c-24.6,25.3-42.1,35-42.8,35.3l-0.1,0.1c-0.2,0.1-25.8,12.1-56,19.5
				c-30.3,7.6-57.4,6.2-58.6,6.2c-0.8-0.1-76.6-7-130.8-28.6c-48.5-19.4-88.9-40.5-96.9-44.6c-9.9,5.5-69.6,39.1-104,60.4
				C529.5,883.2,509.6,901.9,502.9,908.5z"/>
		</g>
		<g>
			<g>
				<path class="st0" d="M1033,897.3c-1.2,1.9-2.3,3.7-3.5,5.6C1030.7,901,1031.9,899.1,1033,897.3z"/>
				<path class="st2" d="M1032,904.5l-4.9-3.1c1.2-1.9,2.3-3.7,3.5-5.6l5,3C1034.3,900.8,1033.2,902.6,1032,904.5z"/>
			</g>
			<path class="st2" d="M713,1079.2c-2.6,0-5.1,0-7.7-0.1h-0.1c-2.3-0.2-4.2-0.3-5.7-0.6c-2.3-0.3-4.5-0.7-6.9-1
				c-28.1-4.4-63.1-9.8-119.6-37.8c-60.4-29.9-104.1-70.3-104.6-70.7l-0.2-0.2l-0.2-0.3c-0.2-0.5-6.3-10.7,5-30.1
				c10.6-18.2,22.8-30.6,23.4-31.2l1.6-1.6l2,1.3c0.7,0.5,66.5,42,145.9,72.8c56.4,21.9,129.5,29.1,211.3,20.6
				c74.5-7.7,111.1-40.6,146.7-72.4l2,2.2l-2-2.2c6.6-5.9,14.3-14.4,22.8-25.2l4.8,3.4c-30.6,47.4-70.6,86.7-118.9,116.6
				C852.1,1059.5,783.4,1079.2,713,1079.2z M705.6,1073.3c72,1.4,142.3-17.9,203.7-55.9c34.6-21.4,64.9-47.8,90.4-78.5
				c-33.9,30.1-71.3,59.4-142,66.8c-82.8,8.6-156.7,1.4-214-20.9c-72.1-28-133.1-64.7-144.8-72c-3.6,4-12.8,14.4-20.8,28.2
				c-8.4,14.4-5.8,22.3-5.2,23.8c4.4,4,46.1,41.4,102.8,69.4c55.8,27.5,90.2,32.9,118,37.2c2.3,0.3,4.6,0.7,7,1
				C701.8,1072.9,703.4,1073.1,705.6,1073.3z"/>
			<polygon class="st2" points="1083.1,748.4 1083,748.3 1088.6,746.6 			"/>
			<path class="st3" d="M1062.2,839"/>
			<path class="st3" d="M1050,866.6"/>
		</g>
		<path class="st2" d="M705.4,1079.1c-85.9-1.7-163.7-27.8-225.2-75.2l-0.5-0.3l-0.2-0.5c-7-11.5-10.7-28.8-12-35.8l-1.6-8.6l6.4,6
			c0.5,0.3,43.5,40.3,103.2,69.7c55.8,27.5,90.2,32.9,118,37.2c2.3,0.3,4.6,0.7,7,1c1.3,0.2,3,0.3,5.2,0.6L705.4,1079.1z
			 M484.3,999.6c45.6,35.1,100.4,58.2,161,68.2c-19.6-5.3-43.1-13.8-72.2-28.1c-46.7-23.1-83.5-52.5-97.9-64.9
			C477,982.4,479.9,992.4,484.3,999.6z"/>
		<path class="st2" d="M492.8,1013.5l-12.4-9.6c-42.2-32.5-71.7-63.8-93-98.2c-1-1.6-2.1-3.4-3.3-5.1c-2.9-4.5-5.8-9.2-8.3-13.7
			l-0.2-0.3l-0.1-0.3c-1.7-7.9-2.9-26.4-3-30.9c-1.2-28.2,3.6-52.4,32.1-99.2c28.6-47.1,64.5-85.1,123.9-131.2
			c44.4-34.5,92.2-66.1,113.4-79.5l3.6-2.2l0.8,4.2c21.9,113.6,21.9,252.1,21.9,253.5v2.7l-3.7,0.3c-6.5,3.6-69.2,38.8-104.8,60.9
			c-37.2,23-58.8,46.1-59,46.4c-0.2,0.2-12.2,12.4-22.4,30c-9.4,16.2-5.1,24.1-5,24.2l0.2,0.5l0.1,0.6c1.2,6.6,4.8,23.1,11.3,33.8
			L492.8,1013.5z M381.1,884.5c2.3,4.2,5.1,8.7,7.9,13c1,1.7,2.2,3.5,3.3,5.1c19.3,31,45.4,59.6,81.9,89c-3.5-9.2-5.6-18.9-6.5-23.9
			c-1.2-2.4-4.6-12.4,5.3-29.5c10.6-18.2,22.8-30.6,23.4-31.2c0.1-0.1,22.3-23.9,60.1-47.3c37.5-23.2,105-60.9,105.7-61.4l0.2-0.1
			c-0.1-19.1-1.5-141.9-20.9-245.7c-22.7,14.3-67.5,44.3-109.4,76.8c-58.8,45.7-94.3,83.2-122.5,129.6c-30.5,50-32.2,73-31.2,95.9
			C378.5,861.4,379.6,877.5,381.1,884.5z"/>
		<g>
			<path class="st2" d="M385.7,905.2l-9.9-18.2c-39.9-73.2-55.3-153.2-44.6-231.5V655l0.1-0.3c12.2-28.9,38.5-76.8,72.5-116.1
				c67.2-77.6,178.3-103.1,190.7-105.8l1.9-0.5l1,1.6c11.4,16.9,21.6,36.6,30.5,58.6c6.4,15.9,12.2,34.6,17.1,55.3l0.5,2l-1.7,1.2
				c-5.8,3.6-58.6,37-111.9,78.5c-58.8,45.7-94.3,83.2-122.5,129.6c-29.1,47.8-32.1,78-31,103.6c0.2,5,1.2,15,2.8,22.2L385.7,905.2z
				 M336.9,656.5c-9.6,71.6,2.8,144.6,36.2,212.5c-0.2-2.3-0.3-4.4-0.5-6c-1.2-26.5,2-57.8,31.8-106.8
				c28.6-47.1,64.5-85.1,123.9-131.2C578.4,586,628,554.3,639,547.3c-4.8-19.6-10.2-37.3-16.3-52.5c-8.4-20.9-18.1-39.8-28.8-55.9
				c-7.9,1.9-36.3,8.8-70.2,23.5c-48.8,21-87.6,48-115.4,80.1C374.8,581,348.9,627.9,336.9,656.5z"/>
		</g>
	</g>
</g>
</svg>
