<?xml version="1.0" encoding="utf-8"?>
<!-- Generator: Adobe Illustrator 21.1.0, SVG Export Plug-In . SVG Version: 6.00 Build 0)  -->
<svg version="1.1" id="Warstwa_1" xmlns="http://www.w3.org/2000/svg" xmlns:xlink="http://www.w3.org/1999/xlink" x="0px" y="0px"
	 viewBox="0 0 1417.3 1417.3" style="enable-background:new 0 0 1417.3 1417.3;" xml:space="preserve">
<style type="text/css">
	.st0{clip-path:url(#SVGID_2_);}
	.st1{fill:#161616;}
	.st2{fill:none;stroke:#B1B1B1;stroke-width:1.125;stroke-miterlimit:10;}
	.st3{fill:#212121;}
	.st4{fill:#707070;}
	.st5{fill:#565656;}
	.st6{fill:#6B6B6B;}
	.st7{fill:#EFEFEF;}
	.st8{fill:#DBDBDB;}
</style>
<g id="badminton">
	<g>
		<g>
			<defs>
				<path id="SVGID_1_" d="M841.6,632.8c-122.1-78.3-155.7-241.6-40.8-393.2C915.7,88.1,1086.6,58.8,1210.6,149
					c111.8,81.2,97.7,271.8-11.7,389.6C1087,658.9,960.6,709.1,841.6,632.8z"/>
			</defs>
			<clipPath id="SVGID_2_">
				<use xlink:href="#SVGID_1_"  style="overflow:visible;"/>
			</clipPath>
			<g class="st0">
				<g>
					
						<rect x="1179.2" y="-170.1" transform="matrix(0.6042 -0.7968 0.7968 0.6042 309.3367 1019.1422)" class="st1" width="2.7" height="736.5"/>
					
						<rect x="1203.9" y="-202.7" transform="matrix(0.6042 -0.7968 0.7968 0.6042 345.17 1025.8877)" class="st1" width="2.7" height="736.4"/>
					<line class="st2" x1="936.6" y1="-89.5" x2="1523.4" y2="355.4"/>
					
						<rect x="1154.5" y="-137.5" transform="matrix(0.6042 -0.7968 0.7968 0.6042 273.5999 1012.369)" class="st1" width="2.7" height="736.5"/>
					
						<rect x="1129.8" y="-104.9" transform="matrix(0.6042 -0.7968 0.7968 0.6042 237.8832 1005.5053)" class="st1" width="2.7" height="736.5"/>
					
						<rect x="1105" y="-72.3" transform="matrix(0.6042 -0.7968 0.7968 0.6042 202.1588 998.6886)" class="st1" width="2.7" height="736.4"/>
					
						<rect x="1080.4" y="-39.8" transform="matrix(0.6042 -0.7968 0.7968 0.6042 166.4116 991.9601)" class="st1" width="2.7" height="736.5"/>
					
						<rect x="1055.7" y="-7.2" transform="matrix(0.6042 -0.7968 0.7968 0.6042 130.6777 985.1595)" class="st1" width="2.7" height="736.4"/>
					
						<rect x="1031" y="25.4" transform="matrix(0.6042 -0.7968 0.7968 0.6042 94.9419 978.3781)" class="st1" width="2.7" height="736.4"/>
					
						<rect x="1006.3" y="57.9" transform="matrix(0.6042 -0.7968 0.7968 0.6042 59.2181 971.5574)" class="st1" width="2.7" height="736.5"/>
					
						<rect x="981.6" y="90.5" transform="matrix(0.6042 -0.7968 0.7968 0.6042 23.4824 964.7841)" class="st1" width="2.7" height="736.5"/>
					
						<rect x="956.9" y="123.1" transform="matrix(0.6042 -0.7968 0.7968 0.6042 -12.2609 958.0146)" class="st1" width="2.7" height="736.5"/>
					
						<rect x="932.2" y="155.7" transform="matrix(0.6042 -0.7968 0.7968 0.6042 -47.9994 951.2419)" class="st1" width="2.7" height="736.5"/>
					
						<rect x="907.5" y="188.3" transform="matrix(0.6042 -0.7968 0.7968 0.6042 -83.7348 944.4703)" class="st1" width="2.7" height="736.5"/>
					
						<rect x="882.7" y="220.8" transform="matrix(0.6042 -0.7968 0.7968 0.6042 -119.4376 937.5966)" class="st1" width="2.7" height="736.5"/>
					
						<rect x="858.1" y="253.4" transform="matrix(0.6042 -0.7968 0.7968 0.6042 -155.1864 930.837)" class="st1" width="2.7" height="736.5"/>
					
						<rect x="833.3" y="286" transform="matrix(0.6042 -0.7968 0.7968 0.6042 -190.9104 924.0215)" class="st1" width="2.7" height="736.4"/>
					<line class="st2" x1="516.6" y1="464.3" x2="1103.4" y2="909.3"/>
				</g>
				<g>
					
						<rect x="821.4" y="547.1" transform="matrix(0.604 -0.797 0.797 0.604 33.9805 1165.3868)" class="st1" width="736.5" height="2.7"/>
					
						<rect x="855.4" y="572.8" transform="matrix(0.604 -0.797 0.797 0.604 26.9397 1202.6134)" class="st1" width="736.5" height="2.7"/>
					<line class="st2" x1="1480.1" y1="306.6" x2="1035.1" y2="893.4"/>
					<line class="st2" x1="1514" y1="332.4" x2="1069.1" y2="919.2"/>
					
						<rect x="787.4" y="521.4" transform="matrix(0.604 -0.797 0.797 0.604 41.0343 1128.068)" class="st1" width="736.5" height="2.7"/>
					
						<rect x="753.5" y="495.6" transform="matrix(0.604 -0.797 0.797 0.604 48.1751 1090.7769)" class="st1" width="736.5" height="2.7"/>
					
						<rect x="719.5" y="469.9" transform="matrix(0.604 -0.797 0.797 0.604 55.2166 1053.5482)" class="st1" width="736.5" height="2.7"/>
					
						<rect x="685.5" y="444.1" transform="matrix(0.604 -0.797 0.797 0.604 62.2734 1016.2291)" class="st1" width="736.5" height="2.7"/>
					
						<rect x="651.6" y="418.3" transform="matrix(0.604 -0.797 0.797 0.604 69.3947 979.0196)" class="st1" width="736.5" height="2.7"/>
					
						<rect x="617.6" y="392.6" transform="matrix(0.604 -0.797 0.797 0.604 76.4502 941.7041)" class="st1" width="736.5" height="2.7"/>
					
						<rect x="583.7" y="366.8" transform="matrix(0.604 -0.797 0.797 0.604 83.5316 904.4926)" class="st1" width="736.4" height="2.7"/>
					
						<rect x="549.7" y="341" transform="matrix(0.604 -0.797 0.797 0.604 90.633 867.1802)" class="st1" width="736.5" height="2.7"/>
					
						<rect x="515.7" y="315.3" transform="matrix(0.604 -0.797 0.797 0.604 97.6897 829.868)" class="st1" width="736.5" height="2.7"/>
					
						<rect x="481.7" y="289.6" transform="matrix(0.604 -0.797 0.797 0.604 104.7273 792.6368)" class="st1" width="736.5" height="2.7"/>
					
						<rect x="447.8" y="263.7" transform="matrix(0.604 -0.797 0.797 0.604 111.8692 755.3415)" class="st1" width="736.5" height="2.7"/>
					<line class="st2" x1="1004.5" y1="-54" x2="559.5" y2="532.8"/>
					<line class="st2" x1="970.5" y1="-79.8" x2="525.6" y2="507.1"/>
				</g>
			</g>
		</g>
	</g>
	<g>
		<g>
			<path class="st3" d="M818.7,201.1c118.8-127.7,301.6-151.4,407.6-52.9c105.9,98.6,95.5,282.6-23.3,410.3s-301.6,151.4-407.6,52.9
				C689.5,512.8,700,328.7,818.7,201.1z M833.2,214.5c-111.4,119.7-122.3,291.3-24.3,382.4s268.3,67.9,379.7-51.8
				c111.4-119.7,122.3-291.3,24.3-382.4C1114.9,71.5,944.6,94.7,833.2,214.5z"/>
		</g>
		<g>
			
				<rect x="266.2" y="827.7" transform="matrix(0.6811 -0.7322 0.7322 0.6811 -426.6883 695.4402)" class="st3" width="637.7" height="19.7"/>
		</g>
		<path class="st4" d="M755.7,569.8l30.7-11.5c11.2,30.1,31.7,49.1,62.7,58.3l-9.3,31.5c-14.6-4.3-27-11.1-38.4-19l-32.9,35.4
			l-24-22.3l32.9-35.4C768.7,595.9,761,584,755.7,569.8z"/>
		<g>
			<path class="st4" d="M169.4,1212.1l-22.2,23.9c0,0,6.9,19,28.4,42.1c15.3,16.5,43.8,25,43.8,25l22.2-23.9L460,1044.3l-72.1-67.1
				L169.4,1212.1z"/>
			<path class="st4" d="M450.5,966.2c-0.9,9,7,16.4,15.9,14.8l-6.4,63.3c0,0-20.4-6-41.5-27.4c-24.1-24.5-30.6-39.7-30.6-39.7
				L450.5,966.2z"/>
		</g>
		<path class="st5" d="M454.4,977.1l-281.5,298c0,0,16.1,19.2,46.4,27.9c29.3-31.5,240.7-258.8,240.7-258.8l6.4-63.3
			C466.4,981,458.6,982.6,454.4,977.1z"/>
	</g>
	<g>
		<path class="st6" d="M932.2,236.2c1.3,10.7-6.3,20.5-17,21.8s-20.5-6.3-21.8-17s0.4-23.6,16.6-25.5
			C927.2,213.3,930.8,225.5,932.2,236.2z"/>
		<path class="st7" d="M893.4,240.9l38.8-4.7l61.2,125.1c0,0-62.4,26-96.5,22.5c-40.7-4.2-40.4-6.5-40.4-6.5L893.4,240.9z"/>
		<polygon class="st8" points="915.1,242.1 955.5,374.6 974,368.6 988.7,363.1 993.4,361.3 933.2,238.4 922.6,238.6 		"/>
		<path class="st1" d="M893.1,237.4l-0.4,6c0,0,6,0.7,20.5-1c11.9-1.5,20.1-3.9,20.1-3.9l-1.5-5.7c0,0-9,2.7-19.2,4
			C901.3,238,893.1,237.4,893.1,237.4z"/>
	</g>
</g>
</svg>
