<?xml version="1.0" encoding="utf-8"?>
<!-- Generator: Adobe Illustrator 21.1.0, SVG Export Plug-In . SVG Version: 6.00 Build 0)  -->
<svg version="1.1" id="Warstwa_1" xmlns="http://www.w3.org/2000/svg" xmlns:xlink="http://www.w3.org/1999/xlink" x="0px" y="0px"
	 viewBox="0 0 1417.3 1417.3" style="enable-background:new 0 0 1417.3 1417.3;" xml:space="preserve">
<style type="text/css">
	.st0{clip-path:url(#SVGID_2_);fill:#999999;}
	.st1{clip-path:url(#SVGID_4_);fill:#333336;}
	.st2{clip-path:url(#SVGID_6_);fill:#333336;}
	.st3{clip-path:url(#SVGID_8_);fill:#333336;}
	.st4{clip-path:url(#SVGID_10_);fill:#333336;}
	.st5{opacity:0.15;clip-path:url(#SVGID_12_);enable-background:new    ;}
</style>
<g id="basketball">
	<g>
		<defs>
			
				<ellipse id="SVGID_1_" transform="matrix(0.8814 -0.4724 0.4724 0.8814 -248.5598 424.5137)" cx="721" cy="707.2" rx="404" ry="404"/>
		</defs>
		<clipPath id="SVGID_2_">
			<use xlink:href="#SVGID_1_"  style="overflow:visible;"/>
		</clipPath>
		<ellipse transform="matrix(0.5136 -0.858 0.858 0.5136 -256.0367 962.6152)" class="st0" cx="721" cy="707.1" rx="404" ry="404"/>
	</g>
	<g>
		<defs>
			
				<ellipse id="SVGID_3_" transform="matrix(0.5136 -0.858 0.858 0.5136 -256.0367 962.6152)" cx="721" cy="707.1" rx="404" ry="404"/>
		</defs>
		<clipPath id="SVGID_4_">
			<use xlink:href="#SVGID_3_"  style="overflow:visible;"/>
		</clipPath>
		<path class="st1" d="M678.6,1292.7c-90.7,0-181.7-25.4-263.6-74.4c-110.2-66-190.5-166.8-226.2-284.1
			c-17.4-57.1-23.2-114.9-17.3-171.9c6.1-59.1,24.5-114.7,54.8-165.2c30.3-50.6,70.6-93.1,119.8-126.3
			c47.5-32.1,101.2-54.3,159.7-65.9c120.2-23.9,247.1-0.8,357.3,65.2s190.5,166.8,226.2,284.1c17.4,57.1,23.2,114.9,17.4,171.9
			c-6.1,59.1-24.5,114.7-54.8,165.2c-30.3,50.6-70.6,93.1-119.8,126.3c-47.5,32.1-101.2,54.3-159.7,66
			C741.4,1289.7,710,1292.7,678.6,1292.7z M599.2,404.8c-149,0-288.9,69.2-365.3,196.9c-58.6,97.8-71.5,215.1-36.5,330
			c35.1,115.1,114,214.3,222.3,279.1c223.4,133.7,503.6,78.1,624.6-124.1l3.8,2.3l-3.8-2.3c121-202.1,37.7-475.4-185.8-609.1
			C776.1,428.4,686.1,404.8,599.2,404.8z"/>
	</g>
	<g>
		<defs>
			
				<ellipse id="SVGID_5_" transform="matrix(0.8813 -0.4725 0.4725 0.8813 -251.4874 411.6504)" cx="693.7" cy="706.5" rx="404" ry="404"/>
		</defs>
		<clipPath id="SVGID_6_">
			<use xlink:href="#SVGID_5_"  style="overflow:visible;"/>
		</clipPath>
		
			<rect x="186.7" y="726.4" transform="matrix(0.5135 -0.8581 0.8581 0.5135 -283.255 962.1356)" class="st2" width="1040.3" height="8.9"/>
	</g>
	<g>
		<defs>
			
				<ellipse id="SVGID_7_" transform="matrix(0.5136 -0.858 0.858 0.5136 -256.0367 962.6152)" cx="721" cy="707.1" rx="404" ry="404"/>
		</defs>
		<clipPath id="SVGID_8_">
			<use xlink:href="#SVGID_7_"  style="overflow:visible;"/>
		</clipPath>
		<path class="st3" d="M336.2,1040.2l-8.9-0.4c4.2-86.9,19-165.1,44-232.3c21.6-58.1,51.4-110,88.8-154.1
			c68.7-81.2,149.4-123.3,214.2-157.1c39-20.3,69.8-36.4,86.5-55.2c28.4-32,39.5-62.8,33-91.4c-11.9-52.4-79.4-81.3-80.1-81.6
			l3.4-8.2c2.9,1.2,72.4,30.9,85.3,87.8c7.2,31.6-4.6,64.9-35,99.2c-17.8,20.1-49.3,36.5-89.1,57.2
			C549.3,571.4,354.1,673.2,336.2,1040.2z"/>
	</g>
	<g>
		<defs>
			
				<ellipse id="SVGID_9_" transform="matrix(0.5136 -0.858 0.858 0.5136 -256.0367 962.6152)" cx="721" cy="707.1" rx="404" ry="404"/>
		</defs>
		<clipPath id="SVGID_10_">
			<use xlink:href="#SVGID_9_"  style="overflow:visible;"/>
		</clipPath>
		<path class="st4" d="M614,1211.3l-4.6-7.6c315-189.2,312.5-409.3,310.8-554.9c-0.5-44.9-0.9-80.3,8.4-105.5
			c15.8-43,39.7-69.2,70.9-77.8c56.3-15.4,115.2,31.7,117.7,33.7l-5.6,6.9c-0.6-0.5-57.9-46.3-109.8-32.1
			c-28.3,7.8-50.1,32.1-64.9,72.3c-8.7,23.7-8.3,58.4-7.8,102.4c0.8,73.1,1.9,164.1-37.2,263c-21.3,53.8-52.9,104.7-93.9,151.1
			C750.5,1116.5,688.6,1166.5,614,1211.3z"/>
	</g>
	<g>
		<defs>
			
				<ellipse id="SVGID_11_" transform="matrix(0.5136 -0.858 0.858 0.5136 -256.0367 962.6152)" cx="721" cy="707.1" rx="404" ry="404"/>
		</defs>
		<clipPath id="SVGID_12_">
			<use xlink:href="#SVGID_11_"  style="overflow:visible;"/>
		</clipPath>
		<path class="st5" d="M1121.3,653.1c-7.1,38.4-21,76.3-42.3,111.9c-95.5,159.6-302.4,211.5-462,116S405.4,578.6,501,419
			c21.3-35.5,48.1-65.7,78.6-90.1c-82.8,30.9-156.2,89-205.1,170.8c-114.6,191.4-52.3,439.5,139.2,554.1
			c191.4,114.6,439.5,52.3,554.1-139.1C1116.6,832.8,1133.2,740.7,1121.3,653.1z"/>
	</g>
</g>
</svg>
