<svg id="Warstwa_1" data-name="Warstwa 1" xmlns="http://www.w3.org/2000/svg" viewBox="0 0 1417.29 1417.29"><defs><style>.cls-1{fill:#3a3a3a;}.cls-2{fill:none;stroke:#000;stroke-miterlimit:10;}.cls-3{fill:#4d4d4d;}.cls-4{fill:#a3a3a3;}.cls-5{fill:#292929;opacity:0.1;isolation:isolate;}.cls-6{fill:#5e5e5e;}.cls-7{fill:#424242;}.cls-8{fill:#303030;}</style></defs><title>cycling2Obszar roboczy 1</title><path class="cls-1" d="M308.76,713.17c-114.47,0-207.25,92.8-207.25,207.26s92.78,207.26,207.25,207.26S516,1034.9,516,920.43,423.23,713.17,308.76,713.17Zm0,389.19c-100.48,0-181.94-81.45-181.94-181.93S208.29,738.5,308.76,738.5a181.93,181.93,0,0,1,182,181.9c0,100.47-81.42,181.94-181.9,182Z"/><line class="cls-2" x1="1108.53" y1="770.45" x2="1108.53" y2="937.74"/><line class="cls-2" x1="1089.45" y1="771.66" x2="1110.64" y2="937.61"/><line class="cls-2" x1="1070.96" y1="775.22" x2="1112.81" y2="937.19"/><line class="cls-2" x1="1053.31" y1="780.96" x2="1114.91" y2="936.5"/><line class="cls-2" x1="1036.72" y1="788.74" x2="1116.87" y2="935.59"/><line class="cls-2" x1="1021.37" y1="798.38" x2="1118.64" y2="934.48"/><line class="cls-2" x1="1007.35" y1="809.72" x2="1120.21" y2="933.2"/><line class="cls-2" x1="994.83" y1="822.63" x2="1121.63" y2="931.75"/><line class="cls-2" x1="983.9" y1="836.99" x2="1122.87" y2="930.12"/><line class="cls-2" x1="974.71" y1="852.67" x2="1123.93" y2="928.3"/><line class="cls-2" x1="967.43" y1="869.54" x2="1124.8" y2="926.3"/><line class="cls-2" x1="962.21" y1="887.42" x2="1125.42" y2="924.17"/><line class="cls-2" x1="959.22" y1="906.09" x2="1125.77" y2="922"/><line class="cls-2" x1="958.63" y1="925.24" x2="1125.82" y2="919.92"/><line class="cls-2" x1="960.43" y1="944.19" x2="1125.63" y2="917.78"/><line class="cls-2" x1="964.54" y1="962.49" x2="1125.14" y2="915.61"/><line class="cls-2" x1="970.82" y1="979.89" x2="1124.39" y2="913.54"/><line class="cls-2" x1="979.08" y1="996.19" x2="1123.43" y2="911.63"/><line class="cls-2" x1="989.15" y1="1011.23" x2="1122.27" y2="909.91"/><line class="cls-2" x1="1000.9" y1="1024.88" x2="1120.94" y2="908.37"/><line class="cls-2" x1="1014.18" y1="1037.02" x2="1119.44" y2="907"/><line class="cls-2" x1="1028.89" y1="1047.53" x2="1117.78" y2="905.8"/><line class="cls-2" x1="1044.88" y1="1056.25" x2="1115.91" y2="904.79"/><line class="cls-2" x1="1062.02" y1="1063.04" x2="1113.88" y2="903.98"/><line class="cls-2" x1="1080.12" y1="1067.71" x2="1111.72" y2="903.43"/><line class="cls-2" x1="1098.93" y1="1070.1" x2="1109.56" y2="903.15"/><line class="cls-2" x1="1118.12" y1="1070.1" x2="1107.49" y2="903.15"/><line class="cls-2" x1="1136.93" y1="1067.71" x2="1105.32" y2="903.43"/><line class="cls-2" x1="1155.03" y1="1063.04" x2="1103.18" y2="903.98"/><line class="cls-2" x1="1172.17" y1="1056.25" x2="1101.14" y2="904.79"/><line class="cls-2" x1="1188.17" y1="1047.53" x2="1099.28" y2="905.8"/><line class="cls-2" x1="1202.87" y1="1037.02" x2="1097.59" y2="907"/><line class="cls-2" x1="1216.16" y1="1024.88" x2="1096.1" y2="908.37"/><line class="cls-2" x1="1227.9" y1="1011.23" x2="1094.78" y2="909.91"/><line class="cls-2" x1="1237.97" y1="996.19" x2="1093.63" y2="911.63"/><line class="cls-2" x1="1246.22" y1="979.89" x2="1092.66" y2="913.54"/><line class="cls-2" x1="1252.51" y1="962.49" x2="1091.92" y2="915.61"/><line class="cls-2" x1="1256.62" y1="944.19" x2="1091.43" y2="917.78"/><line class="cls-2" x1="1258.43" y1="925.24" x2="1091.21" y2="919.92"/><line class="cls-2" x1="1257.81" y1="906.09" x2="1091.29" y2="922"/><line class="cls-2" x1="1254.83" y1="887.42" x2="1091.64" y2="924.17"/><line class="cls-2" x1="1249.63" y1="869.54" x2="1092.26" y2="926.3"/><line class="cls-2" x1="1242.33" y1="852.67" x2="1093.12" y2="928.3"/><line class="cls-2" x1="1233.16" y1="836.99" x2="1094.18" y2="930.12"/><line class="cls-2" x1="1222.22" y1="822.63" x2="1095.43" y2="931.75"/><line class="cls-2" x1="1209.69" y1="809.72" x2="1096.83" y2="933.2"/><line class="cls-2" x1="1195.68" y1="798.38" x2="1098.42" y2="934.48"/><line class="cls-2" x1="1180.31" y1="788.74" x2="1100.18" y2="935.59"/><line class="cls-2" x1="1163.74" y1="780.96" x2="1102.14" y2="936.5"/><line class="cls-2" x1="1146.08" y1="775.22" x2="1104.25" y2="937.19"/><line class="cls-2" x1="1127.59" y1="771.66" x2="1106.42" y2="937.61"/><line class="cls-2" x1="1108.53" y1="770.45" x2="1108.53" y2="937.74"/><line class="cls-2" x1="308.76" y1="770.45" x2="308.76" y2="937.74"/><line class="cls-2" x1="289.7" y1="771.66" x2="310.87" y2="937.61"/><line class="cls-2" x1="271.2" y1="775.22" x2="313.04" y2="937.19"/><line class="cls-2" x1="253.56" y1="780.96" x2="315.15" y2="936.5"/><line class="cls-2" x1="236.97" y1="788.74" x2="317.1" y2="935.59"/><line class="cls-2" x1="221.6" y1="798.38" x2="318.87" y2="934.48"/><line class="cls-2" x1="207.59" y1="809.72" x2="320.46" y2="933.2"/><line class="cls-2" x1="195.06" y1="822.63" x2="321.87" y2="931.75"/><line class="cls-2" x1="184.14" y1="836.99" x2="323.1" y2="930.12"/><line class="cls-2" x1="174.95" y1="852.67" x2="324.17" y2="928.3"/><line class="cls-2" x1="167.67" y1="869.54" x2="325.03" y2="926.3"/><line class="cls-2" x1="162.45" y1="887.42" x2="325.66" y2="924.17"/><line class="cls-2" x1="159.47" y1="906.09" x2="326" y2="922"/><line class="cls-2" x1="158.86" y1="925.24" x2="326.07" y2="919.92"/><line class="cls-2" x1="160.67" y1="944.19" x2="325.85" y2="917.78"/><line class="cls-2" x1="164.79" y1="962.49" x2="325.38" y2="915.61"/><line class="cls-2" x1="171.06" y1="979.89" x2="324.63" y2="913.54"/><line class="cls-2" x1="179.32" y1="996.19" x2="323.66" y2="911.63"/><line class="cls-2" x1="189.39" y1="1011.23" x2="322.51" y2="909.91"/><line class="cls-2" x1="201.14" y1="1024.88" x2="321.19" y2="908.37"/><line class="cls-2" x1="214.42" y1="1037.02" x2="319.69" y2="907"/><line class="cls-2" x1="229.12" y1="1047.53" x2="318.01" y2="905.8"/><line class="cls-2" x1="245.12" y1="1056.25" x2="316.15" y2="904.79"/><line class="cls-2" x1="262.26" y1="1063.04" x2="314.1" y2="903.98"/><line class="cls-2" x1="280.35" y1="1067.71" x2="311.96" y2="903.43"/><line class="cls-2" x1="299.18" y1="1070.1" x2="309.79" y2="903.15"/><line class="cls-2" x1="318.35" y1="1070.1" x2="307.73" y2="903.15"/><line class="cls-2" x1="337.17" y1="1067.71" x2="305.57" y2="903.43"/><line class="cls-2" x1="355.26" y1="1063.04" x2="303.42" y2="903.98"/><line class="cls-2" x1="372.41" y1="1056.25" x2="301.38" y2="904.79"/><line class="cls-2" x1="388.41" y1="1047.53" x2="299.51" y2="905.8"/><line class="cls-2" x1="403.1" y1="1037.02" x2="297.84" y2="907"/><line class="cls-2" x1="416.39" y1="1024.88" x2="296.35" y2="908.37"/><line class="cls-2" x1="428.14" y1="1011.23" x2="295.01" y2="909.91"/><line class="cls-2" x1="438.22" y1="996.19" x2="293.87" y2="911.63"/><line class="cls-2" x1="446.47" y1="979.89" x2="292.9" y2="913.54"/><line class="cls-2" x1="452.74" y1="962.49" x2="292.15" y2="915.61"/><line class="cls-2" x1="456.85" y1="944.19" x2="291.67" y2="917.78"/><line class="cls-2" x1="458.67" y1="925.24" x2="291.46" y2="919.92"/><line class="cls-2" x1="458.06" y1="906.09" x2="291.53" y2="922"/><line class="cls-2" x1="455.07" y1="887.42" x2="291.88" y2="924.17"/><line class="cls-2" x1="449.87" y1="869.54" x2="292.5" y2="926.3"/><line class="cls-2" x1="442.57" y1="852.67" x2="293.35" y2="928.3"/><line class="cls-2" x1="433.4" y1="836.99" x2="294.42" y2="930.12"/><line class="cls-2" x1="422.47" y1="822.63" x2="295.66" y2="931.75"/><line class="cls-2" x1="409.94" y1="809.72" x2="297.07" y2="933.2"/><line class="cls-2" x1="395.93" y1="798.38" x2="298.66" y2="934.48"/><line class="cls-2" x1="380.56" y1="788.74" x2="300.43" y2="935.59"/><line class="cls-2" x1="363.97" y1="780.96" x2="302.38" y2="936.5"/><line class="cls-2" x1="346.32" y1="775.22" x2="304.48" y2="937.19"/><line class="cls-2" x1="327.84" y1="771.66" x2="306.66" y2="937.61"/><line class="cls-2" x1="308.76" y1="770.45" x2="308.76" y2="937.74"/><path class="cls-3" d="M308.76,684.32c-130.39,0-236.1,105.68-236.1,236.11s105.71,236.11,236.11,236.11,236.11-105.71,236.11-236.11S439.17,684.32,308.76,684.32Zm0,443.37c-114.47,0-207.25-92.79-207.25-207.26S194.3,713.17,308.76,713.17,516,806,516,920.43,423.23,1127.69,308.76,1127.69Z"/><path class="cls-3" d="M1108.53,684.32c-130.4,0-236.11,105.71-236.11,236.11s105.71,236.11,236.11,236.11,236.11-105.71,236.11-236.11S1238.93,684.32,1108.53,684.32Zm0,443.37c-114.47,0-207.26-92.79-207.26-207.26s92.79-207.26,207.26-207.26,207.26,92.8,207.26,207.26S1223,1127.69,1108.53,1127.69Z"/><path class="cls-1" d="M1108.53,713.17c-114.47,0-207.26,92.8-207.26,207.26s92.79,207.26,207.26,207.26,207.26-92.79,207.26-207.26S1223,713.17,1108.53,713.17Zm0,389.19a181.93,181.93,0,1,1,181.92-181.93h0C1290.45,1020.91,1209,1102.36,1108.53,1102.36Z"/><circle class="cls-4" cx="1108.53" cy="920.43" r="37.78"/><path class="cls-5" d="M1128.88,900.08a28.79,28.79,0,0,1-40.71,40.71Z"/><path class="cls-6" d="M850.15,383.48l-36.59,18.87,69.32,134.47H527l-28.62-55.53-36.59,18.87,27,52.43-163,282.28H373.4L511.26,596.09,688.19,939.28,704,931.1l15.63,9L915.72,600.54l144,279.37A63.41,63.41,0,0,1,1095,858.48ZM881.21,578,705.32,882.65,548.26,578Z"/><rect class="cls-4" x="308.76" y="903.33" width="403.49" height="51.46"/><rect class="cls-5" x="308.76" y="929.06" width="403.49" height="25.73"/><rect class="cls-1" x="308.76" y="846.59" width="399.25" height="15.85"/><rect class="cls-1" x="308.76" y="978.42" width="399.25" height="15.85"/><path class="cls-4" d="M708,846.59a73.84,73.84,0,1,0,73.83,73.85A73.84,73.84,0,0,0,708,846.59Z"/><circle class="cls-4" cx="308.76" cy="920.43" r="73.84"/><path class="cls-5" d="M353.24,876a62.89,62.89,0,1,1-87.07,90.78c-.64-.61-1.26-1.24-1.88-1.88Z"/><rect class="cls-1" x="697.64" y="773.77" width="21.03" height="121.64" rx="10.51"/><rect class="cls-1" x="697.64" y="928.28" width="21.03" height="121.64" rx="10.51"/><rect class="cls-4" x="662.35" y="756.48" width="92.97" height="33.39" rx="11.78"/><rect class="cls-4" x="662.35" y="1033.22" width="92.97" height="33.39" rx="11.78"/><path class="cls-5" d="M743.53,789.87H674.15a11.79,11.79,0,0,1-11.79-11.79h93a11.79,11.79,0,0,1-11.79,11.79Z"/><path class="cls-5" d="M743.53,1066.61H674.15a11.77,11.77,0,0,1-11.79-11.77h93a11.78,11.78,0,0,1-11.78,11.78Z"/><path class="cls-3" d="M708,955.05a34.62,34.62,0,1,1,34.63-34.61h0A34.62,34.62,0,0,1,708,955.05Z"/><path class="cls-1" d="M388.23,511.59H576.91a21.85,21.85,0,0,0,21.85-21.83h0a21.85,21.85,0,0,0-17-21.28L402.38,427.23a21.84,21.84,0,0,0-26.18,16.39l0,.11L366.93,485a21.84,21.84,0,0,0,21.3,26.59Z"/><path class="cls-7" d="M433.72,439.78l-27.38-6.29a21.84,21.84,0,0,0-26.18,16.39l0,.11Z"/><path class="cls-8" d="M581.81,468.48c14,25-15.38,30.18-15.38,30.18H400c-27.72,0-32.86-11.84-33.21-12.72a21.82,21.82,0,0,0,17.63,25.31,21.47,21.47,0,0,0,3.83.34H576.91a21.83,21.83,0,0,0,4.9-43.11Z"/><path class="cls-1" d="M951.27,260.75h-.7a12.87,12.87,0,0,0,0,25.74h.7a45,45,0,1,1,3,89.95c-1,0-2,0-3,0H768.59a12.87,12.87,0,0,0,0,25.73H951.27a70.71,70.71,0,1,0,0-141.42"/><path class="cls-8" d="M1022,331.46c0,24.84-25.49,57.48-70.72,57.53H790.6l-34.88.31a12.88,12.88,0,0,0,12.86,12.87H951.27A70.72,70.72,0,0,0,1022,331.48v0"/><polygon class="cls-3" points="373.39 834.87 511.26 596.09 501.94 577.99 352.88 834.87 373.39 834.87"/><polygon class="cls-3" points="548.25 577.99 535.2 554.66 894.49 554.66 881.21 577.99 548.25 577.99"/><circle class="cls-7" cx="949.08" cy="269.1" r="5.74"/></svg>