<svg id="Warstwa_1" data-name="Warstwa 1" xmlns="http://www.w3.org/2000/svg" viewBox="0 0 1417.29 1417.29"><defs><style>.cls-1{fill:#a3a3a3;}.cls-2,.cls-5{fill:#292929;}.cls-3{fill:none;stroke:#292929;stroke-miterlimit:10;}.cls-4{opacity:0.2;}.cls-5{opacity:0.1;isolation:isolate;}</style></defs><title>indoor2Obszar roboczy 1</title><g id="soccer"><path class="cls-1" d="M328.33,542.8c95.55-201.06,343.28-289.92,553.32-198.45S1184.51,673,1089,874s-343.27,289.92-553.31,198.46S232.79,743.88,328.33,542.8Z"/><polygon class="cls-2" points="790.94 714.01 589.2 695.49 589.58 691.92 791.31 710.45 790.94 714.01 790.94 714.01"/><path class="cls-2" d="M898.73,589.56h0l-3.62.91a627.09,627.09,0,0,0-21.37-61.79h0c-14.07-35.08-25.15-59.19-52.22-92.47l1.94-4.07,1.41,1.07C883.09,499,898.68,589.46,898.73,589.56Z"/><path class="cls-2" d="M645.4,420.63c-47.06,34.4-64.19,59.88-86.6,89.83h0c-22.43,29.94-33,51.14-33,51.19h0l-3.38-1.53c.09-.15,25.89-73,120.75-142.34Z"/><path class="cls-2" d="M863.17,865.71c-36.11,75.92-114.94,136-115,136.08h0L745.8,999a467.87,467.87,0,0,0,43.63-39.27h0c24.06-24.33,52.57-58.07,70.33-95.48h0c2.54-5.35-1.43,4.16.63-1.32l3.53,1.21c-2.1,5.59,1.83-3.82-.75,1.59Z"/><path class="cls-2" d="M542.25,925.39a521.32,521.32,0,0,0,38,55.77h0l-3,2.18c0-.13-74.07-91.32-84.11-175.12h0l3.72-.4c4.88,41.09,25.7,84.51,45.34,117.57Z"/><path class="cls-2" d="M1087.56,590.66c-24,50.49-56.61,70.76-56.74,70.85h0l-2-3s1.3-.58,15.71-13.9h0c14.39-13.31,29.79-29.92,41.53-54.62Z"/><path class="cls-2" d="M386.86,569.89c9.29,15.75,17.56,23.63,17.58,23.64h0l-2.64,2.55c-.17-.18-33.37-31.43-40.88-94.27l1-.49c3.68,30.86,15.63,52.85,24.93,68.57Z"/><path class="cls-2" d="M379.27,742.2c0,.07-28.62,28.82-51,76h0a91.73,91.73,0,0,1-4.73,8.79l-.74-1a86.14,86.14,0,0,1,3.77-8.58h0C349.08,770,377.87,741,377.92,741h0l1.35,1.24Z"/><path class="cls-2" d="M1050.55,919l-3.72.36c-1.19-11.72-12.43-35.3-23.39-55.55h0C1012.51,843.54,1007,835,1007,835l3.22-1.82c0,.17,37.52,60.15,40.38,85.9Z"/><path class="cls-2" d="M983.24,1011.26c-106.38,72-198.7,62.46-198.84,62.45h0l.21-1.78s22.86,2.39,59-4.18h0c36.17-6.56,85.57-22.09,138.51-58h0l1.1,1.46Z"/><path class="cls-2" d="M528.05,1041.55s-84.28-22.85-153.38-92.3c0,0,66.47,69.56,152.56,94.59Z"/><path class="cls-2" d="M622.3,350.5s-32.72-15.73-82.27-8.13c0,0,33-11.93,85.54.8l-5.89,2.91Z"/><path class="cls-2" d="M868.65,376.76s43.58,1.57,110.7,26.86c0,0-64.94-27.72-112.41-31.67l3,3.06Z"/><path class="cls-2" d="M786.87,1072.21c-2.86,1.44-5.77,2.9-8.69,4.33-1.47.7-2.93,1.45-4.39,2.09l-4.39,1.79c-2.93,1.17-5.83,2.45-8.8,3.54l-9,3.12a316.77,316.77,0,0,1-36.6,9.76q-18.57,3.79-37.43,5.84c-3.14.3-6.28.63-9.43.9s-6.3.51-9.45.66c-6.31.39-12.62.6-19,.58h-.14c-5.13-1.66-10.3-3.22-15.41-5l-7.6-2.76-3.81-1.39c-1.26-.48-2.5-1-3.75-1.52l-7.49-3.07c-2.5-1-4.92-2.21-7.39-3.31-5-2.16-9.72-4.68-14.55-7.09A280.64,280.64,0,0,1,551.92,1064c-2.21-1.55-4.45-3.07-6.59-4.72l-3.24-2.43-3.16-2.53a133.56,133.56,0,0,1-12.07-10.86h0l-.29-.3.27-.35,49.55-62.42h0l.69-.85,1,.33a347.37,347.37,0,0,0,41.59,9.93c14.09,2.39,28.28,4.16,42.51,5.5s28.54,2.08,42.84,2.53,28.64.53,42.9.09h1l.43.84Zm-1-.3-39.25-71.74,1.42.82h0c-14.4.46-28.75.35-43.11-.06s-28.71-1.26-43-2.5-28.58-3.11-42.78-5.5a351.73,351.73,0,0,1-42-10l1.74-.52h0l-51.27,61v-.65h0a133,133,0,0,0,12,10.76l3.14,2.51,3.23,2.42c2.13,1.65,4.35,3.16,6.55,4.7a280.29,280.29,0,0,0,27.63,16.64c4.82,2.41,9.57,4.92,14.51,7.07,2.46,1.1,4.87,2.28,7.36,3.31l7.47,3c1.25.51,2.49,1,3.74,1.52l3.79,1.38,7.59,2.76c5.09,1.73,10.25,3.29,15.37,4.94h-.13q9.42,0,18.87-.57c3.15-.16,6.28-.45,9.43-.67s6.27-.6,9.4-.89q18.79-2,37.34-5.83a316.89,316.89,0,0,0,36.49-9.73l8.92-3.11c3-1.09,5.83-2.35,8.76-3.52l4.37-1.79c1.43-.62,2.77-1.31,4.16-2,2.71-1.2,5.49-2.47,8.31-3.75Z"/><path class="cls-2" d="M860.46,868.9a3.89,3.89,0,0,1-.76-1l-.19-.47-.26-.62-.5-1.24-1-2.47-2-5-4.12-9.89-8.35-19.75q-8.43-19.71-17.17-39.28c-5.86-13-11.85-26-18.14-38.8-3.15-6.4-6.38-12.76-9.77-19a158.76,158.76,0,0,0-11.06-18l-1-1.36,1.14-1.22q28.08-30.16,55.38-61.07,13.61-15.47,26.84-31.24l6.53-8c2.17-2.66,4.27-5.37,6.4-8,1.08-1.34,2.11-2.7,3.13-4.07l3.07-4.1c1-1.35,2-2.75,3-4.15l2.88-4.2.83-1.21,1.35.36h0c12.7,3.55,25,7.85,37.26,12.6s24.18,10.09,35.86,16q8.76,4.46,17.25,9.42t16.61,10.53q8.08,5.61,15.7,11.86a189.6,189.6,0,0,1,14.3,13.47h0l.25.25v.35a290.18,290.18,0,0,1,2.15,44.59,365.32,365.32,0,0,1-3.58,44.44c-.27,1.84-.44,3.7-.78,5.53l-1,5.49-.94,5.5-.48,2.75c-.17.91-.38,1.82-.57,2.72l-2.36,10.91c-.2.91-.38,1.82-.6,2.72l-.71,2.7-1.42,5.39-1.42,5.39-.71,2.7-.83,2.66-3.36,10.64c-1,3.57-2.42,7-3.7,10.52l-3.89,10.46-.15.42-.44.16h0c-11.87,4.48-23.84,8.55-35.9,12.4s-24.23,7.38-36.5,10.54-24.66,5.92-37.2,8c-6.26,1-12.58,1.88-18.93,2.44-3.17.31-6.36.48-9.56.61h-4.89A57,57,0,0,1,860.46,868.9Zm2.3-3.27a23.85,23.85,0,0,1,3.68-.22H871c3.12-.09,6.25-.21,9.37-.48q9.36-.7,18.68-2.16c12.43-1.89,24.77-4.49,37-7.47s24.41-6.37,36.48-10,24.08-7.6,35.92-11.9h0l-.59.58,3.85-10.39c1.27-3.48,2.64-6.91,3.67-10.47l3.33-10.58.83-2.64.7-2.68,1.41-5.37,1.4-5.36.71-2.68c.21-.9.39-1.81.59-2.71l2.33-10.84c.19-.91.4-1.81.57-2.72l.47-2.73.94-5.47.93-5.46c.34-1.82.51-3.66.77-5.49a365,365,0,0,0,3.53-44.19,288.92,288.92,0,0,0-2.17-44.2l.3.6h0a189,189,0,0,0-14.36-13.07Q1010.1,641.44,1002,636t-16.55-10.24c-5.64-3.24-11.38-6.26-17.19-9.14q-17.49-8.61-35.75-15.47c-12.14-4.58-24.52-8.73-37-12.06h0l2.19-.86-3,4.31c-1,1.44-2,2.88-3,4.25l-3.12,4.15c-1,1.39-2.07,2.76-3.15,4.11-2.15,2.69-4.27,5.42-6.45,8.1l-6.56,8Q859.21,637,845.55,652.48q-27.33,31-55.47,61.15l.13-2.58a158.28,158.28,0,0,1,11.4,18.51c3.43,6.32,6.68,12.72,9.85,19.15,6.33,12.87,12.32,25.88,18.19,38.93s11.59,26.19,17.21,39.35l8.36,19.77,4.12,9.91,2,5,1,2.49.51,1.24.25.62.06.16h0A1,1,0,0,0,862.76,865.63Z"/><path class="cls-2" d="M824,439.5a3.06,3.06,0,0,1-1,.05,2.64,2.64,0,0,1-.49-.08l-.24-.06h-.06l-.33-.11-.67-.22-1.34-.43-2.71-.85-5.43-1.63q-5.44-1.59-10.94-3-11-2.93-22.07-5.38Q756.53,422.86,734,420q-11.26-1.36-22.6-2.12c-7.55-.45-15.11-.69-22.67-.62s-15.1.49-22.61,1.27a202.37,202.37,0,0,0-22.29,3.71h0l-1.79.37-.15-1.77a191.17,191.17,0,0,0-2.78-19.34q-1.86-9.61-4.59-19.06A173.28,173.28,0,0,0,628,364l-2-4.5c-.67-1.49-1.43-2.94-2.14-4.41l-1.09-2.21c-.37-.72-.79-1.42-1.19-2.14l-2.41-4.27h0l-.28-.47.47-.23c10.21-5.15,20.66-9.75,31.25-14s21.37-8.09,32.3-11.4c5.47-1.63,11-3.14,16.54-4.46s11.16-2.46,16.81-3.34a171.24,171.24,0,0,1,17.06-1.79,111.77,111.77,0,0,1,17.16.5l4.27.58c1.42.26,2.82.56,4.21.9,2.79.67,5.56,1.41,8.29,2.22l2.06.6,2,.67,4.08,1.33c2.68,1,5.39,1.91,8,3,5.32,2.07,10.56,4.36,15.74,6.77L807,331l7.55,4.05,1.89,1,1.84,1.08,3.7,2.18c2.46,1.45,4.93,2.87,7.31,4.46l7.19,4.65c2.37,1.6,4.67,3.29,7,4.93,4.73,3.21,9.14,6.84,13.68,10.31l1.69,1.31,1.64,1.39,3.26,2.77,6.53,5.55h0l.36.29-.3.4c-7.85,10.31-15.44,20.83-23,31.39q-5.64,7.92-11.17,15.91l-5.53,8-1.53,2.19c-.54.76-1.09,1.52-1.66,2.27C826.38,436.6,825.21,438.07,824,439.5Zm-1.42-4.38c.72-1.21,1.44-2.37,2.21-3.5.38-.56.77-1.12,1.18-1.68l1.31-1.75,5.9-7.74q5.93-7.74,11.92-15.41c8-10.22,16.08-20.38,24.42-30.34l.06.69h0l-6.5-5.54-3.26-2.76-1.63-1.38-1.68-1.31c-4.53-3.45-8.93-7.08-13.64-10.28-2.33-1.63-4.63-3.31-7-4.91l-7.18-4.63c-2.36-1.59-4.83-3-7.28-4.45L817.78,338l-1.84-1.08-1.88-1-7.53-4-7.67-3.75c-5.16-2.41-10.37-4.69-15.67-6.75-2.64-1.07-5.34-2-8-3l-4-1.33-2-.66-2-.6c-2.73-.82-5.47-1.56-8.24-2.21-1.38-.33-2.77-.63-4.15-.88l-4.21-.58a111,111,0,0,0-17-.49,170,170,0,0,0-17,1.78c-5.62.87-11.2,2-16.74,3.32s-11,2.83-16.48,4.45c-10.9,3.3-21.64,7.12-32.21,11.37s-21,8.85-31.17,14l.19-.71h0l2.55,4.24c.42.71.86,1.41,1.26,2.13l1.16,2.19c.75,1.47,1.56,2.91,2.28,4.4l2.09,4.49a172.43,172.43,0,0,1,7.07,18.51q3,9.44,5.17,19.13a196.64,196.64,0,0,1,3.36,19.6l-1.94-1.4h0a202.34,202.34,0,0,1,22.66-4c7.62-.85,15.28-1.29,22.93-1.47s15.3.05,22.94.44,15.25,1.11,22.84,2q22.77,2.67,45.2,7.49,11.21,2.39,22.3,5.25c3.69,1,7.39,1.94,11.06,3l5.51,1.61,2.75.83,1.37.43.69.22.35.11h-.47a1.46,1.46,0,0,0-.69,0Z"/><path class="cls-2" d="M499.22,822.3S570.49,730,603.74,694.62c0,0-50.15-99.24-70-149.85,0,0-110.07,12.42-137.44,41.18,0,0-41.11,77.88-27.11,166.64C369.24,752.59,411.05,808.83,499.22,822.3Z"/><path class="cls-1" d="M495.91,813.76s67.72-87.68,99.31-121.28c0,0-47.65-94.3-66.47-142.37,0,0-104.57,11.8-130.57,39.11,0,0-39.05,74-25.75,158.3C372.43,747.52,412.15,801,495.91,813.76Z"/><path class="cls-3" d="M968.12,1023.66a365.82,365.82,0,0,0,122.1-149.1c.27-.61.55-1.22.83-1.83-12.76,13.86-31.71,32.56-46.28,38.88C1044.77,911.61,1010.32,984.06,968.12,1023.66Z"/><path class="cls-3" d="M1086.58,590a277.06,277.06,0,0,1,33,46.17c-15.7-81-54.5-153.95-117.26-212.35C1032.69,458.81,1080.9,522.4,1086.58,590Z"/><path class="cls-3" d="M424.17,415.34c-36.32,32.87-70.73,77.09-93.54,122.7,9.85-11.72,19.44-31.53,31.3-36.72C361.93,501.32,389.85,461,424.17,415.34Z"/><path class="cls-3" d="M323.49,825.81c-21.4-20.86-28.84-67.29-32.44-102.16,3.29,81.27,34.26,161.84,84.95,226.9C344.67,898.71,323.49,825.81,323.49,825.81Z"/><g class="cls-4"><path class="cls-2" d="M529.27,543.47s-96.8,9-131.26,38.28"/></g><path class="cls-5" d="M842.28,1088.71c140.13-44.73,241.81-158.72,269.48-275-40.45,49.12-94,87.72-150.17,105.64C723,995.58,459.24,966.51,372.81,723.65c-10.36-29.13-19-196.12-23.52-225.35C294.63,595.52,270.1,724.1,313,840.77,389.55,1049.3,630.21,1156.41,842.28,1088.71Z"/></g></svg>