<?xml version="1.0" encoding="utf-8"?>
<!-- Generator: Adobe Illustrator 21.1.0, SVG Export Plug-In . SVG Version: 6.00 Build 0)  -->
<svg version="1.1" id="Warstwa_1" xmlns="http://www.w3.org/2000/svg" xmlns:xlink="http://www.w3.org/1999/xlink" x="0px" y="0px"
	 viewBox="0 0 1417.3 1417.3" style="enable-background:new 0 0 1417.3 1417.3;" xml:space="preserve">
<style type="text/css">
	.st0{fill:#636363;}
	.st1{fill:#707070;}
	.st2{fill:#757575;}
	.st3{fill:#5E5E5E;}
	.st4{fill:#999999;}
	.st5{fill:#ADADAD;}
	.st6{fill:#7C7C7C;}
</style>
<g id="pingpong">
	<path class="st0" d="M468.7,728.9c27.8-13.3,88.8,37.1,110.9,49.9c25.8,14.9,52.7,28.2,77.2,45.3c30.4,21.1,59.4,46.1,85.3,72.5
		c8.2,8.4,42.5,39.6,32.1,53.9c-6.7,9.1-59.6-4.7-72.8-5c-36.3-0.7-61.5,6.8-92.9,22.8c-34.3,17.4-93.4-37-91.5-70.6
		c1.8-32.2-14.4-53-24.4-83c-7.1-21.2-18.3-38.3-25.6-59.7C463.1,743.3,455.1,735.4,468.7,728.9z"/>
	<path class="st1" d="M475.7,1177l-116.1-82.4c8.4-15.3,24.6-27.3,36.2-41.7c55.2-67.9,105-144.6,165.3-206.8
		c16.5-17,35.6-15,51.9-7.5c8.2,3.7,15.6,8.9,21.7,13.6c0.9,0.7,1.7,1.4,2.5,2.1c21.2,19.2,9.6,47.2-6.4,74.6
		c-0.9,1.6-1.9,3.2-2.8,4.7c-40.4,67-80,136.3-125,200.2C495,1145.1,486,1163.5,475.7,1177z"/>
	<path class="st0" d="M440.3,1151.9l-46.9-33.3c25.7-36,53.7-69.6,79.6-106.1c22.9-32.3,47.2-62.6,71.2-93.2
		c21-26.7,38.7-58.9,65.9-78.8c1-0.7,2-1.4,3-2c11-6.8,23.2-7.1,24.3,12c0.1,1.2,0,2.4-0.2,3.6c-2,13-17.3,28.7-24.1,39.3
		c-35.9,56.4-73.3,111.7-111.3,166.7C495.2,1069.9,468.8,1114.9,440.3,1151.9z"/>
	<path class="st2" d="M777,260.8c-70,10.6-135,39.9-189.3,87.2c-49.2,42.8-101,102.2-123.3,163.4c-22.8,62.5-37.3,144.1-12,207.9
		c14.8,37.4,48.7,61.6,80.2,83.9c39.3,27.9,78.6,55.7,117.8,83.6c17.6,12.5,34.8,26.1,52.9,37.7c39.2,25,65.6,44.2,114.5,35.9
		c43.2-7.3,82.2-30.6,118.6-53.9c63.5-40.7,110.3-99.8,147.4-164.5c30.4-53,42.3-135.2,40.2-196.1c-2.3-64.8-23.8-128.5-65.2-178.9
		C990.9,284.4,882.2,245,777,260.8z"/>
	<path class="st3" d="M990.7,306.5c0,0,259.2,487.4-372,557.8c18.9,13.4,57.2,42.1,57.2,42.1l60.5,40.1c0,0,39.9,20.5,67.2,15.8
		s59.7-12.6,87.7-28.9c28-16.2,95.3-53.1,135-107.7c39.7-54.5,65.5-84.5,80.9-141.1c17-62.5,18.5-115.3,16.8-138.8s-4.8-68.5-21-103
		s-31-60.9-44.2-75.9s-13.3-20.9-34.7-37.7S990.7,306.5,990.7,306.5z"/>
	<path class="st3" d="M677.2,502.7c0,0-18.5-3-19,14.4s12.7,31.3,37.4,36.7c49.8,10.8,74.4-18.5,93.3-45.6
		c25-35.9,22.9-76.5,13.2-92.1c-9.8-15.5-19.5-20.3-43.6-8.1c-16.1,8.1-3,28.6-16.1,42.4s-15.3,19.3-21.8,32.3
		C714.1,495.6,677.2,502.7,677.2,502.7z"/>
	<g>
		<circle class="st4" cx="706.7" cy="450.3" r="82.5"/>
		<path class="st5" d="M665,413.6c31.7,14.2,61.3-37.5,28.5-36.7C672,377.5,645.6,404.8,665,413.6z"/>
		<path class="st6" d="M773.8,402.3l5.5,8.7l5.4,12.2l2.9,10.3l1.5,11V456l-2.3,14.3l-5.4,15l-6.7,11.6l-9.9,11.9l-6.7,5.9l-9.4,6.5
			l-9.2,4.7l-9.9,3.6l-14.5,2.8l-13,0.4l-10.9-1.5l-10.8-2.8l-11.4-4.8l-10.8-6.6l-7.3-5.9l-7.2-7.5c0,0,37.6,13.5,64,9.4
			c26.4-4.1,46.2-25.8,53.4-36.7c6.5-9.9,13.9-26.9,13-45.6C773.4,411.9,773.8,402.3,773.8,402.3z"/>
	</g>
</g>
</svg>
