<?xml version="1.0" encoding="utf-8"?>
<!-- Generator: Adobe Illustrator 21.1.0, SVG Export Plug-In . SVG Version: 6.00 Build 0)  -->
<svg version="1.1" id="Warstwa_1" xmlns="http://www.w3.org/2000/svg" xmlns:xlink="http://www.w3.org/1999/xlink" x="0px" y="0px"
	 viewBox="0 0 1417.3 1417.3" style="enable-background:new 0 0 1417.3 1417.3;" xml:space="preserve">
<style type="text/css">
	.st0{fill:#606060;}
	.st1{fill:#7F7F7F;}
	.st2{fill:#939393;}
	.st3{fill:#111111;}
	.st4{fill:#141414;}
	.st5{fill:#212121;}
	.st6{fill:#AFAFAF;}
</style>
<g id="swimming">
	<path class="st0" d="M290,915.7c0,0,49.5,15.6,139.8,19.1c100.4,3.9,224.2-13.3,383.9-13.8c165.2-0.4,253.6-7,292.4-3.6
		c35,3.1,35-19.4,35-19.4l-83.6-89.6L817,781.9l-338.6,24.9l-162.9,75.5L290,915.7z"/>
	<path class="st1" d="M647.6,356c-51.4,1.5-127.3,45.9-169.3,76s-77.5,92.2-117.4,155.5S313,745.7,302.8,811.9s-21.6,119-2.3,106.9
		c19.3-12.1,135-73.9,246.8-94.9c111.8-21.1,146.7-29.5,264.5-18.5c136.4,12.8,208,22,273.1,70.9c58.9,44.2,57.6,36.3,56.3-1.4
		c-0.6-16.8,2.6-127.8-11.6-176s-46.3-181.3-106.7-234.7c-79.6-70.4-157.6-91-217.3-104.6C765.6,350.4,699,354.5,647.6,356z"/>
	<path class="st2" d="M346.1,612.4c0,0,11.3-19.1,20.1-33.2c8.8-14.1,21.4-34.8,33-52.5c11.6-17.6,0.9-3.9,18.6-27.8
		c17.7-23.9,21.3-30.3,33.6-42.5s12.8-15.4,35.3-30.1c22.4-14.7,42.3-29.2,71.9-42.5c29.6-13.2,29.9-18.5,59.5-23.1
		s77.7-6.8,97.8-6.8c20.2,0,63.2-0.6,89.9,5.8s60.7,13.6,90.4,26.6c29.8,13,72.1,33.2,99.4,55.6c27.4,22.4,45.7,38,58.4,59.6
		c12.7,21.6-6.9-0.4-78.2-18.4s-150.7-33.4-204.1-35s-101.2-7.3-161.2,8.1c-46.6,12-98,41.3-143.4,64
		C421.8,542.8,346.1,612.4,346.1,612.4z"/>
	<path class="st0" d="M313.5,738.9l41.8-30.8c0,0,4.9,20.8,24.3,46s63.2,33.3,85.9,41.4c22.7,8.1,103.7,2,136.1-13.6
		S656.9,754,668,742c10.6-11.5,30.4-52.3,33.9-60.2c3.4-7.9,7.6-18.1,22.5-16.2s18.2,6.7,24.6,22.9c6.5,16.2,31.1,59.1,58.3,74.5
		c37.3,21.1,37.3,21.1,74.5,30.8c37.3,9.7,90.7,4.9,119.9-4.9s61.6-23.5,69.7-37.7s27.9-52.4,27.9-52.4l33.7,13.9l-8.1-30.8
		l-55.2-34.5H813.8H736l-176.6,8.4H374.8l-54.1,43L313.5,738.9z"/>
	<g>
		<polygon class="st3" points="1077.8,675.9 1129.7,699 1117.5,655.9 1115,647.5 1077.8,632.3 		"/>
		<polygon class="st3" points="358.6,637.2 368.3,678.5 315.6,726.5 324.5,681.9 331.4,655.9 		"/>
		<path class="st4" d="M673.7,661.9c1.6,14.1,3.2,14.2,20.2,11c3.2-0.6,3.9-12.1,8.1-13.4c15.3-5,28.8-2.9,41.6-0.9
			c5.4,0.8,3.8,6.4,6,12.4c1.5,4.1,21.8,6.4,23.8,4.2c6.2-6.4,4.8-39.2,4.8-39.2s-25.1,4.9-66.4,4c-41.3-0.8-41.3-0.8-41.3-0.8
			L673.7,661.9z"/>
		<path class="st5" d="M1091.4,680.5c-26.4,54.4-39.5,101.4-176.8,101.4c-39.9,0-67.2-12.2-94.9-29.6
			c-38.6-24.3-41.6-35.7-56.3-62.1c-12-21.5-6.8-60.3,11.3-78.6c26.4-26.6,92.7-38.9,139.9-38.9c39,0,130.7,15.9,156.7,34.9
			C1098.6,627.5,1107.1,648.1,1091.4,680.5z"/>
		<path class="st5" d="M353.9,680.5c26.4,54.4,39.5,101.4,176.8,101.4c39.9,0,67.2-12.2,94.9-29.6c38.6-24.3,41.6-35.7,56.3-62.1
			c12-21.5,6.8-60.3-11.3-78.6c-26.4-26.6-92.7-38.9-139.9-38.9c-39,0-130.7,15.9-156.7,34.9C346.7,627.5,338.2,648.1,353.9,680.5z"
			/>
		<path class="st1" d="M1056.8,642.8l-4.9,57.2c0,0-57.6,74.1-162.8,48.9c-105.2-25.2-92.3-86.4-85-104.1s46.2-41.8,102.1-41.9
			S1056.8,642.8,1056.8,642.8z"/>
		<path class="st1" d="M388.6,640.4l4.9,57.2c0,0,57.6,74.1,162.8,48.9c105.2-25.2,92.3-86.4,85-104.1s-49-41.4-104.9-41.6
			C480.5,600.8,388.6,640.4,388.6,640.4z"/>
		<path class="st2" d="M646,677.3c-6.9,24.2-20.9,39.1-45.1,53.8c-16.3,9.9-39.9,14.7-59.2,17.6c-36.6,5.4-68.1,3-94.7-11.3
			c-17.6-9.5-26.1-12.2-29-60.1c-3.4-55.2,24.2-57,32.7-59.7c20.7-6.6,50.1-18.9,91-16.5c21.1,1.3,51.8,3.5,72.5,15.2
			C637.7,629.6,653.7,650.4,646,677.3z"/>
		<path class="st2" d="M798.8,679.7c6.9,24.2,20.9,39.1,45.1,53.8c16.3,9.9,39.9,14.7,59.2,17.6c36.6,5.4,68.1,3,94.7-11.3
			c17.6-9.5,26.1-12.2,29-60.1c3.4-55.2-24.2-57-32.7-59.7c-20.7-6.6-50.1-18.9-91-16.5c-21.1,1.3-51.8,3.5-72.5,15.2
			C807.2,632,791.2,652.8,798.8,679.7z"/>
		<path class="st6" d="M533.7,622.9c-2-8.5-22-13.6-44-8.5s-40.3,21.6-38.3,30.1s21.3-3.7,43.3-8.8
			C516.7,630.6,535.7,631.4,533.7,622.9z"/>
		<path class="st6" d="M915.2,622.9c-2-8.5-22-13.6-44-8.5S831,636.1,833,644.6s21.3-3.7,43.3-8.8
			C898.2,630.6,917.2,631.4,915.2,622.9z"/>
	</g>
</g>
</svg>
