<?xml version="1.0" encoding="utf-8"?>
<!-- Generator: Adobe Illustrator 21.1.0, SVG Export Plug-In . SVG Version: 6.00 Build 0)  -->
<svg version="1.1" id="Warstwa_1" xmlns="http://www.w3.org/2000/svg" xmlns:xlink="http://www.w3.org/1999/xlink" x="0px" y="0px"
	 viewBox="0 0 1417.3 1417.3" style="enable-background:new 0 0 1417.3 1417.3;" xml:space="preserve">
<style type="text/css">
	.st0{fill:#6D6D6D;}
	.st1{clip-path:url(#SVGID_2_);}
	.st2{fill:#161616;}
	.st3{fill:none;stroke:#B1B1B1;stroke-width:1.125;stroke-miterlimit:10;}
	.st4{fill:#494949;}
	.st5{clip-path:url(#SVGID_4_);}
	.st6{fill:#999999;}
	.st7{fill:#C6C6C6;}
	.st8{fill:#FFFFFF;}
</style>
<g id="tennis2">
	<path class="st0" d="M1307.1,740.4c127.8-142.2,138.5-340.9,23.9-443.9s-311.1-71.2-438.8,70.9c-88.6,98.6-120.9,224.5-94.1,326.7
		V694c0,0,20.5,92.2-91.1,233.2l-268.1,298.3l63.2,56.8L775,978.6c19.7-21,99.7-97.5,230.6-108.4h-0.1
		C1106.9,880.6,1222.2,834.9,1307.1,740.4z M899.6,776.5c-99.1-89-89.8-260.9,20.6-383.8c110.5-122.9,280.3-150.4,379.4-61.3
		c99.1,89,89.8,260.9-20.6,383.8C1168.5,838,998.7,865.5,899.6,776.5z"/>
	<g>
		<g>
			<defs>
				<path id="SVGID_1_" d="M899.6,776.5c-99.1-89-89.8-260.9,20.6-383.8c110.5-122.9,280.3-150.4,379.4-61.3
					c99.1,89,89.8,260.9-20.6,383.8C1168.5,838,998.7,865.5,899.6,776.5z"/>
			</defs>
			<clipPath id="SVGID_2_">
				<use xlink:href="#SVGID_1_"  style="overflow:visible;"/>
			</clipPath>
			<g class="st1">
				<g>
					
						<rect x="1250.9" y="64.2" transform="matrix(0.6685 -0.7437 0.7437 0.6685 129.3496 1058.5214)" class="st2" width="2.3" height="640"/>
					
						<rect x="1274.7" y="37.8" transform="matrix(0.6685 -0.7437 0.7437 0.6685 156.8284 1067.4319)" class="st2" width="2.3" height="640"/>
					<line class="st3" x1="1061.7" y1="117.5" x2="1537.6" y2="545.3"/>
					
						<rect x="1227.2" y="90.7" transform="matrix(0.6685 -0.7437 0.7437 0.6685 101.7697 1049.6619)" class="st2" width="2.3" height="640"/>
					
						<rect x="1203.5" y="117" transform="matrix(0.6685 -0.7437 0.7437 0.6685 74.2961 1040.7476)" class="st2" width="2.3" height="640"/>
					
						<rect x="1179.7" y="143.5" transform="matrix(0.6685 -0.7437 0.7437 0.6685 46.7455 1031.8103)" class="st2" width="2.3" height="640"/>
					
						<rect x="1155.9" y="169.8" transform="matrix(0.6685 -0.7437 0.7437 0.6685 19.2659 1022.8995)" class="st2" width="2.3" height="640"/>
					
						<rect x="1132.2" y="196.4" transform="matrix(0.6685 -0.7437 0.7437 0.6685 -8.3234 1014.0543)" class="st2" width="2.3" height="640"/>
					
						<rect x="1108.5" y="222.7" transform="matrix(0.6685 -0.7437 0.7437 0.6685 -35.7973 1005.1353)" class="st2" width="2.3" height="640"/>
					
						<rect x="1084.7" y="249.2" transform="matrix(0.6685 -0.7437 0.7437 0.6685 -63.3481 996.196)" class="st2" width="2.3" height="640"/>
					
						<rect x="1060.9" y="275.6" transform="matrix(0.6685 -0.7437 0.7437 0.6685 -90.9004 987.258)" class="st2" width="2.3" height="640"/>
					
						<rect x="1037.2" y="302" transform="matrix(0.6685 -0.7437 0.7437 0.6685 -118.411 978.4279)" class="st2" width="2.3" height="640"/>
					
						<rect x="1013.4" y="328.5" transform="matrix(0.6685 -0.7437 0.7437 0.6685 -145.9674 969.4914)" class="st2" width="2.3" height="640"/>
					
						<rect x="989.7" y="354.9" transform="matrix(0.6685 -0.7437 0.7437 0.6685 -173.444 960.581)" class="st2" width="2.3" height="640"/>
					
						<rect x="966" y="381.3" transform="matrix(0.6686 -0.7437 0.7437 0.6686 -201.018 951.6411)" class="st2" width="2.3" height="640"/>
					
						<rect x="942.2" y="407.7" transform="matrix(0.6685 -0.7437 0.7437 0.6685 -228.497 942.8105)" class="st2" width="2.3" height="640"/>
					
						<rect x="918.4" y="434.2" transform="matrix(0.6685 -0.7437 0.7437 0.6685 -256.0471 933.874)" class="st2" width="2.3" height="640"/>
					<line class="st3" x1="657.8" y1="566.7" x2="1133.8" y2="994.5"/>
				</g>
				<g>
					
						<rect x="914.6" y="687.1" transform="matrix(0.6683 -0.7439 0.7439 0.6683 -102.479 1146.7034)" class="st2" width="640" height="2.3"/>
					
						<rect x="942.1" y="711.9" transform="matrix(0.6683 -0.7439 0.7439 0.6683 -111.8118 1175.4247)" class="st2" width="640" height="2.3"/>
					<line class="st3" x1="1503.6" y1="499.9" x2="1075.8" y2="975.9"/>
					<line class="st3" x1="1531.2" y1="524.7" x2="1103.3" y2="1000.6"/>
					
						<rect x="887" y="662.4" transform="matrix(0.6683 -0.7439 0.7439 0.6683 -93.2257 1117.9532)" class="st2" width="640" height="2.3"/>
					
						<rect x="859.4" y="637.5" transform="matrix(0.6683 -0.7439 0.7439 0.6683 -83.8965 1089.2358)" class="st2" width="640" height="2.3"/>
					
						<rect x="831.9" y="612.9" transform="matrix(0.6683 -0.7439 0.7439 0.6683 -74.6654 1060.5656)" class="st2" width="640" height="2.3"/>
					
						<rect x="804.4" y="588" transform="matrix(0.6683 -0.7439 0.7439 0.6683 -65.3325 1031.8403)" class="st2" width="640" height="2.3"/>
					
						<rect x="776.8" y="563.4" transform="matrix(0.6683 -0.7439 0.7439 0.6683 -56.1073 1003.1711)" class="st2" width="640" height="2.3"/>
					
						<rect x="749.3" y="538.5" transform="matrix(0.6683 -0.7439 0.7439 0.6683 -46.7756 974.4485)" class="st2" width="640" height="2.3"/>
					
						<rect x="721.7" y="513.7" transform="matrix(0.6683 -0.7439 0.7439 0.6683 -37.4459 945.7315)" class="st2" width="640" height="2.3"/>
					
						<rect x="694.1" y="488.9" transform="matrix(0.6683 -0.7439 0.7439 0.6683 -28.1896 916.9804)" class="st2" width="640" height="2.3"/>
					
						<rect x="666.6" y="464.3" transform="matrix(0.6683 -0.7439 0.7439 0.6683 -18.9601 888.3128)" class="st2" width="640" height="2.3"/>
					
						<rect x="639.1" y="439.4" transform="matrix(0.6683 -0.7439 0.7439 0.6683 -9.629 859.5878)" class="st2" width="640" height="2.3"/>
					
						<rect x="611.5" y="414.7" transform="matrix(0.6683 -0.7439 0.7439 0.6683 -0.3761 830.8425)" class="st2" width="640" height="2.3"/>
					<line class="st3" x1="1117.9" y1="153.2" x2="690.1" y2="629.1"/>
					<line class="st3" x1="1090.4" y1="128.4" x2="662.5" y2="604.4"/>
				</g>
			</g>
		</g>
	</g>
	<path class="st4" d="M513.2,1271.1l-0.6-0.5L759.5,996l-63.2-56.8l-246.8,274.7l-0.6-0.5c-7.7-6.9-19.4-6.2-26.3,1.4
		c-6.9,7.7-6.3,19.4,1.4,26.3l64.3,57.8c7.6,6.9,19.4,6.3,26.3-1.4C521.5,1289.8,520.8,1278,513.2,1271.1z"/>
	<g>
		<path class="st0" d="M413.7,859.8c-0.1,0-0.1,0-0.1,0c130.9,10.9,211,87.4,230.6,108.4l272.9,303.7l63.2-56.8L712.2,916.7
			c-111.6-141-91.1-233.2-91.1-233.2v0.1c26.8-102.2-5.5-228.1-94.1-326.7c-127.8-142.2-324.2-174-438.8-71s-103.9,301.7,23.9,443.9
			C197,824.3,312.3,870,413.7,859.8z M140.2,704.5C29.7,581.6,20.4,409.8,119.5,320.7c99.1-89,268.9-61.6,379.4,61.3
			c110.5,123,119.7,294.8,20.6,383.9C420.5,854.9,250.6,827.4,140.2,704.5z"/>
		<g>
			<g>
				<defs>
					<path id="SVGID_3_" d="M519.5,765.9c99.1-89,89.8-260.9-20.6-383.8c-110.5-122.9-280.3-150.4-379.4-61.3
						c-99.1,89-89.8,260.9,20.6,383.8C250.6,827.4,420.5,854.9,519.5,765.9z"/>
				</defs>
				<clipPath id="SVGID_4_">
					<use xlink:href="#SVGID_3_"  style="overflow:visible;"/>
				</clipPath>
				<g class="st5">
					<g>
						
							<rect x="-153" y="372.5" transform="matrix(0.7437 -0.6685 0.6685 0.7437 -207.0085 207.4077)" class="st2" width="640" height="2.3"/>
						
							<rect x="-176.7" y="346.1" transform="matrix(0.7437 -0.6685 0.6685 0.7437 -195.4025 184.7878)" class="st2" width="640" height="2.3"/>
						<line class="st3" x1="357.5" y1="106.9" x2="-118.5" y2="534.7"/>
						
							<rect x="-129.2" y="398.9" transform="matrix(0.7437 -0.6685 0.6685 0.7437 -218.55 230.0592)" class="st2" width="640" height="2.3"/>
						
							<rect x="-105.5" y="425.4" transform="matrix(0.7437 -0.6685 0.6685 0.7437 -230.156 252.6791)" class="st2" width="640" height="2.3"/>
						
							<rect x="-81.7" y="451.8" transform="matrix(0.7437 -0.6685 0.6685 0.7437 -241.7292 275.395)" class="st2" width="640" height="2.3"/>
						
							<rect x="-58" y="478.3" transform="matrix(0.7437 -0.6685 0.6685 0.7437 -253.3345 298.0133)" class="st2" width="640" height="2.3"/>
						
							<rect x="-34.2" y="504.6" transform="matrix(0.7437 -0.6685 0.6685 0.7437 -264.8681 320.6659)" class="st2" width="640" height="2.3"/>
						
							<rect x="-10.5" y="531.1" transform="matrix(0.7437 -0.6685 0.6685 0.7437 -276.4777 343.2837)" class="st2" width="640" height="2.3"/>
						
							<rect x="13.3" y="557.5" transform="matrix(0.7437 -0.6685 0.6685 0.7437 -288.0536 366.0014)" class="st2" width="640" height="2.3"/>
						
							<rect x="37" y="584" transform="matrix(0.7437 -0.6685 0.6685 0.7437 -299.6596 388.6187)" class="st2" width="640" height="2.3"/>
						
							<rect x="60.8" y="610.3" transform="matrix(0.7437 -0.6685 0.6685 0.7437 -311.1981 411.2708)" class="st2" width="640" height="2.3"/>
						
							<rect x="84.5" y="636.7" transform="matrix(0.7437 -0.6685 0.6685 0.7437 -322.7391 433.9218)" class="st2" width="640" height="2.3"/>
						
							<rect x="108.3" y="663.2" transform="matrix(0.7437 -0.6685 0.6685 0.7437 -334.3755 456.6055)" class="st2" width="640" height="2.3"/>
						
							<rect x="132.1" y="689.6" transform="matrix(0.7437 -0.6686 0.6686 0.7437 -345.8967 479.3533)" class="st2" width="640" height="2.3"/>
						
							<rect x="155.8" y="716.1" transform="matrix(0.7437 -0.6685 0.6685 0.7437 -357.5218 501.8783)" class="st2" width="640" height="2.3"/>
						
							<rect x="179.6" y="742.4" transform="matrix(0.7437 -0.6685 0.6685 0.7437 -369.0645 524.5297)" class="st2" width="640" height="2.3"/>
						<line class="st3" x1="761.3" y1="556.1" x2="285.4" y2="983.9"/>
					</g>
					<g>
						
							<rect x="183.4" y="357.8" transform="matrix(0.7439 -0.6683 0.6683 0.7439 -405.6909 296.8784)" class="st2" width="2.3" height="640"/>
						
							<rect x="155.9" y="382.5" transform="matrix(0.7439 -0.6683 0.6683 0.7439 -429.2782 284.8442)" class="st2" width="2.3" height="640"/>
						<line class="st3" x1="-84.5" y1="489.3" x2="343.4" y2="965.3"/>
						<line class="st3" x1="-112" y1="514.1" x2="315.8" y2="990"/>
						
							<rect x="211" y="333" transform="matrix(0.7439 -0.6683 0.6683 0.7439 -382.0754 309.0074)" class="st2" width="2.3" height="640"/>
						
							<rect x="238.5" y="308.2" transform="matrix(0.7439 -0.6683 0.6683 0.7439 -358.485 321.0388)" class="st2" width="2.3" height="640"/>
						
							<rect x="266" y="283.4" transform="matrix(0.7439 -0.6683 0.6683 0.7439 -334.8351 333.1062)" class="st2" width="2.3" height="640"/>
						
							<rect x="293.6" y="258.7" transform="matrix(0.7439 -0.6683 0.6683 0.7439 -311.2834 345.2043)" class="st2" width="2.3" height="640"/>
						
							<rect x="321.2" y="233.9" transform="matrix(0.7439 -0.6683 0.6683 0.7439 -287.6327 357.2672)" class="st2" width="2.3" height="640"/>
						
							<rect x="348.7" y="209.2" transform="matrix(0.7439 -0.6683 0.6683 0.7439 -264.0464 369.3006)" class="st2" width="2.3" height="640"/>
						
							<rect x="376.2" y="184.5" transform="matrix(0.7439 -0.6683 0.6683 0.7439 -240.4883 381.3961)" class="st2" width="2.3" height="640"/>
						
							<rect x="403.8" y="159.6" transform="matrix(0.7439 -0.6683 0.6683 0.7439 -216.841 393.4637)" class="st2" width="2.3" height="640"/>
						
							<rect x="431.4" y="134.8" transform="matrix(0.7439 -0.6683 0.6683 0.7439 -193.189 405.53)" class="st2" width="2.3" height="640"/>
						
							<rect x="458.9" y="110.1" transform="matrix(0.7439 -0.6683 0.6683 0.7439 -169.6371 417.6266)" class="st2" width="2.3" height="640"/>
						
							<rect x="486.5" y="85.3" transform="matrix(0.7439 -0.6683 0.6683 0.7439 -145.9853 429.6916)" class="st2" width="2.3" height="640"/>
						<line class="st3" x1="301.2" y1="142.6" x2="729.1" y2="618.5"/>
						<line class="st3" x1="328.8" y1="117.8" x2="756.7" y2="593.8"/>
					</g>
				</g>
			</g>
		</g>
		<path class="st4" d="M906,1260.5l0.6-0.5L659.7,985.4l63.2-56.8l246.8,274.7l0.6-0.5c7.7-6.9,19.4-6.2,26.3,1.4
			c6.9,7.7,6.3,19.4-1.4,26.3l-64.3,57.8c-7.6,6.9-19.4,6.3-26.3-1.4C897.7,1279.2,898.3,1267.4,906,1260.5z"/>
	</g>
	<g>
		
			<ellipse transform="matrix(0.5524 -0.8336 0.8336 0.5524 7.5672 762.0629)" class="st6" cx="713.4" cy="374" rx="91.8" ry="91.8"/>
		<g>
			<path class="st7" d="M750.1,458.1c1.1-1.8,2.1-3.9,2.5-6.3l0.2-0.9v-0.2c0,0.2,0-0.3,0-0.3v-0.1v-0.4c0-0.5,0.1-0.9,0.1-1.5
				c0-0.7,0-1.3,0-2s-0.1-1.2-0.2-1.9c-0.6-5-2.8-9.8-5.9-13.8c-3-4.1-6.7-7.6-10.7-10.8c-4-3.2-8.3-6.1-12.8-8.9
				c-4.5-2.7-9.2-5.3-14-7.8c-2.4-1.2-4.8-2.4-7.2-3.7c-1.2-0.6-2.3-1.2-3.5-1.8c-1.1-0.6-2.3-1.3-3.4-1.9
				c-9.1-5.2-17.9-11.6-24.3-19.6c-1.6-2-2.9-4.1-4.2-6.2c-1.2-2.1-2.2-4.4-2.9-6.7c-1.5-4.6-1.9-9.4-1.4-14.2c0.5-4.9,2-9.7,4-14.5
				l1.7-3.7l1.7-3.2c0.7-1.1,1.3-2.2,2-3.2s1.5-2,2.2-3.1c3-4,6.5-7.6,10.4-10.5c3.8-3,8-5.4,12.5-7.1s9.2-2.9,13.9-3.4
				c4.7-0.6,9.6-0.5,14.3-0.1h0.9c-0.3-0.1,0,0-0.1,0h0.1h0.2l0.5,0.1l1.9,0.3c1.2,0.2,2.4,0.3,3.7,0.5c2.5,0.3,4.6,0.8,6.8,1.3
				c1.1,0.2,2.2,0.5,3.3,0.7c1.1,0.3,2.1,0.6,3.2,0.9c1.1,0.3,2.1,0.6,3.2,0.9c0.5,0.2,1,0.3,1.6,0.5c0.5,0.2,1,0.4,1.5,0.5
				c8.1,2.7,15.1,6.2,21.1,9.8c6,3.6,10.9,7.2,14.8,10.4c2,1.7,5.1,3.6,6.5,5c-4.4-8.3-11.5-18.6-19.7-25.3
				c-5.3-3.2-13.2-4.7-20-7.4c-0.5-0.2-1.1-0.5-1.6-0.7s-1.1-0.4-1.6-0.6c-1.1-0.4-2.2-0.8-3.3-1.2c-1.1-0.4-2.2-0.8-3.4-1.2
				c-1.2-0.3-2.4-0.7-3.6-1c-2.4-0.7-4.9-1.5-7.3-1.9c-1.2-0.3-2.4-0.5-3.6-0.8l-1.8-0.4l-0.5-0.1l-0.2-0.1h-0.1
				c-0.1,0,0.1,0-0.3-0.1l-1-0.1c-5.3-0.8-10.8-1.4-16.5-1.1c-5.7,0.1-11.6,1.2-17.3,2.9c-5.8,1.7-11.3,4.6-16.4,8.1
				c-5,3.6-9.6,7.9-13.4,12.7c-7.6,9.9-12.8,21.4-14.2,34.6c-0.6,6.5,0,13.5,2.2,19.9c1,3.2,2.4,6.3,4.1,9.2
				c1.7,2.9,3.5,5.6,5.6,8.1c4.2,5,8.9,9.2,13.8,12.9c4.9,3.7,10,6.8,15,9.5c1.3,0.7,2.5,1.3,3.8,2c1.3,0.6,2.6,1.3,3.8,1.9
				c2.5,1.1,4.9,2.3,7.3,3.4c4.7,2.2,9.2,4.5,13.5,6.9c4.2,2.4,8.3,4.8,11.8,7.4c3.6,2.6,6.7,5.4,9.1,8.3c2.4,2.9,3.9,5.9,4.4,8.8
				c0,0.4,0.1,0.7,0.2,1.1c0,0.3,0,0.6,0.1,0.9c0,0.4,0,0.9,0,1.4v0.4l0,0l0,0l-0.1,0.5c-0.2,1.2-0.6,2.4-1.2,3.6
				c-0.6,1.1-1.4,2.2-2.3,3.2c-0.9,1-1.9,1.9-3,2.7c-2.1,1.6-4.4,2.9-6.5,3.9c-1.3,0.6-2.4,1.1-3.6,1.6
				C734.8,463.6,742.6,461.4,750.1,458.1z"/>
		</g>
		<g>
			<path class="st8" d="M749.2,451.4l0.2-0.9v-0.2c0,0.2,0-0.4,0-0.3v-0.1v-0.4c0-0.5,0.1-0.9,0.2-1.5c0-0.7,0-1.4,0-2.1
				s-0.1-1.3-0.1-1.9c-0.5-5.1-2.7-10-5.7-14.1s-6.6-7.7-10.6-10.9c-4-3.2-8.3-6.2-12.8-8.9c-4.5-2.7-9.2-5.3-14-7.7
				c-2.4-1.2-4.8-2.4-7.2-3.6c-1.2-0.6-2.3-1.2-3.5-1.8c-1.1-0.6-2.3-1.3-3.4-1.9c-9.1-5.2-18-11.6-24.2-19.7
				c-1.6-2-2.9-4.1-4.1-6.3c-1.2-2.2-2.1-4.4-2.8-6.8c-1.4-4.7-1.7-9.6-1.2-14.6c0.6-5,2.1-10,4.2-14.9l1.8-3.8l1.8-3.3
				c0.7-1.1,1.4-2.2,2.1-3.3c0.8-1.1,1.5-2.1,2.3-3.2c3.1-4.2,6.7-7.8,10.6-10.9c3.9-3.1,8.2-5.7,12.8-7.5s9.3-3.1,14.1-3.7
				c4.8-0.7,9.7-0.6,14.4-0.4h0.9c-0.3-0.1,0,0-0.1,0h0.1h0.2l0.5,0.1l1.9,0.2c1.2,0.2,2.5,0.3,3.7,0.5c2.5,0.2,4.7,0.8,6.9,1.2
				c1.1,0.2,2.2,0.4,3.3,0.7c1.1,0.2,2.2,0.6,3.2,0.9c1.1,0.3,2.1,0.6,3.2,0.9c0.5,0.1,1,0.3,1.6,0.4c0.5,0.2,1,0.4,1.5,0.5
				c8.1,2.6,15.2,6.1,21.2,9.7s10.9,7.2,14.8,10.4c2,1.7,3.8,3.3,5.2,4.7c-5.2-8.8-12-16.8-20.2-23.6c-5.3-3.2-11.3-6.4-18-9
				c-0.5-0.2-1.1-0.4-1.6-0.7c-0.5-0.2-1.1-0.4-1.6-0.6c-1.1-0.4-2.2-0.8-3.3-1.2c-1.1-0.4-2.3-0.8-3.4-1.2c-1.2-0.3-2.4-0.7-3.6-1
				c-2.4-0.7-5-1.4-7.3-1.8c-1.2-0.2-2.4-0.5-3.6-0.8l-1.8-0.4l-0.5-0.1h-0.2H727c-0.1,0,0.1,0-0.3-0.1l-1-0.1
				c-5.3-0.7-10.9-1.3-16.7-0.9c-5.8,0.2-11.7,1.4-17.6,3.2c-5.9,1.8-11.5,4.9-16.7,8.5c-5.2,3.7-9.8,8.2-13.8,13.3
				c-7.8,10.2-13.3,22.1-14.9,35.6c-0.7,6.7-0.2,13.8,1.9,20.4c1,3.3,2.4,6.5,4,9.4s3.5,5.7,5.6,8.2c4.1,5.1,8.8,9.3,13.7,13
				s10,6.8,15,9.5c1.3,0.7,2.5,1.3,3.8,2c1.3,0.6,2.6,1.3,3.8,1.8c2.5,1.1,4.9,2.2,7.3,3.3c4.7,2.2,9.3,4.4,13.5,6.8
				s8.3,4.8,11.8,7.4c3.6,2.6,6.7,5.4,9,8.3c2.4,2.9,3.8,6,4.4,8.9c0,0.4,0.1,0.8,0.2,1.1c0,0.3,0,0.6,0.1,0.9c0,0.4,0,1-0.1,1.4
				v0.4l0,0l0,0l-0.1,0.5c-0.2,1.3-0.6,2.5-1.3,3.7c-0.6,1.2-1.5,2.3-2.4,3.3s-2,2-3.1,2.8c-2.2,1.7-4.5,3-6.6,4.1
				c-1.4,0.7-2.8,1.3-4,1.9c7.7-0.8,15.2-2.5,22.5-5.1c0.5-0.7,1.1-1.4,1.6-2.1C747.7,456.2,748.7,453.9,749.2,451.4z"/>
		</g>
	</g>
</g>
</svg>
