<?xml version="1.0" encoding="UTF-8" standalone="no"?>
<!-- Created with Inkscape (http://www.inkscape.org/) -->

<svg
   xmlns:dc="http://purl.org/dc/elements/1.1/"
   xmlns:cc="http://creativecommons.org/ns#"
   xmlns:rdf="http://www.w3.org/1999/02/22-rdf-syntax-ns#"
   xmlns:svg="http://www.w3.org/2000/svg"
   xmlns="http://www.w3.org/2000/svg"
   xmlns:sodipodi="http://sodipodi.sourceforge.net/DTD/sodipodi-0.dtd"
   xmlns:inkscape="http://www.inkscape.org/namespaces/inkscape"
   version="1.1"
   id="svg2"
   xml:space="preserve"
   width="3779.5332"
   height="3779.5332"
   viewBox="0 0 3779.5332 3779.5332"
   sodipodi:docname="logo.svg"
   inkscape:version="0.92.3 (2405546, 2018-03-11)"><metadata
     id="metadata8"><rdf:RDF><cc:Work
         rdf:about=""><dc:format>image/svg+xml</dc:format><dc:type
           rdf:resource="http://purl.org/dc/dcmitype/StillImage" /><dc:title></dc:title></cc:Work></rdf:RDF></metadata><defs
     id="defs6"><clipPath
       clipPathUnits="userSpaceOnUse"
       id="clipPath20"><path
         d="M 0,2834.65 H 2834.65 V 0 H 0 Z"
         id="path18"
         inkscape:connector-curvature="0" /></clipPath></defs><sodipodi:namedview
     pagecolor="#ffffff"
     bordercolor="#666666"
     borderopacity="1"
     objecttolerance="10"
     gridtolerance="10"
     guidetolerance="10"
     inkscape:pageopacity="0"
     inkscape:pageshadow="2"
     inkscape:window-width="647"
     inkscape:window-height="479"
     id="namedview4"
     showgrid="false"
     inkscape:zoom="0.062441573"
     inkscape:cx="1889.7666"
     inkscape:cy="3811.5631"
     inkscape:window-x="222"
     inkscape:window-y="338"
     inkscape:window-maximized="0"
     inkscape:current-layer="g10" /><g
     id="g10"
     inkscape:groupmode="layer"
     inkscape:label="logo3"
     transform="matrix(1.3333333,0,0,-1.3333333,0,3779.5333)"><path
       d="M 2600.443,369.526 H 301.461 v 2094.265 h 2298.982 z"
       style="fill:#f64f26;fill-opacity:1;fill-rule:nonzero;stroke:none"
       id="path12"
       inkscape:connector-curvature="0" /><g
       id="g14"><g
         id="g16"
         clip-path="url(#clipPath20)"><g
           id="g22"
           transform="translate(2597.7764,370.193)"><path
             d="m 0,0 h -476.578 c 0,110.757 -3.585,473.547 -1.687,545.701 l -191.992,-394.85 -239.25,1.899 -174.309,387.289 c -2.434,-83.498 -6.078,-429.282 -6.078,-540.039 h -472.804 l 67.181,1245.686 451.195,6.007 262.973,-515.683 259.2,515.683 h 453.816 z"
             style="fill:#ffffff;fill-opacity:1;fill-rule:nonzero;stroke:none"
             id="path24"
             inkscape:connector-curvature="0" /></g><g
           id="g26"
           transform="translate(1403.4478,1303.3541)"><path
             d="m 0,0 c -144.554,-64.577 -205.071,-87.346 -356.977,-93.042 -176.832,-6.631 -374.065,21.87 -529.768,157.602 -134.912,117.607 -204.725,269.271 -216.838,467.805 -10.748,176.144 59.833,338.586 194.545,465.352 110.494,103.977 210.275,149.165 371.675,160.558 113.756,8.03 254.509,-0.206 393.449,-35.495 l 37.265,-360.129 c -109.004,48.534 -288.304,65.231 -329.958,59.066 -51.967,-7.691 -141.278,-34.934 -190.81,-90.991 -35.657,-40.355 -77.042,-123.106 -66.156,-190.697 14.638,-90.891 32.868,-145.687 103.043,-188.749 69.927,-42.91 157.593,-70.365 252.054,-49.369 28.059,6.237 53.653,16.591 53.653,16.591 0,0 150.426,-5.731 207.921,-6.622 z"
             style="fill:#ffffff;fill-opacity:1;fill-rule:nonzero;stroke:none"
             id="path28"
             inkscape:connector-curvature="0" /></g><g
           id="g30"
           transform="translate(1348.062,1302.3336)"><path
             d="m 0,0 c -142.762,-49.344 -283.09,-78.729 -383.24,-67.919 -191.088,20.628 -286.92,46.918 -419.146,145.916 -135.822,101.857 -202.483,258.991 -216.271,448.524 -12.233,168.157 45.386,317.225 170.87,439.564 102.925,100.346 183.254,145.401 377.525,166.904 106.846,11.826 217.863,-1.172 349.266,-33.592 l 32.677,-295.215 c -103.34,45.352 -222.957,45.764 -294.498,41.633 -69.09,-3.99 -159.771,-48.466 -208.715,-99.77 -53.017,-53.956 -86.777,-127.764 -76.984,-216.243 9.677,-87.424 50.474,-152.685 116.282,-194.591 59.948,-38.173 129.367,-62.681 197.121,-64.327 87.701,-2.131 133.913,20.186 133.913,20.186 0,0 101.897,0 183.611,-2.862 z"
             style="fill:#ffb000;fill-opacity:1;fill-rule:nonzero;stroke:none"
             id="path32"
             inkscape:connector-curvature="0" /></g><g
           id="g34"
           transform="translate(2563.4463,370.193)"><path
             d="m 0,0 h -412.078 v 332.272 c 0,153.107 -4.352,260.041 -13.034,320.872 l -229.655,-473.98 -201.974,4.894 -213.363,469.086 c -9.775,-66.243 -15.221,-173.211 -16.292,-320.872 V 0 h -412.078 l 61.89,1223.211 h 402.313 l 285.04,-553.786 286.663,553.786 h 399.054 z"
             style="fill:#ffb000;fill-opacity:1;fill-rule:nonzero;stroke:none"
             id="path36"
             inkscape:connector-curvature="0" /></g><g
           id="g38"
           transform="translate(2136.9854,1940.9181)"><path
             d="m 0,0 c -6.996,-154.277 -147.203,-308.087 -328.817,-308.087 -181.615,0 -323.07,138.967 -328.866,308.087 -5.016,146.379 96.988,276.005 230.98,321.368 32.155,10.886 63.91,14.24 99.054,14.893 95.582,1.777 180.664,-40.196 240.052,-107.85 C -32.063,165.148 3.911,86.236 0,0"
             style="fill:#ffffff;fill-opacity:1;fill-rule:nonzero;stroke:none"
             id="path40"
             inkscape:connector-curvature="0" /></g><g
           id="g42"
           transform="translate(1640.0674,2229.6812)"><path
             d="m 0,0 c -85.483,-52.949 -145.342,-142.807 -157.936,-235.224 11.936,28.42 34.589,67.258 61.474,98.317 57.727,66.687 153.846,89.971 161.534,91.616 C 47.185,-18.832 34.718,-9.508 26.992,-6.278 19.694,-3.225 7.756,-1.127 0,0 Z"
             style="fill:none;stroke:#000000;stroke-width:3;stroke-linecap:butt;stroke-linejoin:miter;stroke-miterlimit:10;stroke-dasharray:none;stroke-opacity:1"
             id="path44"
             inkscape:connector-curvature="0" /></g><g
           id="g46"
           transform="translate(1641.7686,2229.2061)"><path
             d="m 0,0 c 0,0 11.158,0.952 22.652,-3.855 11.494,-4.807 43.071,-28.166 68.44,-91.351 39.092,-97.365 32.672,-264.463 32.672,-264.463 0,0 37.57,-20.247 84.334,-38.975 46.762,-18.728 111.682,-24.426 111.682,-24.426 0,0 0.756,26.695 -6.723,126.371 -7.48,99.676 -52.638,213.998 -82.593,262.377 -33.348,53.856 -60.66,73.899 -71.166,79.315 -4.04,2.083 -11.098,1.965 -19.4,3.098 C 98.757,44.746 59.917,32.669 21.333,12.909 6.466,4.952 0,0 0,0 Z"
             style="fill:none;stroke:#000000;stroke-width:3;stroke-linecap:butt;stroke-linejoin:miter;stroke-miterlimit:10;stroke-dasharray:none;stroke-opacity:1"
             id="path48"
             inkscape:connector-curvature="0" /></g><g
           id="g50"
           transform="translate(2008.3604,2194.2227)"><path
             d="m 0,0 c -14.793,18.575 -35.093,36.413 -56.446,52.133 -52.638,26.089 -111.425,35.725 -170.247,30.942 8.301,-1.134 15.359,-1.016 19.399,-3.098 10.506,-5.416 42.947,-33.744 71.166,-79.316 29.955,-48.378 75.113,-162.7 82.593,-262.377 7.479,-99.676 6.723,-126.37 6.723,-126.37 0,0 23.59,-1.252 49.664,5.223 26.073,6.475 47.708,16.649 47.708,16.649 0,0 30.986,69.682 16.364,185.257 C 56.081,-95.249 33.808,-42.455 0,0 Z"
             style="fill:none;stroke:#000000;stroke-width:3;stroke-linecap:butt;stroke-linejoin:miter;stroke-miterlimit:10;stroke-dasharray:none;stroke-opacity:1"
             id="path52"
             inkscape:connector-curvature="0" /></g><g
           id="g54"
           transform="translate(1951.9141,2246.356)"><path
             d="m 0,0 c 21.354,-15.72 41.653,-33.558 56.446,-52.133 33.808,-42.455 56.081,-95.249 66.924,-180.958 14.622,-115.574 -16.364,-185.257 -16.364,-185.257 0,0 15.073,8.192 36.242,29.961 16.588,17.06 32.817,39.623 39.505,58.836 9.041,71.018 -5.695,145.845 -51.577,210.05 C 94.757,-68.538 52.276,-25.91 0,0 Z"
             style="fill:none;stroke:#000000;stroke-width:3;stroke-linecap:butt;stroke-linejoin:miter;stroke-miterlimit:10;stroke-dasharray:none;stroke-opacity:1"
             id="path56"
             inkscape:connector-curvature="0" /></g><g
           id="g58"
           transform="translate(2095.1621,1857.9694)"><path
             d="m 0,0 c -21.169,-21.769 -36.242,-29.961 -36.242,-29.961 0,0 -21.635,-10.173 -47.708,-16.648 -26.073,-6.475 -49.663,-5.224 -49.663,-5.224 0,0 -64.92,5.697 -111.683,24.425 -46.764,18.728 -84.334,38.975 -84.334,38.975 0,0 -58.15,-32.505 -90.767,-52.702 -32.619,-20.197 -51.294,-40.356 -51.294,-40.356 0,0 56.59,-35.868 125.902,-62.786 53.475,-20.766 118.315,-24.508 182.927,-17.806 64.611,6.701 96.489,35.035 127.59,62.887 6.35,5.688 13.183,13.438 20.035,22.144 C 11.085,-36.195 33.784,6.014 39.505,58.835 32.815,39.659 16.547,17.018 0,0 Z"
             style="fill:none;stroke:#000000;stroke-width:3;stroke-linecap:butt;stroke-linejoin:miter;stroke-miterlimit:10;stroke-dasharray:none;stroke-opacity:1"
             id="path60"
             inkscape:connector-curvature="0" /></g><g
           id="g62"
           transform="translate(2083.5293,1786.6906)"><path
             d="M 0,0 C -0.992,-1.614 -1.989,-3.225 -3.012,-4.824 -1.99,-3.225 -0.992,-1.614 0,0"
             style="fill:#ffffff;fill-opacity:1;fill-rule:nonzero;stroke:none"
             id="path64"
             inkscape:connector-curvature="0" /></g><g
           id="g66"
           transform="translate(2059.8896,1758.7736)"><path
             d="m 0,0 c -31.101,-27.853 -62.979,-56.186 -127.59,-62.888 -64.611,-6.701 -129.452,-2.96 -182.927,17.807 -69.311,26.917 -125.902,62.786 -125.902,62.786 0,0 -10.584,-10.62 -19.672,-26.258 -9.088,-15.639 -4.326,-23.328 -4.326,-23.328 0,0 37.072,-34.609 89.351,-60.429 52.278,-25.82 82.433,-29.047 108.13,-33.159 1.316,-0.21 2.933,-0.378 4.711,-0.52 60.265,-1.215 121.562,14.357 176.624,48.451 42.207,26.135 76.282,60.41 101.508,99.524 C 13.099,13.347 6.312,5.652 0,0 Z"
             style="fill:none;stroke:#000000;stroke-width:3;stroke-linecap:butt;stroke-linejoin:miter;stroke-miterlimit:10;stroke-dasharray:none;stroke-opacity:1"
             id="path68"
             inkscape:connector-curvature="0" /></g><g
           id="g70"
           transform="translate(2128.9717,1915.5367)"><path
             d="M 0,0 -0.025,0.085"
             style="fill:none;stroke:#000000;stroke-width:3;stroke-linecap:butt;stroke-linejoin:miter;stroke-miterlimit:10;stroke-dasharray:none;stroke-opacity:1"
             id="path72"
             inkscape:connector-curvature="0" /></g><g
           id="g74"
           transform="translate(1688.8232,1666.4635)"><path
             d="m 0,0 c -52.278,25.82 -89.351,60.429 -89.351,60.429 1.419,-7.698 4.601,-21.066 10.007,-29.924 55.341,-42.773 123.267,-62.796 192.186,-64.184 -1.779,0.142 -3.396,0.31 -4.711,0.52 C 82.434,-29.047 52.278,-25.82 0,0 Z"
             style="fill:none;stroke:#000000;stroke-width:3;stroke-linecap:butt;stroke-linejoin:miter;stroke-miterlimit:10;stroke-dasharray:none;stroke-opacity:1"
             id="path76"
             inkscape:connector-curvature="0" /></g><g
           id="g78"
           transform="translate(1767.0342,1869.6705)"><path
             d="m 0,0 c 0,0 0.252,118.979 -18.713,217.614 -16.471,-10.28 -57.944,-37.511 -97.433,-68.21 -49.802,-38.716 -80.791,-70.797 -106.011,-112.197 -25.219,-41.401 -28.128,-61.554 -27.189,-83.893 0.181,-4.305 1.101,-19.669 2.569,-26.18 2.875,-5.272 6.596,-10.877 9.797,-16.045 21.028,-33.961 49.578,-60.726 79.425,-83.791 -5.404,8.857 -8.589,22.227 -10.007,29.924 0,0 -4.761,7.689 4.327,23.328 9.088,15.638 19.672,26.258 19.672,26.258 0,0 18.675,20.159 51.293,40.356 32.618,20.197 90.768,52.702 90.768,52.702 z"
             style="fill:none;stroke:#000000;stroke-width:3;stroke-linecap:butt;stroke-linejoin:miter;stroke-miterlimit:10;stroke-dasharray:none;stroke-opacity:1"
             id="path80"
             inkscape:connector-curvature="0" /></g><g
           id="g82"
           transform="translate(1706.8643,2183.9468)"><path
             d="m 0,0 c -7.534,-1.609 -104.944,-23.478 -162.722,-90.224 -26.885,-31.059 -50.075,-70.845 -62.01,-99.266 -9.027,-66.235 4.069,-135.139 38.125,-197.652 -1.448,6.445 -2.239,15.287 -2.418,19.556 -0.94,22.339 1.819,49.116 27.038,90.517 25.219,41.4 56.209,73.481 106.01,112.197 38.835,30.191 79.536,56.989 96.54,67.648 -3.967,16.776 -8.755,32.804 -14.567,47.278 C 17.687,-29.251 8.717,-12.898 0,0 Z"
             style="fill:none;stroke:#000000;stroke-width:3;stroke-linecap:butt;stroke-linejoin:miter;stroke-miterlimit:10;stroke-dasharray:none;stroke-opacity:1"
             id="path84"
             inkscape:connector-curvature="0" /></g></g></g></g></svg>