<?xml version="1.0" encoding="utf-8"?>
<!-- Generator: Adobe Illustrator 21.1.0, SVG Export Plug-In . SVG Version: 6.00 Build 0)  -->
<svg version="1.1" id="Warstwa_1" xmlns="http://www.w3.org/2000/svg" xmlns:xlink="http://www.w3.org/1999/xlink" x="0px" y="0px"
	 viewBox="0 0 2834.6 2834.6" style="enable-background:new 0 0 2834.6 2834.6;" xml:space="preserve">
<style type="text/css">
	.st0{fill:#F74D32;}
	.st1{fill:#FFFFFF;}
	.st2{fill:#303030;}
	.st3{fill:none;stroke:#303030;stroke-width:5;stroke-miterlimit:10;}
	.st4{fill:#FFB000;}
</style>
<g>
	<g>
		<circle class="st0" cx="1506.2" cy="1438.8" r="1098"/>
	</g>
</g>
<g>
	<path class="st1" d="M2205.4,982.6c-7,154.3-147.2,308.1-328.8,308.1s-323.1-139-328.9-308.1c-5-146.4,97-276,231-321.4
		c32.2-10.9,63.9-14.2,99.1-14.9c95.6-1.8,180.7,40.2,240.1,107.9C2173.3,817.4,2209.3,896.4,2205.4,982.6z"/>
	<g>
		<g>
			<path class="st2" d="M1545.5,947.5l2.6-18.8c6.2-45.8,24.2-92,52-133.5c27.9-41.6,64.9-77.4,107.1-103.5l0.8-0.5l0.9,0.1
				c8.5,1.2,20.2,3.4,27.6,6.4c11.3,4.7,24.5,18.2,39.2,39.9l2.1,3.1l-3.6,0.8c-1,0.2-100.8,22.2-160.2,90.8
				c-28.7,33.2-50.4,72.2-61.1,97.6L1545.5,947.5z M1709,696.4c-78.1,48.7-135.3,129.4-152.8,214.3c12.1-24.4,30.7-54.9,53.9-81.7
				c54-62.4,140.7-86.9,159.3-91.6c-16.5-23.8-28.1-32.3-34.9-35.1C1729.2,700.2,1720.2,698.1,1709,696.4z"/>
		</g>
		<path class="st2" d="M2032.4,1120.1l-2.6-0.2c-0.7-0.1-65.8-5.9-112.4-24.6c-46.4-18.6-84.2-38.9-84.6-39.1l-1.4-0.7l0.1-1.6
			c0.1-1.7,5.9-167.7-32.5-263.4c-29.5-73.6-65.6-89.3-67.1-90c-10.7-4.5-21.4-3.7-21.5-3.7l-8.5,0.7l6.8-5.2
			c0.3-0.2,6.8-5.2,21.7-13.1c40.2-20.6,79.3-32.2,119.5-35.5h0.3h0.3c2.6,0.3,5,0.6,7.3,0.8c5.2,0.5,9.7,0.9,12.9,2.6
			c5.5,2.8,34.9,20.1,72.1,80.2c29.9,48.2,75.3,161.8,83,263.5c7.4,98.7,6.7,126.4,6.7,126.6L2032.4,1120.1z M1836.5,1052.5
			c7.2,3.8,41.6,21.6,82.7,38.1c40.5,16.2,95.5,22.7,108.3,24c0-8.9-0.6-41.8-6.7-123.4c-7.5-99.7-53.5-214.8-82.2-261.2
			c-36.6-59-64.9-75.7-70.2-78.4c-2.3-1.2-6.4-1.6-11.1-2c-2.2-0.2-4.7-0.4-7.2-0.8c-39.5,3.2-77.9,14.7-117.4,34.9
			c-6.3,3.4-11.1,6.2-14.5,8.4c4.3,0.4,10,1.5,15.7,3.9c14.5,6.1,45.6,32.4,69.8,92.7C1840.4,880.3,1837,1035.2,1836.5,1052.5z"/>
		<path class="st2" d="M2035.2,1120c-3.2,0-5.1-0.1-5.4-0.1l-2.4-0.1l0.1-2.4c0-0.3,0.7-27.9-6.7-126.1
			c-7.5-99.7-53.5-214.8-82.2-261.2c-27.1-43.8-59.1-72.7-70.2-78.4c-2.3-1.2-6.4-1.6-11.1-2c-2.3-0.2-4.8-0.5-7.5-0.8l-22.8-3.1
			l22.9-1.9c61-5,120.4,5.8,171.6,31.2l0.4,0.2c24.1,17.8,43.3,35.5,56.9,52.6c36.5,45.8,57.3,102,67.4,182.2
			c14.5,114.9-16.2,185.9-16.6,186.6l-0.4,0.9l-0.8,0.4c-0.2,0.1-22.2,10.4-48.2,16.8C2061.2,1119.3,2043.7,1120,2035.2,1120z
			 M2032.5,1114.9c6.6,0.1,25.9-0.1,46.5-5.2c22.6-5.6,42.1-14.2,46.4-16.1c3.4-8.3,29.3-76.4,15.8-183.1
			c-10-79.2-30.5-134.6-66.4-179.7l0,0c-13.3-16.8-32.1-34.1-55.8-51.5c-44.4-21.9-95-32.8-147.4-31.7c12.3,7,44.3,36.2,71.2,79.7
			c29.9,48.2,75.3,161.8,83,263.5C2031.9,1073.4,2032.4,1106.3,2032.5,1114.9z"/>
		<path class="st2" d="M2122,1101.2l3-6.7c0.3-0.7,30.5-70.5,16.2-183.9c-10-79.2-30.5-134.6-66.4-179.7
			c-13.4-16.8-32.2-34.2-56-51.7l2.6-4.3c48.1,23.8,91.3,63.2,132.1,120.3c22.4,31.3,38.1,66.1,46.8,103.4
			c8.2,35.1,9.9,71.6,5.2,108.5v0.3l-0.1,0.2c-6.2,17.8-21.6,40.7-40.1,59.8c-21.2,21.8-36.2,30.1-36.8,30.4L2122,1101.2z
			 M2047.3,695.5c12.5,10.9,23,21.7,31.4,32.2c36.5,45.8,57.3,102,67.4,182.2c11.9,94-6.5,158.6-13.8,179.4
			c6.3-4.4,16.8-12.5,29.4-25.5c18-18.5,32.8-40.5,38.9-57.7c9.5-74.7-8.7-148.6-51.2-208C2117.3,753.1,2083.6,719.2,2047.3,695.5z"
			/>
		<g>
			<path class="st2" d="M1944.4,1233.1c-48.4,0-91.8-7.1-127.6-21c-68.7-26.7-125.8-62.6-126.3-63l-2.5-1.6l2-2.2
				c0.2-0.2,19.3-20.6,51.8-40.8c32.3-20,90.3-52.4,90.9-52.8l1.2-0.7l1.2,0.7c0.4,0.2,38,20.4,84.1,38.9
				c45.9,18.4,110.3,24.2,111,24.3c0.1,0,23.5,1.1,48.8-5.2c24.8-6.2,45.8-15.8,47.2-16.5c1-0.6,15.6-9,35.6-29.5l0,0
				c18-18.5,32.9-40.7,38.9-57.9l7.2-20.6l-2.4,21.7c-5.9,54.3-30,97.9-55.1,137l-0.1,0.2c-7.5,9.6-14.4,17.1-20.3,22.5
				c-31.1,27.9-63.3,56.7-129,63.5C1981.5,1232.1,1962.6,1233.1,1944.4,1233.1z M1695.8,1146.5c11.9,7.3,62.9,37.7,122.8,60.9
				c48.5,18.8,111.4,25,181.8,17.7c64.1-6.6,95.6-34.9,126.2-62.3c5.7-5.1,12.4-12.5,19.7-21.7c22-34.2,43.2-72,51.7-117.3
				c-7.8,14.3-19.4,29.9-32.7,43.5l0,0c-21.2,21.8-36.2,30.1-36.8,30.4l-0.1,0.1c-0.2,0.1-22.2,10.4-48.2,16.8
				c-26.1,6.5-49.4,5.3-50.4,5.3c-0.7-0.1-65.9-6-112.5-24.6c-41.7-16.7-76.5-34.8-83.4-38.4c-8.5,4.7-59.9,33.6-89.5,52
				C1718.7,1124.7,1701.6,1140.8,1695.8,1146.5z"/>
		</g>
		<g>
			<g>
				<path class="st1" d="M2151.9,1136.8c-1,1.6-2,3.2-3,4.8C2149.9,1140,2150.9,1138.4,2151.9,1136.8z"/>
				<path class="st2" d="M2151,1143l-4.2-2.7c1-1.6,2-3.2,3-4.8l4.3,2.6C2153,1139.8,2152,1141.4,2151,1143z"/>
			</g>
			<path class="st2" d="M1876.6,1293.3c-2.2,0-4.4,0-6.6-0.1h-0.1c-2-0.2-3.6-0.3-4.9-0.5c-2-0.3-3.9-0.6-5.9-0.9
				c-24.2-3.8-54.3-8.4-102.9-32.5c-52-25.7-89.6-60.5-90-60.8l-0.2-0.2l-0.2-0.3c-0.2-0.4-5.4-9.2,4.3-25.9
				c9.1-15.7,19.6-26.3,20.1-26.8l1.4-1.4l1.7,1.1c0.6,0.4,57.2,36.1,125.5,62.6c48.5,18.8,111.4,25,181.8,17.7
				c64.1-6.6,95.6-34.9,126.2-62.3l1.7,1.9l-1.7-1.9c5.7-5.1,12.3-12.4,19.6-21.7l4.1,2.9c-26.3,40.8-60.7,74.6-102.3,100.3
				C1996.2,1276.4,1937.1,1293.3,1876.6,1293.3z M1870.2,1288.2c61.9,1.2,122.4-15.4,175.2-48.1c29.8-18.4,55.8-41.1,77.8-67.5
				c-29.2,25.9-61.3,51.1-122.2,57.5c-71.2,7.4-134.8,1.2-184.1-18c-62-24.1-114.5-55.7-124.6-61.9c-3.1,3.4-11,12.4-17.9,24.3
				c-7.2,12.4-5,19.2-4.5,20.5c3.8,3.4,39.7,35.6,88.4,59.7c48,23.7,77.6,28.3,101.5,32c2,0.3,4,0.6,6,0.9
				C1866.9,1287.9,1868.3,1288.1,1870.2,1288.2z"/>
			<polygon class="st2" points="2195,1008.7 2194.9,1008.6 2199.7,1007.2 			"/>
			<path class="st3" d="M2177,1086.7"/>
			<path class="st3" d="M2166.5,1110.4"/>
		</g>
		<path class="st2" d="M1870,1293.2c-73.9-1.5-140.8-23.9-193.7-64.7l-0.4-0.3l-0.2-0.4c-6-9.9-9.2-24.8-10.3-30.8l-1.4-7.4l5.5,5.2
			c0.4,0.3,37.4,34.7,88.8,60c48,23.7,77.6,28.3,101.5,32c2,0.3,4,0.6,6,0.9c1.1,0.2,2.6,0.3,4.5,0.5L1870,1293.2z M1679.8,1224.8
			c39.2,30.2,86.4,50.1,138.5,58.7c-16.9-4.6-37.1-11.9-62.1-24.2c-40.2-19.9-71.8-45.2-84.2-55.8
			C1673.5,1210,1676,1218.6,1679.8,1224.8z"/>
		<path class="st2" d="M1687.1,1236.8l-10.7-8.3c-36.3-28-61.7-54.9-80-84.5c-0.9-1.4-1.8-2.9-2.8-4.4c-2.5-3.9-5-7.9-7.1-11.8
			l-0.2-0.3l-0.1-0.3c-1.5-6.8-2.5-22.7-2.6-26.6c-1-24.3,3.1-45.1,27.6-85.3c24.6-40.5,55.5-73.2,106.6-112.9
			c38.2-29.7,79.3-56.9,97.6-68.4l3.1-1.9l0.7,3.6c18.8,97.7,18.8,216.9,18.8,218.1v2.3l-3.2,0.3c-5.6,3.1-59.5,33.4-90.2,52.4
			c-32,19.8-50.6,39.7-50.8,39.9c-0.2,0.2-10.5,10.7-19.3,25.8c-8.1,13.9-4.4,20.7-4.3,20.8l0.2,0.4l0.1,0.5
			c1,5.7,4.1,19.9,9.7,29.1L1687.1,1236.8z M1591,1125.8c2,3.6,4.4,7.5,6.8,11.2c0.9,1.5,1.9,3,2.8,4.4
			c16.6,26.7,39.1,51.3,70.5,76.6c-3-7.9-4.8-16.3-5.6-20.6c-1-2.1-4-10.7,4.6-25.4c9.1-15.7,19.6-26.3,20.1-26.8
			c0.1-0.1,19.2-20.6,51.7-40.7c32.3-20,90.3-52.4,90.9-52.8l0.2-0.1c-0.1-16.4-1.3-122.1-18-211.4c-19.5,12.3-58.1,38.1-94.1,66.1
			c-50.6,39.3-81.1,71.6-105.4,111.5c-26.2,43-27.7,62.8-26.8,82.5C1588.8,1105.9,1589.7,1119.8,1591,1125.8z"/>
		<g>
			<path class="st2" d="M1595,1143.6l-8.5-15.7c-34.3-63-47.6-131.8-38.4-199.2v-0.3l0.1-0.3c10.5-24.9,33.1-66.1,62.4-99.9
				c57.8-66.8,153.4-88.7,164.1-91l1.6-0.4l0.9,1.4c9.8,14.5,18.6,31.5,26.2,50.4c5.5,13.7,10.5,29.8,14.7,47.6l0.4,1.7l-1.5,1
				c-5,3.1-50.4,31.8-96.3,67.5c-50.6,39.3-81.1,71.6-105.4,111.5c-25,41.1-27.6,67.1-26.7,89.1c0.2,4.3,1,12.9,2.4,19.1
				L1595,1143.6z M1553,929.7c-8.3,61.6,2.4,124.4,31.1,182.8c-0.2-2-0.3-3.8-0.4-5.2c-1-22.8,1.7-49.7,27.4-91.9
				c24.6-40.5,55.5-73.2,106.6-112.9c43.1-33.5,85.7-60.8,95.2-66.8c-4.1-16.9-8.8-32.1-14-45.2c-7.2-18-15.6-34.2-24.8-48.1
				c-6.8,1.6-31.2,7.6-60.4,20.2c-42,18.1-75.4,41.3-99.3,68.9C1585.6,864.7,1563.3,905.1,1553,929.7z"/>
		</g>
	</g>
</g>
<path class="st1" d="M1508.8,1635.6c-131,58.5-174.2,111.8-323.5,110.3c-194.9-1.9-343.2-39.8-491-158.8
	c-126.3-101.7-178.5-240-189.5-419.9c-9.9-162,55.7-321.4,180.3-438.7C788.5,631.2,880.9,598,1026.9,581
	c85.2-9.9,217.7,7.3,343.6,39.3l33.7,329.2c-114.6-58.9-253.2-57.1-291-51.5c-47.1,7-126,25.7-170.9,76.4
	c-32.3,36.6-75.3,93.6-66,171.9c11.4,95.6,45.8,135.8,94.4,168c62,41.1,128.9,54.3,196.4,54.3c26,0,62.8-5.2,62.8-5.2
	s171.1-3.8,223.2-3L1508.8,1635.6z"/>
<path class="st1" d="M2541.6,1805.1c0,0-18.1,64.4-75,166.3c-37.1,70.1-116.1,181.6-188.7,248.4c-72.4,70.6-131.2,110.9-131.2,110.9
	c0-100.4-2.8-269.7-1-335.1l-174,357.8l-216.8-2.7L1597,2000.8c-2.2,75.7-6,432.4-6,532.8c0,0-54.9,4.4-121,2.6
	c-62-1.7-110.4-8.8-146.4-14.5c-97.6-15.7-160.1-39.4-160.1-39.4l60.4-1118.8l406.8-6.4l240.3,466.3l237.9-466.3l408.2-1
	L2541.6,1805.1z"/>
<path class="st4" d="M1452.6,1677.5c-129.4,44.7-310.8,43.3-370.3,36.5c-149.7-17-240-49.5-359.8-139.2
	c-123.1-92.3-183-242.5-193-414.4c-7.9-136.3,48.1-296.5,154.8-398.3c94.3-89.9,171.1-135.8,347.1-155.2
	c96.8-10.7,192.4,5.1,311.5,34.4l29.6,267.5c-93.6-41.1-202-41.5-266.9-37.7c-62.6,3.6-144.8,43.9-189.1,90.4
	c-48,48.9-78.6,115.8-69.8,195.9c8.8,79.2,45.7,138.4,105.4,176.3c54.3,34.6,117.2,56.8,178.6,58.3c79.5,1.9,115.3-9.3,115.3-9.3
	s97.8,0.7,173.2,0.7L1452.6,1677.5z"/>
<path class="st4" d="M2513.1,1823.2c0,0-61,143.9-139,250.4c-80,109.2-199.5,207.9-199.5,207.9c0-100.4,0,9,0-91.4
	c0-138.7-3.9-235.6-11.8-290.7l-208.1,429.5l-183-4.4l-193.3-425c-8.9,60-13.8,157-14.8,290.7c0,100.4,1.9,226.5,1.9,326.9
	c0,0-118.4,2-217.4-12.9c-63.8-9.6-156.7-32.9-156.7-32.9l53.9-1088.3h365.5l258.3,501.8l259.8-501.8h361.6L2513.1,1823.2z"/>
</svg>
