<?xml version="1.0" encoding="utf-8"?>
<!-- Generator: Adobe Illustrator 21.1.0, SVG Export Plug-In . SVG Version: 6.00 Build 0)  -->
<svg version="1.1" xmlns="http://www.w3.org/2000/svg" xmlns:xlink="http://www.w3.org/1999/xlink" x="0px" y="0px"
	 viewBox="0 0 5442.5 3061.4" style="enable-background:new 0 0 5442.5 3061.4;" xml:space="preserve">
<style type="text/css">
	.st0{fill:#FFFFFF;}
	.st1{fill:#82D0D8;}
	.st2{fill:#43BA49;}
	.st3{fill:#439E36;}
	.st4{fill:#292929;}
	.st5{opacity:0.2;}
	.st6{opacity:0.1;fill:#292929;}
	.st7{fill:#282828;}
	.st8{fill:#2C2C2C;}
	.st9{fill:#B53E35;}
	.st10{fill:#3A3A3A;}
	.st11{fill:#446BEA;}
	.st12{fill:#4B96EF;}
	.st13{fill:#CFD8DC;}
	.st14{fill:#345AC6;}
	.st15{fill:#ED8470;}
	.st16{fill:#492405;}
	.st17{fill:#FFA78F;}
	.st18{fill:#DB614D;}
	.st19{fill:#1A4850;}
	.st20{fill:#E0695C;}
	.st21{fill:#EF7F65;}
	.st22{fill:#C45933;}
	.st23{fill:#283F1F;}
	.st24{fill:#DD7040;}
	.st25{fill:#2F5123;}
	.st26{fill:#B54F2C;}
	.st27{fill:#C6D651;}
	.st28{fill:#7A4F2C;}
	.st29{clip-path:url(#SVGID_2_);}
	.st30{fill:none;stroke:#161616;stroke-width:1.125;stroke-miterlimit:10;}
	.st31{fill:none;stroke:#B1B1B1;stroke-width:1.125;stroke-miterlimit:10;}
	.st32{fill:#AA0C04;}
	.st33{fill:#3A200F;}
	.st34{fill:#C95932;}
	.st35{fill:#632616;}
	.st36{fill:#353535;}
	.st37{fill:#1C1C1C;}
	.st38{fill:#E2E2E2;}
	.st39{fill:#D3D821;}
	.st40{fill:#C0CBBC;}
	.st41{fill:#933F00;}
	.st42{fill:#FFBA97;}
	.st43{fill:#222733;}
	.st44{fill:#262B3A;}
	.st45{fill:#875DAF;}
	.st46{fill:#F49C76;}
	.st47{fill:#F2A786;}
	.st48{fill:#DD7657;}
	.st49{fill:#8E4006;}
	.st50{fill:#1A4F40;}
	.st51{fill:#4F291A;}
	.st52{fill:#E58563;}
	.st53{fill:#6097B2;}
	.st54{fill:#E0E0E0;}
	.st55{fill:#C4C4C4;}
	.st56{fill:#EFECE1;}
	.st57{fill:#D1CDBF;}
	.st58{fill:none;stroke:#736357;stroke-width:3;stroke-miterlimit:10;}
	.st59{fill:#E0DCCD;}
	.st60{fill:none;stroke:#192445;stroke-width:3;stroke-miterlimit:10;}
	.st61{fill:#FF9D66;}
	.st62{fill:#AD1F07;}
	.st63{fill:#EF8550;}
	.st64{fill:#BC6F2F;}
	.st65{fill:#EF8854;}
	.st66{fill:#242454;}
	.st67{fill:#2D2D5E;}
	.st68{fill:#EDBF64;}
	.st69{clip-path:url(#SVGID_4_);fill:#FF7B00;}
	.st70{clip-path:url(#SVGID_4_);fill:#FF8724;}
	.st71{clip-path:url(#SVGID_4_);fill:none;stroke:#333336;stroke-width:4.4749;stroke-miterlimit:10;}
	.st72{opacity:0.15;clip-path:url(#SVGID_4_);}
</style>
<g id="Warstwa_2">
</g>
<g id="Warstwa_1">
	<rect class="st0" width="5442.5" height="3061.4"/>
	<path class="st1" d="M3188.9,382c-522.4-27.9-1244.9-57.3-1276.6-6.1c-36.5,58.9-8.2,79.7,105.8,91.9c114,12.2,458,37,160.8,98.5
		s-691-42.5-1109-11.5c-418,31-527.9,9.2-535.9,80.1s0.5,98.9,206,111.9c205.5,13.1,961.5-15.3,961.5,86.6
		c0,140.4-1056.7,77.1-1257.1,76.7C244,909.8,154.7,934.7,166,1044.7c5.7,55.2,117,59.4,424.4,54.9
		c417.1-6.1,421.5,146.3,298.2,163.2c-265.4,36.4-589.9-28.8-590.3,103c-0.4,131.8,133.5,79.1,323.6,106.7
		c150.4,21.8,110.8,207.2-31.5,217c-109.5,7.6-151.7,57.3-143.6,121.4c6.1,48.1,109,88.6,265,88.6s489.9,54.2,384.4,161.6
		c-97,98.8-103.8,139.2-84.8,169.5c52.9,84.7,204,40.9,510.1,34.9c306.1-6.1,913-104.7,903.5,4.6c-9.5,109.3-570.3-5.9-563.6,131.1
		c8.6,176.2,613.3,63.3,847.6,62.7c234.3-0.6,1607.7,103.8,1609.8-60.3c1.5-115.7-437.1-58.2-436.6-122.9
		c0.5-64.7,240.6-54.8,500.8-48.9s707.5,78.4,743.9-20c56-151.4-450.9-156-720.2-180c-269.3-24-296-304.2,225.9-286.9
		c521.9,17.3,571.5,5.5,590.3-113.6c24-152-444.9-62.8-590.3-114.4c-145.4-51.6-213.5-219.6,92.4-214.8s651.1,17.1,651-104
		c-0.1-186.6-571.7-105.2-835.6-109.2s-237.7-8-250.2-77.2c-13.5-75.2,166.9-75.3,207.1-77.3c335.4-17,425.1,12.4,418.2-136.7
		c-2.7-57.3-338-73.3-432.5-63c-103.3,11.2-302.6,11.5-458.8-4.2s-472.6,21.5-534.1-21.2s-76.1-69,13.1-91.5
		c89.2-22.5,432.7-54.2,529.5-66.8s153.7-59.9,102.2-101c-78.5-62.8-642.9-68.6-723.6-68.4C3330.8,382.1,3188.9,382,3188.9,382z"/>
	<path class="st2" d="M5312.3,2896.9c0-207.6-1152.7-170.8-1314.7-188.1c-103.4-11.1-104-15.1-354-9.6s-294.4,2.9-254.7-13.1
		c44.1-17.8,58.9-117.1,7-73.8s-44.2,50.9-60.8,0.5c-27.5-83.4-39.5-83.4-47.4-22.9c-6,46.6,39.9,78-0.1,53.1
		c-67.1-41.8-93.6-36.7-55.1,20.2c38.5,56.8,39.9,37.3,39.9,37.3s-67.3-6.6-255.7-2.7c-188.4,4-222.1-13.7-741.2-0.5
		c-305.9,7.8-419.7,19-483.2,17.1c-51.2-1.5-54-5.7-28.5-53.2c25.8-48,1.4-85.5-46.3-6.7c-24.2,40-3.2-23.5-3.2-23.5
		s5.2-22.7-3-42.5c-19.3-47-30.5-47-42,0c-17.5,71.3-17.5,71.3-17.5,71.3s-49.3-100.2-52.6-49.7c-4.9,74.5,20.9,83.1,22.1,89.1
		c4.1,21.4-21,21.1-21,21.1s-326.2-15.3-571.2-20.6s-502.4,5.3-665.3,35.4s-233.7,50.6-233.7,96.1c0,54,38.1,81,179.4,86
		c141.3,5.1,1715.4,32.9,2352.5,25.9s1137.5,22,1325.3,2.3C4175.3,2925.6,5312.3,3031.8,5312.3,2896.9z"/>
	<path class="st3" d="M1232.5,2775.8c-112.7,9.2-257.1,34.1-212.9,69.7c44.2,35.5,330.4,45.1,397.3,38.3s193.3-38.6,162.9-58.6
		c-55.3-36.3-81.8-45.3-162.9-44.7S1232.5,2775.8,1232.5,2775.8z"/>
	<path class="st3" d="M436.5,2756.6c-85.2,4.5-162.3-6.3-165.2,24.7c-3.5,37.6,30.4,45,105.2,48.4s206.8-0.5,194.8-26.5
		c-12-26.1-56-54.1-80-50.1C467.3,2757.2,436.5,2756.6,436.5,2756.6z"/>
	<path class="st3" d="M1901.1,2805.5c0,45.4,16,54.9,76,68.1c60,13.2,225.5,33.3,364.7,33.2c139.3,0,242.6-6.5,322.9-33.2
		c80.3-26.8,98-34.6,83.2-56.7s-23.8-34-94.9-36.1c-71.1-2.1-240.6-31.4-356.2-20.7s-223.7-22-295.7,2.3
		S1901.1,2805.5,1901.1,2805.5z"/>
	<path class="st3" d="M2860.2,2822.3c-31.9,11.2-38.7,16.7-31.3,46c7.4,29.2,184.6,37.3,248,33.2c63.4-4,325,16,612.2,0
		c287.2-16,291.2-14.4,299.2-43.2c8-28.8-14-54.4-51-59.6c-37-5.2-284.1-24.8-400.6-19c-116.5,5.8-325-15.9-434.7-1.1
		C2992.3,2793.5,2860.2,2822.3,2860.2,2822.3z"/>
	<g>
		<g>
			<g>
				<path class="st0" d="M2435.2,2673.8c29.9-62.9,107.4-90.7,173.1-62.1c65.7,28.6,94.8,102.8,64.9,165.7
					c-29.9,62.9-107.4,90.7-173.1,62.1C2434.3,2811,2405.3,2736.8,2435.2,2673.8z"/>
				<g>
					<polygon class="st4" points="2582,2727.2 2516.8,2721 2516.9,2719.9 2582.2,2726.1 2582,2727.2 					"/>
					<path class="st4" d="M2615.1,2690.8L2615.1,2690.8l-1.1,0.3c0,0-2.3-8.4-6.7-19.3l0,0c-4.4-11-11.5-23.3-20-33.7l0.6-1.3
						l0.4,0.3C2606.5,2657.6,2615.1,2690.7,2615.1,2690.8L2615.1,2690.8z"/>
					<path class="st4" d="M2539.7,2631.5c-14.7,10.8-25.4,22.8-32.4,32.2l0,0c-7,9.4-10.3,16-10.3,16l0,0l-1.1-0.5
						c0,0,13.4-26.9,43.1-48.6l0,0L2539.7,2631.5L2539.7,2631.5z"/>
					<path class="st4" d="M2602.5,2774.9c-11.3,23.8-36,42.5-36,42.6l0,0l0,0l-0.7-0.9c0,0,6.1-4.7,13.7-12.3l0,0
						c7.5-7.6,16.4-18.2,22-29.9l0,0c0.8-1.7,1.5-3.4,2.2-5.1l0,0l1.1,0.4C2604.1,2771.5,2603.3,2773.2,2602.5,2774.9L2602.5,2774.9
						z"/>
					<path class="st4" d="M2502.1,2793.6c6.1,10.3,11.8,17.4,11.9,17.5l0,0l-0.9,0.7c0,0-23.2-28.6-26.3-54.8l0,0l1.2-0.1
						C2489.5,2769.6,2496,2783.2,2502.1,2793.6L2502.1,2793.6z"/>
					<path class="st4" d="M2673.9,2688.2c-7.5,15.8-22.1,24.8-22.1,24.8l0,0l0,0l-0.6-0.9c0,0,3.6-2.2,8.1-6.4l0,0
						c4.5-4.2,9.9-10.3,13.6-18l0,0c0.6-1.3,1.1-2.5,1.6-3.9l0,0l1.1,0.4C2675.1,2685.6,2674.6,2686.9,2673.9,2688.2L2673.9,2688.2z
						"/>
					<path class="st4" d="M2453.5,2682.3c2.9,4.9,5.5,7.4,5.5,7.4l0,0l0,0l-0.8,0.8c-0.1-0.1-10.8-10.3-13.1-30l0,0l1.2-0.1
						C2447.4,2670.1,2450.6,2677.4,2453.5,2682.3L2453.5,2682.3z"/>
					<path class="st4" d="M2451.1,2736.2c0,0-9,9-16,23.8l0,0c-0.8,1.6-1.5,3.4-2.2,5.1l0,0l-0.5-0.2c0.7-1.8,1.5-3.5,2.3-5.2l0,0
						c7.1-14.8,16.1-23.9,16.1-23.9l0,0L2451.1,2736.2L2451.1,2736.2z"/>
					<path class="st4" d="M2661.2,2791.6l-1.2,0.1c-0.4-3.7-3.9-11-7.3-17.4l0,0c-3.4-6.4-6.7-11.7-6.7-11.7l0,0l1-0.6
						C2647,2762,2660.3,2783.5,2661.2,2791.6L2661.2,2791.6z"/>
					<path class="st4" d="M2640.1,2820.4c-33.3,22.5-62.2,19.5-62.2,19.5l0,0l0,0l0.1-0.6c0,0,7.2,0.7,18.5-1.3l0,0
						c11.3-2.1,26.8-6.9,43.3-18.1l0,0L2640.1,2820.4L2640.1,2820.4z"/>
					<path class="st0" d="M2498.1,2829c0,0-29.9-10.6-51.6-32.3c0,0,24,25.8,50.9,33.7L2498.1,2829z"/>
					<path class="st4" d="M2526.9,2612.3c0,0-10.2-3.7-25.4,0.2c0,0,10.1-4.3,26.8-2.1L2526.9,2612.3z"/>
					<path class="st4" d="M2602.1,2621.8c0,0,13.4,0.6,34.4,8.5c0,0-19.4-9.4-34.2-10.6L2602.1,2621.8z"/>
				</g>
				<g>
					<path class="st4" d="M2582.7,2840.4c-20.3,10.6-50.1,9.1-50.1,9.1c-24.3-7.2-37.9-19.9-37.9-19.9l17.5-20.7
						c21.6,6.9,56.5,6.5,56.5,6.5L2582.7,2840.4z"/>
					<path class="st4" d="M2602,2775.4c0,0-16.2-39.9-22.8-48.5c0,0,27-28.9,33.6-39.1c0,0,27.9,7.2,42.8,22.7
						c0,0,4.1,25.6-7.5,54.6C2648.1,2765.1,2618.9,2776.1,2602,2775.4z"/>
					<path class="st4" d="M2590.1,2640.8c0,0-32.6-10.9-56.3-5.2c0,0-3.4-14.6-9.7-24.7c0,0,28.1-12.8,44.6-10
						c0,0,20.9,4.1,39.9,20.9C2608.6,2621.8,2599,2628.3,2590.1,2640.8z"/>
					<path class="st4" d="M2488.7,2761.3c0,0,22.3-28.9,32.7-40c0,0-15.7-31.1-21.9-46.9c0,0-34.4,3.9-43,12.9
						c0,0-12.9,24.4-8.5,52.1C2448,2739.5,2461.1,2757.1,2488.7,2761.3z"/>
					<path class="st4" d="M2487.6,2758.6c0,0,21.2-27.4,31.1-38c0,0-14.9-29.5-20.8-44.5c0,0-32.7,3.7-40.9,12.2
						c0,0-12.2,23.2-8.1,49.5C2449,2737.9,2461.4,2754.6,2487.6,2758.6z"/>
					<path class="st4" d="M2635.4,2824.3c16.5-11.7,29.7-27.7,38.2-46.7c0.1-0.2,0.2-0.4,0.3-0.6c-4,4.3-9.9,10.2-14.5,12.2
						C2659.4,2789.2,2648.6,2811.9,2635.4,2824.3z"/>
					<path class="st4" d="M2672.4,2688.6c0,0,6,5.9,10.7,14.2c-4.9-25.3-17.9-49-37.5-67.2
						C2655.1,2646.6,2670.7,2667.5,2672.4,2688.6z"/>
					<path class="st4" d="M2464,2634.4c-11.4,10.3-21,22.7-28.1,37c3.1-3.7,6.6-7,10.4-8.6C2446.3,2662.8,2453.3,2648.7,2464,2634.4
						z"/>
					<path class="st4" d="M2433.7,2762.4c-6.7-6.5-9.4-21.1-10.6-32c1,25.4,10.1,50,26,70.4
						C2439.3,2784.6,2433.7,2762.4,2433.7,2762.4z"/>
				</g>
				<g class="st5">
					<path class="st4" d="M2498.1,2674c0,0-30.3,2.8-41.1,12"/>
				</g>
			</g>
			<path class="st6" d="M2673.2,2777.5c19.8-41.6,13.8-88.1-11.5-123.1c-0.9,17.2-5.1,34.6-13,51.3
				c-33.6,70.8-120.9,102.1-194.8,69.9c-8.9-3.9-17.1-8.5-24.8-13.7c10.5,33.3,35.3,62.2,71,77.8
				C2565.8,2868.2,2643.3,2840.4,2673.2,2777.5z"/>
		</g>
		<g>
			<path class="st7" d="M2797.6,1971.9c11,60.9-241.7,464.8-241.7,464.8l-80.4-13.5c74.7-236.9,94.3-329.7,146.2-453.3
				c-93.3-150-340.2-428-340.2-428c66.8-30.6,211.6-102.1,211.6-102.1C2685.6,1739.9,2770.6,1821.9,2797.6,1971.9z"/>
		</g>
		<g>
			<path class="st8" d="M2097.8,1406.7c0,0-29.7,105-29.4,198.7c0,0,145.4,63.6,330.3-6.7c75.6-28.7,114-113,86.9-189.3
				c-0.3-0.9-0.6-1.8-1-2.7C2484.7,1406.7,2248.2,1397,2097.8,1406.7z"/>
		</g>
		<g>
			<g>
				<path class="st8" d="M2299.4,1517.1c0,0-29.8,219.5-63.6,576.1c-22,194.3-46.6,438-73.8,600.3h-87.7l-12.4-600.3
					c0,0-20.1-369.4,23.5-624L2299.4,1517.1z"/>
			</g>
			<g>
				<path class="st9" d="M2238.8,2814.9c-2.5,50.5-160.3,33.1-185.5,17.9c-9.7-5.9-13.8-17.1-14.6-30.8
					c-1.2-21.8,5.9-49.6,12.1-71.5c10.1-35.6,8.7-34.9,15.7-59.2c0,0-1.8-39.5,49.9-54.6c51.7-15.1,70.7,83.3,79.5,102.2
					c8.1,17.3,39.5,41.1,42.7,83.7C2238.9,2806.7,2239,2810.7,2238.8,2814.9z"/>
				<path class="st0" d="M2088.3,2703.4l-4.1-6.3c1.9-1.3,47.5-30.5,87.2-13.1l-3,6.9C2132.4,2675.1,2088.8,2703.1,2088.3,2703.4z"
					/>
				<path class="st0" d="M2092.8,2747.3l-4.1-6.3c1.9-1.3,47.5-30.5,87.2-13.1l-3,6.9C2136.9,2719,2093.3,2747,2092.8,2747.3z"/>
				<path class="st0" d="M2090.6,2725.3l-4.1-6.3c1.9-1.3,47.5-30.5,87.2-13.1l-3,6.9C2134.6,2697,2091,2725,2090.6,2725.3z"/>
				<circle class="st0" cx="2085.8" cy="2701.4" r="8.5"/>
				<circle class="st0" cx="2086.3" cy="2722.2" r="8.5"/>
				<circle class="st0" cx="2090.8" cy="2743" r="8.5"/>
				<circle class="st0" cx="2174.4" cy="2730.7" r="8.5"/>
				<circle class="st0" cx="2172.2" cy="2708" r="8.5"/>
				<circle class="st0" cx="2169.9" cy="2685.3" r="8.5"/>
				<path class="st10" d="M2238.8,2814.9c-2.5,50.5-160.3,33.1-185.5,17.9c-9.7-5.9-13.8-17.1-14.6-30.8c16.6,9.5,45.8,21.2,89.4,22
					c53.5,1,92.1-9.9,110.5-21.3C2238.9,2806.7,2239,2810.7,2238.8,2814.9z"/>
				<path class="st0" d="M2138.7,2632.4c0,0-24-2.5-44.4,8.8l2.3,16c0,0,28.6-8.4,47.5-7.1
					C2144.2,2650.1,2143.8,2639.6,2138.7,2632.4z"/>
			</g>
		</g>
		<path class="st11" d="M2891.3,299.3c0,0-3.5-28.5-49.9-42.2c-35.7-10.5-55.2,5.2-55.2,5.2c-39.8,56.2-133.1,288.8-143.9,294.9
			c-5.4,3.1-323.1,103.7-323.1,103.7c143.1,45,180.7,248.8,180.7,248.8c21.8-56.9,252.2-240.1,260-260.2
			C2774.7,611.7,2894.4,458.4,2891.3,299.3z"/>
		<path class="st11" d="M2063.1,1415.4c0,0-0.8,57.6,14.4,65.6s120.2,77.6,291.7,53.3c171.6-24.3,203.8-75,170.5-125.9
			C2506.3,1357.5,2063.1,1415.4,2063.1,1415.4z"/>
		<path class="st12" d="M2216.8,668.4c0,0-132.9-56.8-221.9-45.8c0,0-47.9,108.3-3.7,358.9c44.2,250.6-24.4,363.8,82.7,451.6
			c94.9,77.9,457.6,36.5,478.3-7.3c53-112.4-46.5-373.1-44.5-491.1C2509.9,813,2456,613.6,2216.8,668.4z"/>
		<path class="st11" d="M1994.9,622.6c-83.4,4.6-144.8,100.4-183.1,154.8c-38,54-123.4,272.6-126,284c-84,362.7-55.8,312.6,0,331.8
			c31.7,10.9,44,20.2,71.1-34.8c26.3-53.4,38.6-135.9,38.6-135.9l142.3-309.5l38.7-29.9c0,0,46.3-73.3,44.7-167.6
			C2019.6,621.2,1994.9,622.6,1994.9,622.6z"/>
		<g>
			<path class="st13" d="M2283.4,800.5c0.3-14.2-1.3-43.7,0-54c4.6-35.8,30-40.9,31.6-41.2l1.9,10.1c-1.3,0.3-19.7,5.8-23.4,34.1
				c-1,7.5,1,39.8,0.7,60.8c-0.4,31.8-4,99.5-4,99.4l-8.9,0C2281.4,910.4,2282.9,828.8,2283.4,800.5z"/>
		</g>
		<g>
			<path class="st13" d="M2195.1,934.7c-16.8-14.4-39.7-56.9-34.4-93.3c2.7-18.5,8.7-32.9,14-45.6c7.8-18.7,13.9-33.4,8.1-54.9
				c-9.7-35.6-34.3-45-35.4-45.4l3.5-9.7c1.2,0.4,30.7,11.4,41.8,52.4c6.8,25-0.6,42.8-8.5,61.6c-5.3,12.7-10.8,25.8-13.3,43.1
				c-5.7,39.3,30.7,81.8,30.7,81.8S2196.5,935.1,2195.1,934.7z"/>
		</g>
		<path class="st11" d="M2291.4,735c0,0,87.4-28.2,85.9-86.9c-1.5-58.7-196.7-151.2-316.3-77.6c-78.2,48.2,99.4,145.2,99.4,145.2
			C2183.9,690.2,2279.5,714.8,2291.4,735z"/>
		<path class="st14" d="M2163,688.2c-31.1-21.9-44.2-52.8-28.4-79.4c15.9-26.6,164.6,16.3,186,47.6
			C2342,687.6,2275.5,767.3,2163,688.2z"/>
		<path class="st15" d="M2170.4,602.4c0,0,4.4,54.1-7.4,85.7c0,0,94.2,67,111.4,8.4c0,0-0.5-43.4,9-76L2170.4,602.4z"/>
		<g>
			<path class="st16" d="M2148.8,546.5c0,0-27.3-97.6,0.7-175c14-38.7,38.8-48.2,38.8-48.2s-9.7-27.5,18.1-57.1
				c0,0,3.7,26.1,92.8,30.3c96.2,4.5,86.5,97.6,86.5,97.6c56.1,26-35.7,191.9-82,198L2148.8,546.5z"/>
			<path class="st15" d="M2149.3,464c0,0-20.9-38.2-34.7-4.8c-16,38.8,15.6,65.6,26.5,54.9C2151.9,503.5,2149.3,464,2149.3,464z"/>
			<path class="st15" d="M2356,527c0,0,38.3-20.8,31.8,14.8c-7.5,41.3-48.6,46.7-52,31.9C2332.5,558.8,2356,527,2356,527z"/>
			<path class="st17" d="M2207.3,638.4c-49.5-15.9-90.1-73.1-52.3-201.8c19.5-66.4,65.3-97.2,138.8-75.5
				c73.6,21.6,92.6,71.5,73.1,137.8C2326.2,637.2,2256.4,654.2,2207.3,638.4z"/>
			
				<ellipse transform="matrix(0.113 -0.9936 0.9936 0.113 1520.9794 2777.0801)" class="st18" cx="2315.9" cy="536.7" rx="12.6" ry="15.8"/>
			
				<ellipse transform="matrix(0.3439 -0.939 0.939 0.3439 964.0584 2373.5515)" class="st18" cx="2180.6" cy="496.9" rx="12.6" ry="15.8"/>
			<g>
				<path class="st16" d="M2323,460.9c-0.9-0.1-1.7-0.6-2.3-1.4c-8.1-11.1-24.6-12.9-24.9-12.9c-1.8-0.2-3.2-1.9-3.1-3.7
					c0.2-1.9,1.9-3.2,3.7-3.1c0.7,0.1,19.8,2.1,29.7,15.7c1.1,1.5,0.8,3.7-0.7,4.8C2324.7,460.9,2323.8,461.1,2323,460.9z"/>
			</g>
			<g>
				<path class="st16" d="M2197.1,424.4c-0.8-0.3-1.4-1-1.8-1.8c-0.7-1.7,0.1-3.7,1.8-4.5c15.4-6.5,32.9,1.5,33.5,1.9
					c1.7,0.8,2.4,2.8,1.6,4.5c-0.8,1.7-2.9,2.4-4.6,1.6c-0.1-0.1-15.4-7.1-27.9-1.7C2198.9,424.8,2198,424.8,2197.1,424.4z"/>
			</g>
			
				<ellipse transform="matrix(0.2821 -0.9594 0.9594 0.2821 1175.5226 2558.1523)" class="st19" cx="2297.1" cy="493.6" rx="15.4" ry="8.6"/>
			
				<ellipse transform="matrix(0.2821 -0.9594 0.9594 0.2821 1137.2931 2455.4763)" class="st19" cx="2209.4" cy="467.8" rx="15.4" ry="8.6"/>
			<path class="st16" d="M2202.4,349.7c0,0,62.5,46.2,164.9,68.5c0,0,13.6,33-16.7,126.3c0,0,108.6-152.2-62.9-202.7
				c-171.6-50.4-143,138-143,138S2161.2,372.1,2202.4,349.7z"/>
			<g>
				<path class="st20" d="M2244.9,525.9l-3.5-6.4l18.4-3.7c-7.4-21.5,3.2-68.1,3.8-70l7,2.1c-0.1,0.4-13.2,44.8-4.5,62.5l2.6,10.5
					L2244.9,525.9z"/>
			</g>
			<path class="st19" d="M2190,541.4c0,0,36.3,30.5,99,22.7c0,0-8.1,48.7-58.8,36.3C2176.5,587.3,2190,541.4,2190,541.4z"/>
		</g>
		<g>
			<path class="st17" d="M2945.9,173.1c-9.5,6-30.5,34-30.5,34c-12.7,25-19.9,38.8-32.7,48.2c-12.7,9.4-14.2,32.3-14.2,32.3
				s-41.4,7.9-64.9-23.8c0,0,9.4-20.3,8-27.2c-2.7-13.9-20.7-26.1-20.4-52.4c0.4-26.4-17.5-75.5-17.5-75.5s9.6-6.2,18,4.7
				c8.5,11,14.9,43.6,20.1,47.3c1.1,0.7,2.2,1.4,3.3,1.8c0,0,0.1,0,0.3,0.2c4.3,1.9,9.1,2.2,12.6,0.4c0.2,0,0.6-0.2,0.9-0.4
				c13.1-8.5,25.2-41.2,29.2-56.2c5.5-20.9,19.1-58.4,30.3-49.8c11.2,8.6-8.1,25.8-11.8,74.3l4.6,2c-0.1,3.5,22-33,32.6-61.5
				c7.4-19.6,18.3-9.4,19.3-2.2c1.1,7.2-13.4,34.9-18.5,49.1c-3.5,9.4-7.2,19.1-9.5,24.9l4.6,4.7c30.2-28.9,35.5-58.1,47.4-55.4
				c11.8,2.7-9,43.6-18.4,52.9c-4.1,4.1-9.6,13.4-14.6,22.6c27.4-17.6,36.1-42.4,45-38.2C2978.3,134.4,2955.4,167.1,2945.9,173.1z"
				/>
			<path class="st21" d="M2841.7,201.6c-1.3-21.1-23.4-37-26.2-38.9c4.3,1.9,9.1,2.2,12.6,0.4C2849.1,181,2841.7,201.6,2841.7,201.6
				z"/>
		</g>
		<path class="st11" d="M2178.3,1142c0,0-7.8,166.7-79.7,199.7c-70.9,32.6-20.2,4.6,15.7-61.2
			C2150.4,1214.7,2158,1121.3,2178.3,1142z"/>
		<path class="st11" d="M2447.7,1148.6c0,0,67.7,84.8,93.3,149.3c0,0-1-29.4-19.5-72.5S2467.3,1125.3,2447.7,1148.6z"/>
		<path class="st17" d="M1572.8,1477.7c9.5-5.9,30.7-33.8,30.7-33.8c12.9-24.9,20.2-38.6,33.1-47.9c12.8-9.3,14.5-32.2,14.5-32.2
			s41.4-7.6,64.7,24.3c0,0-9.6,20.2-8.2,27.2c2.6,13.9,20.5,26.3,20,52.6c-0.6,26.4,16.9,71.6,16.9,71.6s-10.4,8.1-18.7-2.8
			c-8.4-11-13.9-41.7-19.1-45.4c-1.1-0.8-2.2-1.4-3.3-1.9c0,0-0.1,0-0.3-0.2c-4.3-1.9-9.1-2.3-12.6-0.5c-0.2,0-0.6,0.1-0.9,0.4
			c-13.2,8.4-25.5,41-29.6,56c-5.7,20.9-16,58.2-27.2,49.6c-11.1-8.6,4.8-25.7,8.8-74.3l-4.5-2c0.1-3.5-18.3,24.6-28.8,53.2
			c-9.9,27.1-19.6,18.3-20.6,11.1c-1-7.2,10.6-35.8,15.9-50c3.6-9.3,7.4-19.1,9.7-24.8l-4.6-4.7c-30.4,28.6-34.5,60.4-46.3,57.5
			c-11.7-2.8,7.8-46.1,17.4-55.3c4.1-4,9.7-13.3,14.8-22.5c-27.5,17.4-36.5,44.8-45.4,40.5C1540,1518.9,1563.3,1483.7,1572.8,1477.7
			z"/>
		<g>
			<g>
				<g>
					<path class="st9" d="M2716.5,2656.7l-276-76.6c-13.1-3.6-21-16.3-19.2-29.2c0.3-1.8,0.7-3.6,1.3-5.4l51.4-141.8
						c0,0,13-2.1,30.1-1.5c10.2,0.4,20.1-4.3,25.6-12.9c0.4-0.6,0.8-1.3,1.1-1.9c14.1-26.1,56.8-23.9,56.6,5.5
						c0,3.8-0.1,7.4-0.3,10.9c0,0.9-0.1,1.7-0.2,2.6c-0.4,6.2-1.1,11.8-1.8,16.7c0,0.1,0,0.2,0,0.3c-1.8,12.4-4.1,20.1-4.1,20.1
						c2.4,5.7,4.6,11.2,6.8,16.6c1.1,2.7,2.2,5.4,3.3,8.1c2.3,5.7,4.6,11.3,6.8,16.7c1,2.5,2.1,5,3.1,7.4c2.5,5.9,5,11.4,7.6,16.7
						c1.2,2.4,2.3,4.7,3.6,7c10.1,18.9,21.6,33.1,37.9,40.2c28.8,12.4,76.8,29.3,88.2,79.7c0.3,1.1,0.4,2.1,0.4,3.1
						C2739.4,2650.6,2728.3,2660,2716.5,2656.7z"/>
				</g>
			</g>
			<g>
				<g>
					<path class="st10" d="M2716.5,2656.7l-276-76.6c-13.1-3.6-21-16.3-19.2-29.2l317.5,88.1
						C2739.4,2650.6,2728.3,2660,2716.5,2656.7z"/>
				</g>
			</g>
			<g>
				<g>
					<g>
						<g>
							<path class="st0" d="M2591.2,2468.2c-4.5,3.8-12.6,7.7-27.2,9.3c-2.5,0.3-5.2,0.5-8,0.6l-0.4-7.9c2.9-0.1,5.4-0.3,7.8-0.6
								c16.8-1.9,22.6-6.7,24.5-9.5C2589.1,2462.9,2590.2,2465.6,2591.2,2468.2z"/>
						</g>
					</g>
				</g>
				<g>
					<g>
						<g>
							<g>
								
									<ellipse transform="matrix(0.2673 -0.9636 0.9636 0.2673 -511.5532 4275.6729)" class="st0" cx="2555.8" cy="2474.2" rx="8.9" ry="8.9"/>
							</g>
						</g>
					</g>
				</g>
			</g>
			<g>
				<g>
					<g>
						<g>
							<path class="st0" d="M2601.2,2492.3c-4.6,2.8-11.6,5.4-22.2,6.7c-3,0.4-6.1,0.7-9.7,0.8l-0.4-7.9c3.3-0.2,6.2-0.4,8.9-0.7
								c10.8-1.3,16.8-3.9,20.2-6.3C2599.1,2487.4,2600.1,2489.9,2601.2,2492.3z"/>
						</g>
					</g>
				</g>
				<g>
					<g>
						<g>
							<g>
								
									<ellipse transform="matrix(0.2673 -0.9636 0.9636 0.2673 -521.9905 4305.9863)" class="st0" cx="2570.5" cy="2496.2" rx="8.9" ry="8.9"/>
							</g>
						</g>
					</g>
				</g>
			</g>
			<g>
				<g>
					<g>
						<g>
							<path class="st0" d="M2612.4,2516.1c-4.6,2.7-11.4,5-21.5,6.3c-3,0.4-6.2,0.7-9.8,0.9l-0.4-7.9c3.3-0.2,6.3-0.4,9-0.8
								c9.6-1.2,15.5-3.4,19.1-5.6C2610,2511.4,2611.1,2513.8,2612.4,2516.1z"/>
						</g>
					</g>
				</g>
				<g>
					<g>
						<g>
							<g>
								
									<ellipse transform="matrix(0.2673 -0.9636 0.9636 0.2673 -535.8454 4334.6631)" class="st0" cx="2582.5" cy="2519.7" rx="8.9" ry="8.9"/>
							</g>
						</g>
					</g>
				</g>
			</g>
			<g>
				<g>
					<g>
						<path class="st0" d="M2585.3,2423.1c-12.6-3.7-25-5.4-25-5.4l4-13.8c8.3-0.7,16.2,0.7,22.8,2.5
							C2586.6,2412.6,2586,2418.3,2585.3,2423.1z"/>
					</g>
				</g>
			</g>
		</g>
	</g>
	<g>
		<path class="st22" d="M1124.2,1527.2c0,0-46.4,204.3-209.4,402.5c0,0,38.5,170.9-433.2,578.6l-45.1-35.5
			c0,0,235.6-294.2,308.1-525.5c40-127.5-7.2-200.8,207.9-548.2L1124.2,1527.2z"/>
		<path class="st23" d="M920.1,1274.7c-68,130.2-90.8,296.7-90.8,296.7l-31,78.1c0,0,109.8,59.2,236.6,80.8l50.9-134.6L920.1,1274.7
			z"/>
		<path class="st24" d="M1274.7,1536.4c0,0,33.7,170.5,28.1,427.1c0,0,132.6,195.6,23.2,753.7h-57.4c0,0-46.9-474.8-82.8-603.5
			c-35.9-128.7-120.5-161.1-158.9-560.5L1274.7,1536.4z"/>
		<g>
			<path class="st25" d="M1308.3,1719.4c0,0-108,19.4-298.2,10.4l-3-21.4l-0.8-5.5l-19.7-138.7c0,0-18.3-22.6-37.1-59.4
				c-2.3-4.3-4.4-8.7-6.6-13.4c-25.6-54.6-48.3-133.9-22.8-216.7l40.2,1.8l5.6,0.3l134.4,6.1l5.7,0.3l44.1,2l6.9,0.3l28.6,1.3
				c0,0,145.6,131,119.6,373.3l1.8,33.7l0.2,5.5L1308.3,1719.4z"/>
			<g>
				<path class="st23" d="M965.8,1276.9c-3.8,11.1-29.2,93.4-16.4,227.9c-2.3-4.3-4.4-8.7-6.6-13.4
					c-9.6-123.1,12.5-199.8,17.3-214.9c0.6-1.8,1-2.7,1-2.8l5.1,1.8C966.2,1275.7,966,1276.1,965.8,1276.9z"/>
				<path class="st23" d="M1307.2,1699.5c-38.2,9.8-103,12.5-164.6,12.5c-55.2,0-107.7-2.3-135.6-3.6l-0.8-5.5
					c48.3,2.4,175.6,7.3,257.7-1.6l-5.3-86.7c1.3-101.1-29.3-187.5-58.8-247.1c-74.7-13.6-95.3-68.9-99.7-84.5c-0.6-2.5-1-4-1-4.1
					l5.3-0.9c0,0.1,0.4,2,1.4,5.3c4.8,16.2,24.9,64.3,90.9,78.1c-19.9-38.9-38.8-65.5-46.7-76c-2.4-3.2-3.9-5.1-4-5.2l4.1-3.4
					c0.2,0.2,2.7,3.2,6.8,8.9c25,33.9,109.3,161.5,107.1,328.7l5.3,86.2c14.3-1.7,27.1-3.9,37.7-6.7L1307.2,1699.5z"/>
			</g>
		</g>
		<path class="st24" d="M1335.5,788c0,0-72.5,53.8-30.3,135.9l201.1,208.2c-110.4,117.6-121.3,165.9-201.1,220.1l30.3,46.9
			c0,0,279.4-214.7,279.8-267C1615.5,1109.8,1444.7,839.1,1335.5,788z"/>
		<path class="st24" d="M1300.8,1352.3c0,0-37.9,6.3-62.5,10.3c-29.5,4.8-94.6,9.1-76.4,20.6c4.3,2.7,72.3-3.5,72.3-3.5
			s-65.7,15.7-76.7,21.7c-4.9,2.7,3.4,8.6,19.7,6.1c26-4,68.1-7.7,68.1-7.7s-70.7,31.6-66.5,36.4c6.2,7.2,10.8,3.9,40-7.4
			c18.4-7.1,38.9-9.9,38.9-9.9l-34.7,40.2c8,0,8.5,8.1,44-23.8c19.5-17.5,45.5-13.2,67.7-30.5
			C1356.9,1387.5,1321,1349.7,1300.8,1352.3z"/>
		<path class="st24" d="M710.7,925.2C731.4,858,834.7,704.4,897.8,647l31.2,27.7c0,0-82.8,134.1-96.7,200.4
			c-3.7,17.8,160.4-106.5,203.7-114.4c53.5-9.7,74,66.2-5.1,112.1c-7.5,4.3-80,55.6-154.2,92.2c-71,35-143.8,55.5-152.5,54.9
			C677.8,1016.5,706.3,939.4,710.7,925.2z"/>
		<path class="st26" d="M832.7,876.7c-4.6,24.1-0.8,4.4-4,20.9c-2.9,15.4-7.8,19.3,23-9.9c16.5-15.6,30.8-38.3,30.8-38.3
			L832.7,876.7z"/>
		<path class="st27" d="M1057.9,756.9c0,0,41.5-6.4,123.6,12.6c82.1,19,183,11.8,160.2,27.6c-24.4,16.9-26.4,29.7-36.5,106.9
			c-6.5,49.7-21.4,135.8-48.5,200.8c-13.4,32-62.6,106.8-71.2,182.2c0,0-142.5,41.4-265.4-12.3c0,0-1.4-201,9.6-255
			C875.7,929,980.7,914.4,1057.9,756.9z"/>
		<g>
			<path class="st24" d="M976,613.6c-7.7,5.9-18.3,50.3-46.3,62c-25.5,10.7-39.1-21.3-39.1-21.3c4.2-29.5,4.9-55.8,36.1-68.7
				c16.1-6.7,28.3-14.1,30.5,10.1c0.5,5.5,0.7,8.9,0.7,8.9C967.6,596.6,976,613.6,976,613.6z"/>
			<path class="st26" d="M957.1,596.6c0.4,5.5,0.5,8.9,0.5,8.9s-17.7,3.1-25.1,25.1C932.5,630.6,929.2,604.7,957.1,596.6z"/>
		</g>
		<path class="st22" d="M1251.2,626.8c0,0-39.5,72.9-38.9,153.8c0,0-64.1,43.6-87.1-11c0,0,24.4-71.5,12.6-168.1
			C1129.9,536.9,1251.2,626.8,1251.2,626.8z"/>
		<g>
			<path class="st28" d="M1414.8,552.3c101.6-43.1,155.9-144.4,121.2-226.3c-34.7-81.9-145.2-113.4-246.8-70.4
				c-70.5,29.9-118.2,87.8-129.2,147.8c0,0,0,0,0-0.1c0,0-11.9,53.2-104.7,99.6L842,593.4l19.1,45.2l217.1-92
				c15.4-6.1,76-26.6,147.1-0.2c0,0,0,0-0.1,0C1275.8,576.5,1347.3,580.9,1414.8,552.3z M1192.9,471.4
				c-30-70.8,16.9-158.4,104.8-195.6c87.9-37.2,183.4-10,213.4,60.8c30,70.8-16.9,158.4-104.8,195.6
				C1318.5,569.4,1222.9,542.2,1192.9,471.4z"/>
			<g>
				<defs>
					<path id="SVGID_1_" d="M1192.9,471.4c-30-70.8,16.9-158.4,104.8-195.6c87.9-37.2,183.4-10,213.4,60.8
						c30,70.8-16.9,158.4-104.8,195.6C1318.5,569.4,1222.9,542.2,1192.9,471.4z"/>
				</defs>
				<clipPath id="SVGID_2_">
					<use xlink:href="#SVGID_1_"  style="overflow:visible;"/>
				</clipPath>
				<g class="st29">
					<g>
						<line class="st30" x1="1401.2" y1="182.5" x2="1545.3" y2="522.7"/>
						<line class="st30" x1="1420.1" y1="174.5" x2="1564.2" y2="514.7"/>
						<line class="st31" x1="1439" y1="166.5" x2="1583.1" y2="506.7"/>
						<line class="st30" x1="1382.3" y1="190.5" x2="1526.4" y2="530.7"/>
						<line class="st30" x1="1363.4" y1="198.5" x2="1507.6" y2="538.7"/>
						<line class="st30" x1="1344.6" y1="206.5" x2="1488.7" y2="546.7"/>
						<line class="st30" x1="1325.7" y1="214.5" x2="1469.8" y2="554.7"/>
						<line class="st30" x1="1306.8" y1="222.5" x2="1450.9" y2="562.7"/>
						<line class="st30" x1="1287.9" y1="230.5" x2="1432" y2="570.7"/>
						<line class="st30" x1="1269" y1="238.5" x2="1413.1" y2="578.7"/>
						<line class="st30" x1="1250.1" y1="246.5" x2="1394.2" y2="586.7"/>
						<line class="st30" x1="1231.2" y1="254.5" x2="1375.3" y2="594.7"/>
						<line class="st30" x1="1212.3" y1="262.5" x2="1356.4" y2="602.7"/>
						<line class="st30" x1="1193.4" y1="270.5" x2="1337.5" y2="610.7"/>
						<line class="st30" x1="1174.5" y1="278.5" x2="1318.6" y2="618.7"/>
						<line class="st30" x1="1155.6" y1="286.5" x2="1299.7" y2="626.7"/>
						<line class="st30" x1="1136.8" y1="294.5" x2="1280.9" y2="634.7"/>
						<line class="st31" x1="1117.9" y1="302.5" x2="1262" y2="642.7"/>
					</g>
					<g>
						<line class="st30" x1="1559.8" y1="435.3" x2="1219.5" y2="579.4"/>
						<line class="st30" x1="1568.1" y1="455" x2="1227.9" y2="599.1"/>
						<line class="st31" x1="1576.5" y1="474.6" x2="1236.2" y2="618.7"/>
						<line class="st31" x1="1584.8" y1="494.3" x2="1244.5" y2="638.5"/>
						<line class="st30" x1="1551.4" y1="415.6" x2="1211.2" y2="559.7"/>
						<line class="st30" x1="1543.1" y1="395.9" x2="1202.8" y2="540"/>
						<line class="st30" x1="1534.8" y1="376.2" x2="1194.5" y2="520.3"/>
						<line class="st30" x1="1526.4" y1="356.5" x2="1186.2" y2="500.6"/>
						<line class="st30" x1="1518.1" y1="336.8" x2="1177.8" y2="480.9"/>
						<line class="st30" x1="1509.7" y1="317.1" x2="1169.5" y2="461.2"/>
						<line class="st30" x1="1501.4" y1="297.4" x2="1161.1" y2="441.5"/>
						<line class="st30" x1="1493.1" y1="277.7" x2="1152.8" y2="421.8"/>
						<line class="st30" x1="1484.7" y1="258" x2="1144.4" y2="402.1"/>
						<line class="st30" x1="1476.4" y1="238.3" x2="1136.1" y2="382.4"/>
						<line class="st30" x1="1468" y1="218.6" x2="1127.8" y2="362.7"/>
						<line class="st31" x1="1459.7" y1="198.9" x2="1119.4" y2="343"/>
						<line class="st31" x1="1451.3" y1="179.2" x2="1111.1" y2="323.3"/>
					</g>
				</g>
			</g>
			<path class="st32" d="M869.7,635.4l-0.2-0.4l196.3-83.2l-19.1-45.2l-196.3,83.2l-0.2-0.4c-2.3-5.5-8.6-8-14.1-5.7
				c-5.5,2.3-8,8.6-5.7,14.1l19.5,46c2.3,5.5,8.6,8,14.1,5.7C869.5,647.2,872,640.9,869.7,635.4z"/>
		</g>
		<path class="st33" d="M1349.9,442.1c0,0,64.8,6.4,28.3,66.3c30.5,23.2,17.2,54.9,0,72.7c8.2,25.9-9.1,53-34.5,64.1
			c-33.9,19.5-252.7-47.8-249.7-105c-27.8-3.9-37.3-60,6.1-70.5c-22.5-34.8,20.6-83.4,62.5-58.9c25.2-84.5,101-40,101-11
			C1307,352.6,1370,402.8,1349.9,442.1z"/>
		<g>
			<path class="st24" d="M1118.5,528.6c0,0-11.7-41.8-32.6-12.4c-24.2,34,0.5,67.1,13.4,59.2
				C1112.2,567.5,1118.5,528.6,1118.5,528.6z"/>
			<path class="st24" d="M1305,636.1c0,0,41.8-11.6,27.5,21.5c-16.6,38.3-57.6,34.4-57.6,19.3C1275,661.7,1305,636.1,1305,636.1z"/>
			<path class="st24" d="M1135.7,710.9c-38.5-20.3-71.1-91.2-5.5-207.5c33.8-60,85.1-79.7,151.6-42.2c66.6,37.5,73.8,90.1,40,150.1
				C1251.4,736.3,1171.3,729.7,1135.7,710.9z"/>
			
				<ellipse transform="matrix(0.3337 -0.9427 0.9427 0.3337 242.2056 1615.549)" class="st34" cx="1263.9" cy="636.4" rx="12.6" ry="15.8"/>
			
				<ellipse transform="matrix(0.5463 -0.8376 0.8376 0.5463 42.5363 1213.5911)" class="st34" cx="1141.5" cy="567.5" rx="12.6" ry="15.8"/>
			<g>
				<path class="st33" d="M1287.2,566.4c-1.5,0-2.9-1-3.3-2.6c-3.4-13.3-18.1-21.1-18.2-21.1c-1.7-0.9-2.3-2.9-1.4-4.6
					c0.9-1.7,2.9-2.3,4.6-1.4c0.7,0.4,17.5,9.3,21.7,25.5c0.5,1.8-0.6,3.7-2.5,4.1C1287.8,566.4,1287.5,566.4,1287.2,566.4z"/>
			</g>
			<g>
				<path class="st33" d="M1205.6,508.4c-0.6,0-1.2-0.2-1.8-0.5c-0.1-0.1-14.5-8.6-27.5-4.6c-1.8,0.6-3.7-0.5-4.3-2.3
					c-0.5-1.8,0.5-3.7,2.3-4.3c16-4.9,32.3,4.9,33,5.3c1.6,1,2.1,3.1,1.1,4.7C1207.9,507.8,1206.8,508.4,1205.6,508.4z"/>
			</g>
			
				<ellipse transform="matrix(0.4907 -0.8714 0.8714 0.4907 124.8615 1394.5242)" class="st33" cx="1255.3" cy="590.5" rx="15.3" ry="8.5"/>
			
				<ellipse transform="matrix(0.4907 -0.8713 0.8713 0.4907 121.3377 1299.1417)" class="st33" cx="1172" cy="545.8" rx="15.3" ry="8.5"/>
			<path class="st35" d="M1141,622.2c0,0,42.5,35.4,67.1,36.2c0,0-31.4,18.5-50.3,4.7C1139.1,649.2,1141,622.2,1141,622.2z"/>
			<polygon class="st33" points="1261.4,582.8 1281.5,580.3 1263.1,577 			"/>
			<path class="st33" d="M1297.5,486c0,0-21.3-29.6-50.7-6.1c-29.4,23.5-95.7,61.1-128.3,48.7c-32.6-12.4,71.4-151.4,161.6-110.7
				c90.3,40.7,82.2,173.2,44.6,215.3c-37.6,42.1-19.8,2.9-19.8,2.9s2.5-59.8,15.1-99.4C1332.6,497.1,1297.5,486,1297.5,486z"/>
			<g>
				<path class="st26" d="M1196.3,620c-1.7,0-19-3.4-21.1-12.3c-1.6-6.6,0-6.6,2-10.6c3.4-6.8,23.5-13.4,24.4-11.3
					c3.3,7.3-40.2,11.3-10.8,28.4C1195.7,617.2,1203.1,614,1196.3,620z"/>
			</g>
			<polygon class="st33" points="1178.3,539.1 1167.7,523.1 1181.5,534 			"/>
		</g>
		<g>
			<path class="st36" d="M522.5,2495c0,0-13.5,13.2-27.5,37.6c-14,24.3,1.4,46.7-66.3,103.1c0,0-136.6-80-198.3-182.8
				c0,0,1.1-29.4,30.9-36.3c16-3.7,60.2,17,102.6,25c6,1.1,12.1,2,18,2.5c7.4,0.6,14.8,0.8,21.7-0.1c6.5-0.6,12.6-2,18.3-4.4h0.1
				c14.4-5.9,25.8-17.7,31.8-38.2c0,0,36.3,20.7,12.1,55.7C465.9,2457,509,2438.1,522.5,2495z"/>
			<path class="st37" d="M428.8,2635.7c0,0-136.6-80-198.3-182.8c0,0,22.9-4.8,41.9,29.2C291.3,2516.2,439.8,2593.6,428.8,2635.7z"
				/>
			<path class="st38" d="M429.3,2474c-11.1,17.6-10.9-14.9-25.6-30c6.5-0.6,12.6-2,18.3-4.4h0.1C428.6,2446.6,438,2460.3,429.3,2474
				z"/>
			<path class="st38" d="M386.3,2474.9c-11.7,11.1-15.5-17.9-22.4-33.4c6,1.1,12.1,2,18,2.5C388.8,2453.4,395.3,2466.4,386.3,2474.9
				z"/>
		</g>
		<g>
			<path class="st36" d="M1363.1,2850h-193.3c0,0-8.1-26.9,0-56.5c3.4-12.8,23.5-24.8,42.1-41.5c5.2-4.6,10.1-9.5,14.8-15
				c3.7-4.3,7-9,9.8-14.1c3.6-6.1,6.4-12.8,8-20.1c3.1-14.6,1.9-31.9-6.5-52.5c0,0,65.8-13.8,89.3,22.1c0,0,2.3-16.6,23.1-5.5
				c0,0-3,33.3,1.1,61.2C1355.6,2755.8,1381.5,2763.8,1363.1,2850z"/>
			<path class="st38" d="M1312.8,2733.6c-1.7,1.9-4.1,2.9-6.5,2.9c-2,0-4-0.6-5.7-1.9c-10-8-32.1-20.3-64.2-11.6
				c3.6-6.1,6.4-12.8,8-20.1c12.9-4.7,37.3-7.5,67.3,18.1C1315.6,2724.1,1316.2,2729.8,1312.8,2733.6z"/>
			<path class="st38" d="M1296.6,2765.7l-1.1,1.6c-2.6,4-7.8,5.3-11.8,2.9c-13.1-7.8-42.6-22.4-71.7-18.2c5.2-4.6,10.1-9.5,14.8-15
				c14.3-3.3,41.3-5.2,67.9,16.9C1298.1,2756.8,1299.1,2761.9,1296.6,2765.7z"/>
			<circle class="st37" cx="436.5" cy="2547.9" r="29.6"/>
			
				<ellipse transform="matrix(0.9816 -0.1911 0.1911 0.9816 -505.3305 308.8254)" class="st37" cx="1348.6" cy="2774.6" rx="14.4" ry="30.1"/>
		</g>
		<path class="st24" d="M961.6,602.6c0.4-7.2,0.2-13.2,1.7-18.7s3.5-11,8-12.8s8-2.8,8,0s-2,10.8-2,12.5s2.3,10.5,2,14.3
			s-0.3,5.8-1.3,9.8s-2.7,6.7-4.6,8.4c-1.9,1.7-7.9,0.6-10.7-2.5c-2.8-3.1-3.6-6.7-3-8.6C960.3,603,961.6,602.6,961.6,602.6z"/>
		<path class="st24" d="M895.1,561.8c-0.1,0.3-0.1,0.6-0.1,0.8c-0.6,12.6,1.5,12.1,2.1,21.2c0.6,9.2,2.2,24.3,4.6,23.8
			c9.5-2.1,5.9-13.8,5.8-24.6c0-0.1,0-0.1,0-0.2c0.5-28.7,0-14.5,6.6-1.4c1.5,3,2.5,5.9,3,7.4c2,6.1,5,19.4,10.2,16.6
			c5.2-2.8-0.4-22.3-1.7-28.8c-0.8-3.6-1.1-8.1-0.9-10.6c0.3-7.1-0.4-4.9,1.1-5.6c0.6-0.3,1.5,1.8,4,6.1c3.5,6,6.8,19.4,9.4,24.8
			c3.2,6.7,5.4,9,8.9,6.9c1.7-1-3.7-23.9-4.2-26c0-0.1,0-0.2-0.1-0.3l-1.5-11.1c0-0.1,0-0.3,0-0.4c0.2-7.2-1.2-14.6,3.4-3
			c5,12.7,5.3,29.1,9.7,31c3.4,1.4,5.3,2.1,5.6-9.7c0.2-8.3-1.8-21.1-2.1-22.7c0-0.1,0-0.2-0.1-0.3l-2.9-11.2
			c-0.3-1.2-1.3-1.8-2.3-2.5c-5.8-3.5-6.7-3.2-14.1,1.2c-0.8,0.5-1.8,0.6-2.7,0.3c-2.2-0.7-4.9-2.2-8.5-1c-2.9,1-5.3,3.2-6.5,4.6
			c-0.7,0.8-1.7,1.2-2.8,1.2c-3.2-0.1-9.8-0.1-11.6,2.5c-4.7,6.8-3.6,1.1-8.2,4.8C896.5,557.6,895.5,560.6,895.1,561.8z"/>
		<g>
			
				<ellipse transform="matrix(0.8168 -0.5769 0.5769 0.8168 -1345.3135 1357.0911)" class="st39" cx="1464.1" cy="2796.7" rx="56.1" ry="56.1"/>
			<path class="st40" d="M1445.5,2832.4c-14.2-6.9-24.6-20.5-30.7-34.8c-2.1-5-3.8-10.1-4.9-15.4c-4.2,15.5-1.6,32.7,8.4,46.9
				c17.9,25.3,52.9,31.3,78.1,13.4c8.1-5.7,14.1-13.1,18.1-21.4C1496,2837.2,1468,2843.3,1445.5,2832.4z"/>
			<g>
				<path class="st40" d="M1466.4,2852.7c1.1-0.8,2-1.8,2.8-3l0.3-0.5l0.1-0.1c0,0.1,0.1-0.2,0.1-0.2l0,0l0.1-0.2
					c0.1-0.3,0.3-0.5,0.4-0.8c0.2-0.4,0.3-0.8,0.4-1.1c0.1-0.4,0.2-0.7,0.3-1.1c0.8-3,0.6-6.2-0.3-9.2c-0.8-3-2.1-5.8-3.7-8.5
					c-1.6-2.7-3.4-5.3-5.3-7.9c-2-2.5-4.1-5-6.3-7.5c-1.1-1.2-2.2-2.4-3.3-3.7c-0.6-0.6-1-1.2-1.6-1.8c-0.5-0.6-1-1.2-1.5-1.9
					c-4-5-7.7-10.6-9.5-16.5c-0.5-1.5-0.8-3-1-4.5c-0.2-1.5-0.3-3-0.2-4.4c0.2-2.9,1-5.8,2.4-8.4c1.4-2.7,3.3-5.1,5.5-7.4l1.8-1.7
					l1.7-1.4c0.6-0.5,1.2-0.9,1.8-1.4c0.6-0.4,1.3-0.8,1.9-1.3c2.6-1.6,5.4-2.9,8.2-3.7c2.8-0.8,5.8-1.3,8.7-1.3
					c2.9,0,5.9,0.4,8.7,1.2c2.8,0.7,5.6,1.8,8.2,3.1l0.5,0.2c-0.2-0.1,0,0,0,0l0.1,0l0.1,0.1l0.3,0.1l1,0.6c0.7,0.4,1.3,0.7,2,1.1
					c1.4,0.7,2.5,1.5,3.6,2.2c0.6,0.4,1.1,0.7,1.7,1.1c0.6,0.4,1.1,0.8,1.6,1.2c0.5,0.4,1.1,0.8,1.6,1.2c0.3,0.2,0.5,0.4,0.8,0.6
					c0.2,0.2,0.5,0.4,0.7,0.6c4,3.3,7.3,6.9,9.9,10.2c2.6,3.4,4.6,6.5,6.1,9.2c0.8,1.4,2.1,3.2,2.6,4.3c-0.7-5.7-2.4-13.1-5.6-18.8
					c-2.3-3-6.5-5.6-9.7-8.7c-0.2-0.2-0.5-0.5-0.8-0.7c-0.3-0.2-0.5-0.5-0.8-0.7c-0.5-0.5-1.1-0.9-1.6-1.4c-0.6-0.5-1.1-1-1.7-1.4
					c-0.6-0.5-1.2-0.9-1.8-1.4c-1.2-0.9-2.5-1.9-3.7-2.7c-0.6-0.4-1.3-0.8-1.9-1.3l-1-0.6l-0.2-0.2l-0.1-0.1l-0.1,0
					c-0.1,0,0.1,0-0.2-0.1l-0.5-0.3c-2.8-1.6-5.8-3.2-9.2-4.3c-3.3-1.2-6.8-1.9-10.5-2.2c-3.7-0.3-7.4,0.1-11.1,1
					c-3.7,0.9-7.2,2.4-10.5,4.3c-6.5,3.9-12,9.4-15.8,16.5c-1.8,3.6-3,7.7-3.2,11.8c-0.1,2.1,0,4.1,0.3,6.2c0.3,2,0.8,4,1.4,5.9
					c1.3,3.8,3,7.2,5,10.4c2,3.2,4.2,6.1,6.5,8.8c0.6,0.7,1.1,1.3,1.7,2c0.6,0.6,1.2,1.3,1.8,1.9c1.1,1.2,2.3,2.4,3.4,3.5
					c2.2,2.3,4.3,4.6,6.2,6.9c1.9,2.3,3.6,4.6,5.1,6.8c1.5,2.3,2.6,4.6,3.3,6.7c0.7,2.2,0.9,4.2,0.6,6c-0.1,0.2-0.1,0.5-0.1,0.6
					c-0.1,0.2-0.1,0.3-0.1,0.5c-0.1,0.2-0.2,0.5-0.3,0.8l-0.1,0.2l0,0l0,0l-0.1,0.3c-0.4,0.7-0.9,1.3-1.5,1.8
					c-0.6,0.5-1.3,0.9-2,1.3c-0.7,0.4-1.5,0.6-2.3,0.9c-1.6,0.5-3.1,0.7-4.5,0.8c-0.8,0.1-1.6,0.1-2.4,0.1
					C1456.4,2852.5,1461.4,2852.9,1466.4,2852.7z"/>
			</g>
			<g>
				<path class="st0" d="M1467.3,2848.7l0.3-0.5l0.1-0.1c0,0.1,0.1-0.2,0.1-0.2l0,0l0.1-0.2c0.1-0.3,0.3-0.5,0.4-0.8
					c0.2-0.4,0.3-0.8,0.5-1.2c0.1-0.4,0.2-0.7,0.3-1.1c0.8-3,0.7-6.3-0.1-9.3c-0.8-3-2.1-5.8-3.6-8.6c-1.5-2.7-3.3-5.3-5.3-7.9
					c-2-2.5-4.1-5-6.3-7.5c-1.1-1.2-2.2-2.4-3.3-3.7c-0.6-0.6-1-1.2-1.6-1.8c-0.5-0.6-1-1.2-1.5-1.9c-4-5-7.7-10.6-9.4-16.6
					c-0.5-1.5-0.7-3-0.9-4.5c-0.2-1.5-0.2-3-0.1-4.5c0.2-3,1.1-5.8,2.6-8.6c1.4-2.7,3.4-5.2,5.7-7.5l1.8-1.8l1.7-1.5
					c0.6-0.5,1.3-1,1.9-1.4c0.7-0.4,1.3-0.9,2-1.3c2.7-1.7,5.5-3,8.5-3.9c2.9-0.9,5.9-1.4,8.9-1.4c3,0,6,0.3,8.9,1
					c2.9,0.6,5.7,1.8,8.3,3l0.5,0.2c-0.2-0.1,0,0,0,0l0.1,0l0.1,0.1l0.3,0.1l1,0.5c0.7,0.4,1.3,0.7,2,1.1c1.4,0.7,2.5,1.5,3.7,2.2
					c0.6,0.4,1.2,0.7,1.7,1.1c0.6,0.4,1.1,0.8,1.7,1.2c0.5,0.4,1.1,0.8,1.6,1.2c0.3,0.2,0.5,0.4,0.8,0.6c0.2,0.2,0.5,0.4,0.7,0.6
					c4,3.3,7.3,6.8,9.9,10.2c2.6,3.4,4.6,6.5,6.1,9.2c0.8,1.4,1.4,2.7,1.9,3.8c-1-6.2-3.1-12.2-6.3-17.9c-2.3-3-5-6.1-8.3-9.1
					c-0.3-0.2-0.5-0.5-0.8-0.7c-0.3-0.2-0.5-0.5-0.8-0.7c-0.5-0.5-1.1-0.9-1.6-1.4c-0.6-0.5-1.1-1-1.7-1.4c-0.6-0.5-1.2-0.9-1.8-1.4
					c-1.2-0.9-2.5-1.9-3.8-2.7c-0.6-0.4-1.3-0.8-1.9-1.2l-1-0.6l-0.2-0.2l-0.1-0.1l-0.1,0c-0.1,0,0.1,0-0.2-0.1l-0.5-0.3
					c-2.9-1.6-5.9-3.1-9.3-4.2c-3.3-1.2-7-1.8-10.7-2c-3.8-0.3-7.6,0.2-11.4,1.2c-3.8,1-7.4,2.5-10.8,4.5c-6.7,4.1-12.5,9.7-16.4,17
					c-1.9,3.7-3.2,7.8-3.4,12c-0.2,2.1-0.1,4.2,0.2,6.2c0.3,2,0.7,4,1.4,5.9c1.2,3.8,3,7.3,5,10.4c2,3.2,4.2,6.1,6.5,8.8
					c0.6,0.7,1.2,1.3,1.7,2c0.6,0.6,1.2,1.3,1.8,1.9c1.2,1.2,2.3,2.4,3.4,3.5c2.2,2.3,4.3,4.6,6.2,6.9c1.9,2.3,3.6,4.6,5.1,6.8
					c1.5,2.3,2.6,4.6,3.3,6.7c0.7,2.2,0.9,4.3,0.5,6c-0.1,0.2-0.1,0.5-0.2,0.6c-0.1,0.2-0.1,0.4-0.2,0.5c-0.1,0.2-0.2,0.5-0.3,0.8
					l-0.1,0.2l0,0l0,0l-0.1,0.3c-0.4,0.7-0.9,1.3-1.5,1.8c-0.6,0.5-1.3,1-2.1,1.3c-0.8,0.4-1.6,0.7-2.4,0.9
					c-1.6,0.5-3.2,0.7-4.7,0.9c-1,0.1-1.9,0.2-2.7,0.2c4.5,1.3,9.2,2,14,2.1c0.5-0.3,0.9-0.5,1.4-0.9
					C1465.4,2851.1,1466.5,2850,1467.3,2848.7z"/>
			</g>
		</g>
	</g>
	<g>
		<path class="st3" d="M4466,2821.6c-42,0.2-70,7.2-96,18.9s-45.1,22-40,33.3c10,22.2,28,21.5,98,27.5s192.5,6,223.3,0
			c30.7-6,78.7-13.1,84.7-27.5s6-22.9-20-33.3s-87.7-19.1-131.7-18.9C4540.3,2821.8,4466,2821.6,4466,2821.6z"/>
		<path class="st41" d="M4267.6,458.7c0,0,55.7-37.9,137.1-8.7c81.5,29.2,94.2,137.7,95.4,229c0.7,53.4,99.3,148.7,117,217.6
			c28,108.8,24,232,24,232s-38.7,140.1-102.3,156.7c-40.3,10.6-172.8-79.5-224.3-163.9c0,0-151.9-276-140.6-474.2
			S4267.6,458.7,4267.6,458.7z"/>
		<path class="st42" d="M4232.7,812.5c-46.5-29.9-92.8,20.1-139.1,120.2c-12.3,26.5-38.5,88.5-43.5,105
			c-6.7,22.2-21.1,51.1-21.1,51.1l-91.4-192.1l-21.8,60.9c0,0,58.4,285.3,113.3,274.7c36.6-7.1,173.6-305.7,173.6-305.7
			L4232.7,812.5z"/>
		<path class="st43" d="M4576.4,1567.5c0,0,36.9,224.1,31.4,477.3c0,0,127.2,137.1,19.2,687.8h-56.7c0,0-27.6-378.6-63.1-505.6
			c-35.4-127-107.6-264.4-185.8-689.3L4576.4,1567.5z"/>
		<path class="st44" d="M4835.4,2062.2c-137.2-77.6-239.6-266.6-272.1-354c-6.6-17.9-30.7-67.6-33.9-67.6
			c-47.8,0-186.4-24.2-208-102.7c-34-124-16.6-217.7,211.1-236.6c51.6-4.3,227.5,52.3,238.5,255c1.1,19.9,120.1,384.9,133.2,342.2
			c32.9-107.6,135-224.5,265.7-372.9c0,0,12.9-6.7,30.5,4c18.5,11.3,18.5,24.6,18.5,24.6s-108.9,237.2-178.3,411
			c-23.4,58.5-75.7,120.7-161.9,110.6L4835.4,2062.2z"/>
		<path class="st45" d="M4203.3,801.1c0,0,57.8,19.5,140.1,7c82.3-12.5,111.8-39.4,174.6-17.1c29.8,10.6,38.4,207.9,16.6,297.2
			c-8.1,33.3-38.6,127,114.5,250.5c0,0-177,154.5-339.5,106.5c0,0-53-88.6-114.5-284.6C4152.7,1120.3,4102.5,1079.6,4203.3,801.1z"
			/>
		<path class="st46" d="M4350.2,657c0,0-9.6,81.3,20.4,155.2c0,0-42.9,63.4-83.9,21.7c0,0-3.7-74.5-49.8-158.7
			C4206.2,618.7,4350.2,657,4350.2,657z"/>
		<g>
			<path class="st47" d="M4415.9,659.8c0,0,36.2-22.9,32.1,12.4c-4.7,40.9-44.7,48.9-48.9,34.6
				C4394.9,692.5,4415.9,659.8,4415.9,659.8z"/>
			<path class="st47" d="M4208.3,615.5c0,0-23-36.2-34.4-2.4c-13.2,39,19.5,63.3,29.5,52.2C4213.3,654,4208.3,615.5,4208.3,615.5z"
				/>
			<path class="st42" d="M4283,782.1c38.5,4.2,112.3-19.9,141.1-148.5c14.9-66.3-9.8-114.6-83.3-131.1
				c-73.5-16.5-113.6,17.3-128.5,83.6C4181.4,724.4,4238.1,777.3,4283,782.1z"/>
			
				<ellipse transform="matrix(0.3829 -0.9238 0.9238 0.3829 2021.4265 4311.8525)" class="st48" cx="4238.1" cy="642.9" rx="12.4" ry="15.5"/>
			
				<ellipse transform="matrix(0.1546 -0.988 0.988 0.1546 3032.3872 4889.9634)" class="st48" cx="4373.4" cy="673.2" rx="12.4" ry="15.5"/>
			<g>
				<path class="st49" d="M4269.5,577c0.6,0,1.3-0.2,1.9-0.6c11.2-7.5,27.1-3.5,27.3-3.5c1.8,0.5,3.6-0.6,4.1-2.4
					c0.5-1.8-0.6-3.6-2.4-4.1c-0.8-0.2-19-4.8-32.7,4.4c-1.5,1-2,3.1-0.9,4.7C4267.3,576.5,4268.4,577,4269.5,577z"/>
			</g>
			<g>
				<path class="st49" d="M4393.1,604.7c0.6,0,1.2-0.2,1.7-0.5c1.6-1,2.1-3,1.1-4.6c-8.5-14.1-26.9-17.8-27.7-17.9
					c-1.8-0.3-3.6,0.8-3.9,2.7c-0.3,1.8,0.8,3.6,2.7,3.9c0.2,0,16.3,3.3,23.2,14.8C4390.9,604.1,4392,604.7,4393.1,604.7z"/>
			</g>
			
				<ellipse transform="matrix(0.2185 -0.9758 0.9758 0.2185 2740.8657 4652.0791)" class="st50" cx="4274.8" cy="614.9" rx="15.1" ry="8.4"/>
			
				<ellipse transform="matrix(0.2185 -0.9758 0.9758 0.2185 2793.021 4756.4492)" class="st50" cx="4366" cy="634.5" rx="15.1" ry="8.4"/>
			<path class="st51" d="M4335.4,716.3c0,0-57.7-10.1-76.3-25.8c0,0,0,30.3,34.2,39.7C4315.5,736.2,4335.4,716.3,4335.4,716.3z"/>
			<path class="st19" d="M4289.6,613.9c0,0-1.5-21.4-9.7-21.8c-8.2-0.3-18,15.5-18,15.5l-10.3-8.8l11.3,4.1c0,0,10.1-16.6,17.9-14.9
				C4291.9,590.6,4289.6,613.9,4289.6,613.9z"/>
			<path class="st19" d="M4352.8,630.6c0,0,10.5-18.7,18-15.5c7.6,3.2,9.7,21.7,9.7,21.7l13-3.6l-12-1.1c0,0-2.1-19.3-9.8-21.1
				C4360.6,608.6,4352.8,630.6,4352.8,630.6z"/>
			<g>
				<path class="st52" d="M4304.7,678.9l3.4-6.4c-5.5-2.9-10.9-7.6-10.4-10.3c0.8-3.9,6.1-7.3,11.2-6.4c6.5,1.2,11.1-18.3,11.1-27
					l-6.6-2.8c-1.5,11.9-2.8,22.5-5.1,22.6c-5.8,0.4-14.6,1.4-17.2,12.7C4289.5,668.4,4297.5,675.2,4304.7,678.9z"/>
			</g>
			<path class="st41" d="M4393.6,731.3c0,0,12-60.5,0-113.2c0,0-40.8-75.3-142-102.6c0,0-32.7,52.6-48.9,126.3
				c0,0-4.1-26.5,6.9-85.4c11-58.9,64-99.4,135-83.8C4448.4,495.5,4455.6,588.1,4393.6,731.3z"/>
		</g>
		<path class="st42" d="M4529.7,792.6c-37.3-29.4-66.4,8-73.5,59.8c-7.1,51.8,60.4,357.2,112.4,346c20.1-4.3,28.3-84.4,28.3-84.4
			s-20.4-85.9-33.5-215.1C4557.3,839.4,4549.1,807.9,4529.7,792.6z"/>
		<path class="st42" d="M4638.3,1155.1c50.3-47.9,140.4-206.8,163.3-287.8l-38.1-15.3c0,0-114.9,164.3-167.2,205.7
			c-52.4,41.4-70.8,87.6-47.4,127.1C4572.2,1224.4,4627.7,1165.2,4638.3,1155.1z"/>
		<g>
			<path class="st42" d="M4828.8,763.2c-21.6,47.4-64.8,38.8-66.5,82.9c-0.3,9.1,2.9,15.7,7.3,20.4c8.4,9,21.7,11.5,33.5,7.7
				c27.2-8.8,64.8-13.6,83.8-14.4c21.7-1,13.6-8.5,13.6-8.5c2,0.1,3.9,0.3,5.8,0.4c14.5,1.2,25,4.2,19.1-5.6
				c-6.6-11.1-47.7-16.4-47.7-16.4c39.8,3.2,37.4,1.6,48.2-11.4c8.3-9.9,18.5-17.6,9.3-22.2c-1.5-0.7-18.5,15.2-26.4,17.2
				c-15.9,4-27.5-3.8-28.6-3.8c35.4-10.2,55.2-6.3,47.5-14.6c-7.8-8.4-72.3,1.3-96.1,5.2c-5.3,0.9-8.7,1.5-8.7,1.5
				C4843.3,764.2,4828.8,763.2,4828.8,763.2z"/>
			<path class="st46" d="M4831.9,800.1c-5.3,0.9-8.7,1.5-8.7,1.5s1,17.7-18.4,29.8C4804.8,831.4,4830.4,828.8,4831.9,800.1z"/>
			<path class="st46" d="M4857.5,847c5.1-0.1,34.4-1.2,43,4.3c2,0.1,3.9,0.3,5.8,0.4C4904.5,840.6,4863.7,846.1,4857.5,847z"/>
		</g>
		<path class="st46" d="M4764.9,831.4c-1.6,3.2,2.3,7.1,8.6,11.6s17.7,8.4,25.7,10.8c11.3,3.3,29.9,4.8,38.5,4.4
			c9.8-0.5,20.9-1.7,32.5-6c5.4-2,16-6.9,20.3-10.8c3.5-3.2,13.5-5.2,5-9.2c-6.2-2.9-22.4-8.2-37.9-7.5c-15.5,0.7-64.9-0.7-73.5-0.1
			S4769.7,822.1,4764.9,831.4z"/>
		<g>
			<path class="st53" d="M4354.5,1612.6"/>
			<path class="st53" d="M4959,2060.6"/>
		</g>
		<g>
			<path class="st54" d="M4452.6,2858.5l194.9,0c12.7-36.3-10.7-72.7-6.8-104.7c6.8-54.1-24.7-24.2-24.7-24.2
				c-5.6-58.1-87.3-69.1-86.4-43.2c1.4,38.1-6,61.7-16.9,77.5c-22,31.7-58,31.5-64.2,54.2c-0.6,2.2-1.1,4.4-1.5,6.4
				C4441,2852.9,4452.6,2858.5,4452.6,2858.5z"/>
			<path class="st55" d="M4447,2824.5c40.4,9.4,133.4-2.8,137.1-26.3c3.6-22.7-46.5-33.3-71.5-34.3c-22,31.7-58,31.5-64.2,54.2
				C4447.9,2820.3,4447.4,2822.6,4447,2824.5z"/>
		</g>
		<g>
			<path class="st54" d="M5164.9,1536.1c19.1-17.4,50.2,11.4,50.2,11.4s-16.7,24.8-5.9,34.9c10.8,10,23.4-12.9,44.7-2.8
				c1.7,0.8,3.5,1.8,5.2,3c16.6,9.9,33.9,30.8,48,46.6c2.8,3.2,5.6,6.2,8.1,8.8c16.3,17.1,58.3,27.1,66.2-18.5
				c7.9-45.6-43.4-99-99.7-148.1c-56.3-49.1-92.6-19.9-92.6-19.9s-12.8,20.6-12.8,33.5c0,12.8-11.4,19.1-17.8,31.3
				C5152.1,1528.2,5164.9,1536.1,5164.9,1536.1z"/>
			<path class="st55" d="M5259.1,1582.4c16.6,9.9,33.9,30.8,48,46.6c21.1,5,40,3.5,42.9-16.3c7.2-47.8-88.3-108.7-80.6-75.1
				C5273.2,1554.5,5266.6,1570.6,5259.1,1582.4z"/>
		</g>
		<g>
			<path class="st56" d="M4950.9,734.2c0,65.1-50.6,117.9-115.7,117.9s-117.9-52.8-117.9-117.9s52.8-117.9,117.9-117.9
				C4895.9,616.3,4950.9,669.1,4950.9,734.2z"/>
			<path class="st57" d="M4726.2,686c-21.6,50.2-6.1,110.4,40.3,143.4c53.4,38,127.4,25.5,165.4-27.9c19-26.8,22.9-56.7,17.7-86.7
				l1.1-3.4c0,0-15.2,97.6-120.1,97.3C4722.9,808.5,4726,688.7,4726.2,686z"/>
			<g>
				<g>
					<path class="st58" d="M4901.8,640c-29.6-21-62.5-28.1-95-19.4c11.1,0,22.5,0.5,36.6,5.1c30.2,9.9,50.8,40,52.5,42.3
						c6.3-9.6,7.7-15.1,7.6-18.1C4903.5,647,4902.5,642.7,4901.8,640z"/>
				</g>
				<path class="st58" d="M4901.9,640.6c0,0,1.9,3.6,1.9,8.1s-3.3,18.3-20.8,35.5c-26.9,26.6-83.3,47.8-83.3,47.8
					s-1.5,15.3-1.2,33.5c0.3,18.2,7.5,40.5,7.5,40.5s9-3.5,41.1-19.9c32.1-16.4,63.8-47.4,75.7-64.1c13.2-18.6,16.1-30.5,16.4-34.7
					c0.1-1.6-0.3-4.3-1.1-7.2c-6.9-13.2-16.4-25.3-28.3-35.3C4904.9,641.6,4901.9,640.6,4901.9,640.6z"/>
				<path class="st58" d="M4941.5,767.4c4.1-7.5,7.2-16.8,9.4-26.1c1.3-21.1-3.1-42.4-12.9-61.3c0.8,2.9,1.2,5.6,1.1,7.2
					c-0.3,4.2-3.2,16.1-16.4,34.7c-11.9,16.7-43.6,47.7-75.7,64.1c-32.1,16.4-41.1,19.9-41.1,19.9s2.9,8,8.7,15.8
					c5.8,7.8,12.2,13.5,12.2,13.5s27.5,0.6,63.9-20.5C4917.7,799.3,4932.1,784.6,4941.5,767.4z"/>
				<path class="st58" d="M4950.9,741.3c-2.2,9.3-5.3,18.5-9.4,26.1c-9.4,17.2-23.8,32-50.8,47.5c-36.4,21-63.9,20.5-63.9,20.5
					s4.8,3.9,15,7.9c8,3.1,16.6,3.6,23.9,3.2c24.9-6.9,47.6-22.1,63.8-44.8C4942.6,783.2,4949.6,762.3,4950.9,741.3z"/>
				<g>
					<path class="st58" d="M4841.9,843.2c-10.2-4-15-7.9-15-7.9s-6.4-5.8-12.2-13.5c-5.8-7.8-8.7-15.8-8.7-15.8s-7.2-22.4-7.5-40.5
						c-0.3-18.2,1.2-33.5,1.2-33.5s-18.9-14.8-30.2-22.8s-20.6-11.4-20.6-11.4s-4,23.8-3.3,50.6c0.6,20.7,8.4,42.8,19.7,63.3
						s25.1,27.2,38.7,33.6c2.8,1.3,6.3,2.5,10.2,3.6c17.3,3,34.9,2.1,51.6-2.5C4858.4,846.9,4849.8,846.4,4841.9,843.2z"/>
				</g>
				<g>
					<path class="st58" d="M4823,850.2c-0.7-0.1-1.4-0.1-2.1-0.2C4821.6,850,4822.3,850.1,4823,850.2z"/>
					<path class="st59" d="M4816.5,849.3c-0.7-0.1-1.4-0.2-2-0.3C4815.2,849.1,4815.9,849.2,4816.5,849.3z"/>
					<path class="st58" d="M4803.9,845.4c-13.6-6.4-27.5-13.1-38.7-33.6s-19.1-42.6-19.7-63.3c-0.7-26.8,3.3-50.6,3.3-50.6
						s-5-2-11.5-2.9c-6.5-0.8-8.4,1.8-8.4,1.8s-6.3,17.2-7.6,38.1c-1.3,21,1.9,31.5,4.1,40.6c0.1,0.5,0.3,1,0.5,1.6
						c8,20.2,21.8,38.4,40.8,51.9c14.6,10.4,30.7,16.9,47.3,19.8C4810.2,847.9,4806.7,846.7,4803.9,845.4z"/>
					<path class="st58" d="M4836.9,850.7c9.7-0.2,19.4-1.6,28.8-4.2l0,0C4856.4,849,4846.7,850.5,4836.9,850.7z"/>
					<path class="st58" d="M4826.4,850.4c-0.7-0.1-1.5-0.1-2.2-0.2C4824.9,850.3,4825.6,850.4,4826.4,850.4z"/>
					<path class="st58" d="M4836.7,850.7c-1,0-2,0-3,0C4834.7,850.7,4835.7,850.7,4836.7,850.7z"/>
					<path class="st58" d="M4833.2,850.7c-0.9,0-1.8,0-2.6-0.1C4831.4,850.7,4832.3,850.7,4833.2,850.7z"/>
					<path class="st58" d="M4829.7,850.6c-0.8,0-1.6-0.1-2.4-0.1C4828.1,850.6,4828.9,850.6,4829.7,850.6z"/>
				</g>
				<path class="st58" d="M4721.4,734.9c1.3-21,7.6-38.1,7.6-38.1c-2.4,1.5-5.2,4.1-7.4,7.2c-6.5,24.4-4.8,50.1,4.4,73.2
					c-0.2-0.6-0.4-1.2-0.5-1.6C4723.3,766.4,4720.1,755.9,4721.4,734.9z"/>
				<path class="st58" d="M4799.9,732.5c0,0,41-15.7,69.7-36.6c-5.7-4-20.6-14-36.3-22.9c-19.8-11.1-34.8-17-52.1-19.6
					s-25.5,1-32.8,4.4c-1.4,0.7-3.2,1.8-5.1,3.2c-1.4,1.7-2.7,3.4-3.9,5.2c-8.3,11.7-14.2,24.5-17.7,37.6c2.2-3,5-5.6,7.4-7.2
					c0,0,1.9-2.7,8.4-1.8c6.5,0.8,11.5,2.9,11.5,2.9s9.3,3.4,20.6,11.4s30.2,22.8,30.2,22.8L4799.9,732.5z"/>
				<g>
					<path class="st58" d="M4733.3,675.8c0,0.1-0.1,0.2-0.1,0.2l0,0C4733.2,675.9,4733.2,675.8,4733.3,675.8z"/>
					<path class="st60" d="M4742,662.7c0.3-0.4,0.6-0.7,0.8-1.1C4742.6,662,4742.3,662.3,4742,662.7z"/>
					<path class="st58" d="M4895.9,668.6c-1.6-2.3-22.5-31.6-52.7-41.5c-14.1-4.6-28-5.9-39.1-5.9c-23.3,6.3-44.7,19.7-60.8,39.8
						c1.9-1.4,3.7-2.5,5.1-3.2c7.3-3.4,15.5-7,32.8-4.4s32.3,8.4,52.1,19.6c15.5,8.7,30.1,18.5,36,22.6c5-3.7,9.7-7.5,13.7-11.5
						C4888.7,678.6,4892.9,673.3,4895.9,668.6z"/>
					<path class="st58" d="M4735.5,672.1c0.2-0.4,0.4-0.7,0.7-1.1C4735.9,671.4,4735.7,671.7,4735.5,672.1z"/>
				</g>
			</g>
		</g>
		<path class="st46" d="M4029,1088.7c0,0,2.4,4,8.4,12s9.1,15.8,12,22.7c0,0,3.8-5.8,1.3-31.3c-2-20.7-0.4-27.3-1.3-35.7
			c-1.7-14.8-6.8,2.1-6.8,2.1L4029,1088.7z"/>
	</g>
	<g>
		<path class="st61" d="M3674.6,1811c17.2,123.6,3.7,188.9,17.1,228.6c22.2,66.1,41.2,299.2,48.1,440.5
			c6.9,141.3,23.7,182.6,11.5,204.1c-12.2,21.5-61.1,48.7-72.9,21.7c-11.8-26.9-64.8-260.4-91-357.2c-26.1-96.8-48.2-136.5-45-248
			c2.7-92.4-16.9-147-31.6-210.4c-14.6-63.5,62.3-55.2,99.7-48.2S3674.6,1811,3674.6,1811z"/>
		<path class="st61" d="M3145.5,1806.8c-21.5,123-9.5,188.7-24.5,228c-25,65.4-51.7,297.9-63,439c-11.4,141.1-30,181.8-18,203.7
			c12,21.9,61.9,50.4,75,23.8c13.1-26.6,75-258.4,105-354.4c30-96,54-135,54-246.6c0-92.4,21.9-146.4,39-209.4c17.1-63-63-57-102-51
			S3145.5,1806.8,3145.5,1806.8z"/>
		<path class="st61" d="M3270.7,595.7c-41.8,4.7-59.8,8.5-80.8,47.1c-21,38.6-77.1,286.7-94,312.7c-17,26-51.2,77-68.6,125
			c-17.4,48-47.2,149.9-54.8,177c-7.6,27.1-25.4,31.5,0,51.8c25.4,20.3,42.1,7.7,54.8-16c12.6-23.7,78.6-146.7,105.6-206.7
			s43.9-75.8,73-156.4s79.4-231.8,76.7-273.2S3270.7,595.7,3270.7,595.7z"/>
		<g>
			<path class="st61" d="M2855.4,1336.6c11-0.6,42.6-14.5,42.6-14.5c23-15.4,35.8-23.7,51.3-25.6c15.5-2,20.9-28.9,20.9-28.9
				s60.9-29.3,65.8,9.3c0,0-32.5,63.4-34.6,70c-4.4,13.2,5.2,32.5-7.8,54.9c-13,22.5-18.3,57-18.3,57s-13.5,4.8-15.5-8.6
				c-2-13.5,7.4-32.5,4.7-38.2c-0.6-1.2-1.2-2.2-2-3.2c0,0-0.1-0.1-0.1-0.3c-2.8-3.7-6.7-6.3-10.7-6.4c-0.2-0.1-0.6-0.2-0.9-0.1
				c-15.4,1-41.5,23.2-52.2,34.2c-14.8,15.3-36.4,35.3-41.9,22.5c-5.5-12.8,11.3-12.6,37.8-52.5l-3-3.9c1.8-3-27.3,12.9-50.1,32.2
				c-15.8,13.3-19.8-1.7-17.2-8.3c2.5-6.7,20.4-17.7,31.7-27.5c7.5-6.4,15.4-12.9,20.1-16.8l-1.7-6.3
				c-39.8,10.3-45.5,25.6-54.4,17.6c-8.8-8,15.7-26,28.4-29.4c5.5-1.5,14.7-6.8,23.4-12.4c-32,1.9-39.4,12.4-45.1,4.5
				C2821,1347.6,2844.4,1337.2,2855.4,1336.6z"/>
		</g>
		<path class="st62" d="M3708.1,1890l-82.7-657.5l-209.5,23.4l-212.1-23.7l-107.9,658c0,0,188.7,59.7,247.6,37
			c18.5-7.1,50.7-356,50.7-356h43.4c0,0,1.1,356.9,20.6,360.4C3558.3,1949.5,3708.1,1890,3708.1,1890z"/>
		<path class="st63" d="M3348.5,495.6c0,0,8,100.6-49.2,122.6c0,0,26.2,110.4,60.7,117.6c165.5,34.8,189.1-124.6,162.4-130
			c-58.2-11.9-69.1-55.4-72.5-89.1c-0.9-8.8-4.5-16.9-13.4-17.3L3348.5,495.6z"/>
		<g>
			<path class="st64" d="M3303.7,445.8c0,0-39.8-76.5-31.9-158.3c7.9-81.8,131.1-100.5,214.1-60.4c0,0-14.3-24.8-4.6-31.5
				c9.6-6.7,15.9,36.9,15.9,36.9s22.2-16.1,26.2-8c4,8-22.9,20.5-22.9,20.5s53.6,29.7,3.5,187.9L3303.7,445.8z"/>
			<path class="st65" d="M3295.4,388.6c0,0-29.6-29.6-33.3,5c-4.2,40.1,32.2,56.2,39.3,43.5C3308.5,424.3,3295.4,388.6,3295.4,388.6
				z"/>
			<path class="st65" d="M3503,390.7c0,0,29.7-29.6,33.3,5c4.2,40.1-32.2,56.2-39.3,43.5C3489.9,426.4,3503,390.7,3503,390.7z"/>
			<path class="st61" d="M3396.1,533.7c-44.3,0-102.9-43-102.9-171.8c0-66.5,33.8-107.3,107.5-107.3c73.7,0,104.7,40.8,104.7,107.3
				C3505.4,500.4,3447.8,533.7,3396.1,533.7z"/>
			
				<ellipse transform="matrix(0.9851 -0.1718 0.1718 0.9851 -18.9411 602.1107)" class="st18" cx="3468.6" cy="410.5" rx="15.2" ry="12.2"/>
			
				<ellipse transform="matrix(6.502973e-02 -0.9979 0.9979 6.502973e-02 2706.7644 3709.8359)" class="st18" cx="3333.1" cy="410.5" rx="12.2" ry="15.2"/>
			<g>
				<path class="st64" d="M3458,341c-0.9,0-1.7-0.3-2.4-1c-9.1-9.6-25.1-9.2-25.3-9.2c-1.8,0-3.3-1.4-3.4-3.2
					c-0.1-1.8,1.4-3.3,3.2-3.4c0.7,0,19.2-0.5,30.3,11.2c1.3,1.3,1.2,3.4-0.1,4.6C3459.6,340.7,3458.8,341,3458,341z"/>
			</g>
			<g>
				<path class="st64" d="M3326.6,341c-0.8,0-1.6-0.3-2.3-0.9c-1.3-1.3-1.4-3.3-0.1-4.6c11.1-11.7,29.6-11.2,30.3-11.2
					c1.8,0.1,3.2,1.6,3.2,3.4c-0.1,1.8-1.6,3.2-3.4,3.2c-0.1,0-16.3-0.3-25.3,9.2C3328.4,340.6,3327.5,341,3326.6,341z"/>
			</g>
			<ellipse class="st19" cx="3439.6" cy="375.9" rx="8.2" ry="14.8"/>
			<ellipse class="st19" cx="3351.8" cy="375.9" rx="8.2" ry="14.8"/>
			<path class="st19" d="M3360,463.3c0,0,39.3,39.3,87.9-6.9c0,0-16.9,39.5-48.6,36C3367.6,488.9,3360,463.3,3360,463.3z"/>
			<path class="st64" d="M3498.5,408.8c0,0-2.1-71.5-29.9-126.5c0,0-49.7,29.3-60.6,23.9c-10.8-5.4,10.9-23.9,10.9-23.9
				s-76.2,32.1-81,26.7c-4.9-5.4,22-26.7,22-26.7l-50.5,17.3c0,0-15.6,64.4-9.1,109.2c0,0-21.7-37.4-24.4-63.3
				c-2.7-25.8,8.7-99.5,84.7-104.9c76-5.4,118.7,11.9,137.6,46.8C3517.1,322.3,3514.8,365.3,3498.5,408.8z"/>
			<g>
				<path class="st18" d="M3407.5,442.6c-4.1,0-8.3-0.7-11.2-1.3c-2-0.4-3.2-2.4-2.6-4.3l0,0c0.5-1.8,2.3-2.9,4.1-2.5
					c6.7,1.4,14.9,1.9,16.9-0.5c0.8-1,1.2-3.7-0.9-6.2c-16.2-19.6-12.9-59.2-11.8-70.5c0.2-1.7,1.6-3.1,3.3-3.2l0,0
					c2.1-0.1,3.8,1.7,3.6,3.7c-0.8,12.3-2.3,50.6,11.2,67c4.1,4.9,2.7,10.4-0.1,13.6C3417.3,441.7,3412.4,442.6,3407.5,442.6z"/>
			</g>
		</g>
		<g>
			<path class="st66" d="M3883.8,2859.9h-236.4c-16.5-94,9.8-188,9.8-188l108.1-18.6c9.8,59.4,21.7,82.8,38.1,94.9
				c0.1,0,0.1,0,0.1,0c12,8.7,26.3,11.6,44.1,17.7c20.4,7.1,31.1,20,36.5,34C3894.7,2827.7,3883.8,2859.9,3883.8,2859.9z"/>
			<path class="st67" d="M3884.1,2799.9c-58.3,7.3-186.3,19.8-178.5-14c6.5-28.2,60.5-35.8,97.8-37.7c0.1,0,0.1,0,0.1,0
				c12,8.7,26.3,11.6,44.1,17.7C3868,2773.1,3878.7,2785.9,3884.1,2799.9z"/>
		</g>
		<g>
			<path class="st66" d="M3140.1,2858.7h-236.4c0,0-7.5-22.1-4.1-45.5c2.8-19.1,13-39,40.2-48.5c20.5-7.1,36.2-9.7,49.1-21.8
				c14-13.2,24.4-37.5,33.3-90.8l108.1,18.6C3130.2,2670.6,3156.5,2764.7,3140.1,2858.7z"/>
			<path class="st67" d="M2899.6,2813.1c2.8-19.1,13-39,40.2-48.5c20.5-7.1,36.2-9.7,49.1-21.8c29.9,9.2,71.8,26.2,84.7,51.8
				C3091.7,2829.9,2953.5,2824.3,2899.6,2813.1z"/>
		</g>
		<g>
			<path class="st61" d="M3555.7,605.7c49.3-13.3,66.7,11.3,109.9,29c53.3,21.9,55.6,31.4,134.4,74.2c90.6,49.2,152,71,155,107
				s0.6,33-6.4,108.8c-7.4,80.7-32.8,169.8-36.2,193.3c-3.4,23.4-22.3,59.6-37.7,67.4c-23.2,11.8-51.4,5-45.9-16.4
				c5.5-21.3,22-101.4,21.5-143.5c-0.5-38.9-0.3-43.6-3.3-82.6s13.6-70.2,0-80c-29.4-21.2-55-22-117.1-61
				c-62.1-39-99.3-58.4-131.7-67.8c-58-16.7-35.3-59.4-37.2-81.4C3559.3,630.7,3555.7,605.7,3555.7,605.7z"/>
			<path class="st68" d="M3303.5,594.8c17.2,0.2,19.2-9.5,20.7,11c3,40.6,0.3,113.1,83.2,113.1c88,0,89.4-61.3,95.8-100.7
				c3-18.7,7.2-23.3,22.3-23.4c30.8-0.1,38.1-3.8,39.4,19.3c1,16.4,4,41.7,8.6,80.8c2.7,23.5,14.2,82.4,21.5,129.1
				c31.2,199.9,59.4,497.1,59.4,497.1s-93.2,33.9-248.4,33.9c-176.9,0-239-35.9-239-35.9s27.2-222.1,48-476
				c5.4-65.8,46.7-170.9,46.7-229C3261.7,585.5,3261.7,594.2,3303.5,594.8z"/>
			<g>
				<defs>
					
						<ellipse id="SVGID_3_" transform="matrix(0.5136 -0.858 0.858 0.5136 688.7385 3853.5703)" cx="3743.2" cy="1319.3" rx="156" ry="156"/>
				</defs>
				<clipPath id="SVGID_4_">
					<use xlink:href="#SVGID_3_"  style="overflow:visible;"/>
				</clipPath>
				
					<ellipse transform="matrix(0.5136 -0.858 0.858 0.5136 688.7385 3853.5703)" class="st69" cx="3743.2" cy="1319.3" rx="156" ry="156"/>
				
					<ellipse transform="matrix(0.5136 -0.858 0.858 0.5136 688.7392 3853.5703)" class="st70" cx="3743.2" cy="1319.3" rx="187.2" ry="187.2"/>
				<path class="st71" d="M3620.9,1222.5c2.6-4.2,91.2-45.6,178.4,6.6c87.2,52.2,91.4,142.9,89,147.6"/>
				<line class="st71" x1="3840.9" y1="1156.1" x2="3634.5" y2="1500.9"/>
				<path class="st71" d="M3741,1148.2c0,0,58.7,24.6,18.8,69.5c-28.4,32-157.9,43.6-167,230.2"/>
				<path class="st71" d="M3895.1,1240.4c0,0-49.4-40.1-70.2,16.3c-14.8,40.1,36.2,159.7-124,255.9"/>
				<path class="st72" d="M3897.8,1298.4c-2.7,14.8-8.1,29.5-16.3,43.2c-36.9,61.6-116.8,81.7-178.4,44.8
					c-61.6-36.9-81.7-116.8-44.8-178.4c8.2-13.7,18.6-25.4,30.4-34.8c-32,11.9-60.3,34.4-79.2,66c-44.3,73.9-20.2,169.7,53.7,214
					s169.7,20.2,214-53.7C3896,1367.9,3902.4,1332.3,3897.8,1298.4z"/>
			</g>
			<path class="st61" d="M3891.3,1303.6c-4.2-10.2-5.1-44.7-5.1-44.7c4.1-27.3-0.6-41.8,1.2-57.4c2.2-18.3,15.3-55.4,15.3-55.4
				s-9.9-37.6-46.9-25.5c0,0-31.2,50.7-36.2,55.5c-10.1,9.6-31.6,9.2-46.3,30.5c-14.8,21.4-43.7,40.9-43.7,40.9s1.4,14.2,14.4,10.3
				c13.1-4,26.2-20.6,32.5-20.5c1.3,0,2.5,0.1,3.7,0.4c0,0,0.1,0,0.3,0c4.5,0.9,8.6,3.4,10.4,6.9c0.2,0.2,0.4,0.5,0.5,0.8
				c5.7,14.3-3.3,47.4-8.6,61.8c-7.5,19.9-16.3,48-2.4,47.5c13.9-0.5,6.5-15.5,31.3-56.7l4.8,1c2-2.9,0,30.1-7.7,59.1
				c-5.3,20,10,17.2,14.9,12c5-5.1,7.3-26,11.3-40.4c2.5-9.5,5.1-19.5,6.6-25.4l6.4-1.1c7.7,40.4-3.7,52.1,7.4,56.7
				c11,4.5,16.8-25.3,14.5-38.2c-1-5.6-0.1-16.2,1.2-26.5c11.9,29.7,5.6,41,15.2,42.7C3896.1,1339.5,3895.5,1313.8,3891.3,1303.6z"
				/>
		</g>
	</g>
</g>
</svg>
